{
.appVersion = "1158";
DisplayStrings = (

glyphs = (
{
color = 7;
glyphname = .notdef;
lastChange = "2018-02-02 13:13:51 +0000";
layers = (
{
background = {
paths = (
{
closed = 1;
nodes = (
"120 710 LINE",
"120 0 LINE",
"684 0 LINE",
"684 710 LINE"
);
},
{
closed = 1;
nodes = (
"603 48 LINE",
"201 48 LINE",
"403 314 LINE"
);
},
{
closed = 1;
nodes = (
"371 353 LINE",
"173 89 LINE",
"173 619 LINE"
);
},
{
closed = 1;
nodes = (
"631 89 LINE",
"431 356 LINE",
"631 619 LINE"
);
},
{
closed = 1;
nodes = (
"400 396 LINE",
"201 662 LINE",
"603 662 LINE"
);
}
);
};
layerId = "0A1AFE58-107D-4787-BDA0-D82FB635C3A6";
paths = (
{
closed = 1;
nodes = (
"120 710 LINE",
"120 0 LINE",
"684 0 LINE",
"684 710 LINE"
);
},
{
closed = 1;
nodes = (
"603 48 LINE",
"201 48 LINE",
"403 314 LINE"
);
},
{
closed = 1;
nodes = (
"371 353 LINE",
"173 89 LINE",
"173 619 LINE"
);
},
{
closed = 1;
nodes = (
"631 89 LINE",
"431 356 LINE",
"631 619 LINE"
);
},
{
closed = 1;
nodes = (
"400 396 LINE",
"201 662 LINE",
"603 662 LINE"
);
}
);
width = 804;
},
{
background = {
paths = (
{
closed = 1;
nodes = (
"20 710 LINE",
"20 0 LINE",
"584 0 LINE",
"584 710 LINE"
);
},
{
closed = 1;
nodes = (
"503 48 LINE",
"101 48 LINE",
"303 314 LINE"
);
},
{
closed = 1;
nodes = (
"271 353 LINE",
"73 89 LINE",
"73 619 LINE"
);
},
{
closed = 1;
nodes = (
"531 89 LINE",
"331 356 LINE",
"531 619 LINE"
);
},
{
closed = 1;
nodes = (
"300 396 LINE",
"101 662 LINE",
"503 662 LINE"
);
}
);
};
layerId = "84435905-EDCB-4949-A8A3-0E53308A2F50";
paths = (
{
closed = 1;
nodes = (
"70 710 LINE",
"70 0 LINE",
"634 0 LINE",
"634 710 LINE"
);
},
{
closed = 1;
nodes = (
"553 48 LINE",
"151 48 LINE",
"353 314 LINE"
);
},
{
closed = 1;
nodes = (
"321 353 LINE",
"123 89 LINE",
"123 619 LINE"
);
},
{
closed = 1;
nodes = (
"581 89 LINE",
"381 356 LINE",
"581 619 LINE"
);
},
{
closed = 1;
nodes = (
"350 396 LINE",
"151 662 LINE",
"553 662 LINE"
);
}
);
width = 704;
},
{
background = {
paths = (
{
closed = 1;
nodes = (
"90 710 LINE",
"90 0 LINE",
"654 0 LINE",
"654 710 LINE"
);
},
{
closed = 1;
nodes = (
"573 48 LINE",
"171 48 LINE",
"373 314 LINE"
);
},
{
closed = 1;
nodes = (
"341 353 LINE",
"143 89 LINE",
"143 619 LINE"
);
},
{
closed = 1;
nodes = (
"601 89 LINE",
"401 356 LINE",
"601 619 LINE"
);
},
{
closed = 1;
nodes = (
"370 396 LINE",
"171 662 LINE",
"573 662 LINE"
);
}
);
};
layerId = "BBFAEC79-FC1B-4455-8BF7-285C9CA7D1F7";
paths = (
{
closed = 1;
nodes = (
"106 710 LINE",
"106 0 LINE",
"670 0 LINE",
"670 710 LINE"
);
},
{
closed = 1;
nodes = (
"589 48 LINE",
"187 48 LINE",
"389 314 LINE"
);
},
{
closed = 1;
nodes = (
"357 353 LINE",
"159 89 LINE",
"159 619 LINE"
);
},
{
closed = 1;
nodes = (
"617 89 LINE",
"417 356 LINE",
"617 619 LINE"
);
},
{
closed = 1;
nodes = (
"386 396 LINE",
"187 662 LINE",
"589 662 LINE"
);
}
);
width = 776;
}
);
leftMetricsKey = H;
rightMetricsKey = H;
},
{
color = 7;
glyphname = A;
lastChange = "2018-06-27 14:24:51 +0000";
layers = (
{
anchors = (
{
name = bottom;
position = "{336, 0}";
},
{
name = ogonek;
position = "{624, 0}";
},
{
name = top;
position = "{331, 710}";
}
);
background = {
paths = (
{
closed = 1;
nodes = (
"533 172 LINE",
"533 223 LINE",
"125 223 LINE",
"125 172 LINE"
);
},
{
closed = 1;
nodes = (
"366 710 LINE",
"295 710 LINE",
"15 0 LINE",
"79 0 LINE",
"328 650 LINE",
"332 650 LINE",
"581 0 LINE",
"645 0 LINE"
);
}
);
};
layerId = "0A1AFE58-107D-4787-BDA0-D82FB635C3A6";
paths = (
{
closed = 1;
nodes = (
"533 172 LINE",
"533 219 LINE",
"125 219 LINE",
"125 172 LINE"
);
},
{
closed = 1;
nodes = (
"363 710 LINE",
"298 710 LINE",
"15 0 LINE",
"72 0 LINE",
"328 648 LINE",
"332 648 LINE",
"588 0 LINE",
"645 0 LINE"
);
}
);
userData = {
RMXScaler = {
height = 97.3;
width = 97.3;
};
};
width = 660;
},
{
anchors = (
{
name = bottom;
position = "{373, 0}";
},
{
name = ogonek;
position = "{706, 0}";
},
{
name = top;
position = "{374, 710}";
}
);
background = {
paths = (
{
closed = 1;
nodes = (
"584 111 LINE",
"584 263 LINE",
"165 263 LINE",
"165 111 LINE"
);
},
{
closed = 1;
nodes = (
"532 710 LINE",
"217 710 LINE",
"0 0 LINE",
"223 0 LINE",
"370 566 LINE",
"378 566 LINE",
"526 0 LINE",
"749 0 LINE"
);
}
);
};
layerId = "84435905-EDCB-4949-A8A3-0E53308A2F50";
paths = (
{
closed = 1;
nodes = (
"584 111 LINE",
"584 263 LINE",
"165 263 LINE",
"165 111 LINE"
);
},
{
closed = 1;
nodes = (
"532 710 LINE",
"222 710 LINE",
"5 0 LINE",
"211 0 LINE",
"369 566 LINE",
"376 566 LINE",
"524 0 LINE",
"749 0 LINE"
);
}
);
width = 754;
},
{
anchors = (
{
name = bottom;
position = "{346, 0}";
},
{
name = ogonek;
position = "{659, 0}";
},
{
name = top;
position = "{341, 710}";
}
);
background = {
paths = (
{
closed = 1;
nodes = (
"550 153 LINE",
"550 238 LINE",
"131 238 LINE",
"131 153 LINE"
);
},
{
closed = 1;
nodes = (
"414 710 LINE",
"271 710 LINE",
"5 0 LINE",
"118 0 LINE",
"340 623 LINE",
"345 623 LINE",
"567 0 LINE",
"679 0 LINE"
);
}
);
};
layerId = "BBFAEC79-FC1B-4455-8BF7-285C9CA7D1F7";
paths = (
{
closed = 1;
nodes = (
"550 154 LINE",
"550 238 LINE",
"131 238 LINE",
"131 154 LINE"
);
},
{
closed = 1;
nodes = (
"412 710 LINE",
"275 710 LINE",
"5 0 LINE",
"114 0 LINE",
"340 623 LINE",
"345 623 LINE",
"568 0 LINE",
"679 0 LINE"
);
}
);
width = 684;
}
);
unicode = 0041;
userData = {
RMXScaler = {
source = A;
};
};
},
{
color = 7;
glyphname = B;
lastChange = "2018-01-24 14:49:17 +0000";
layers = (
{
background = {
paths = (
{
closed = 1;
nodes = (
"174 0 LINE",
"174 710 LINE",
"120 710 LINE",
"120 0 LINE"
);
},
{
closed = 1;
nodes = (
"511 359 LINE",
"593 376 OFFCURVE",
"638 428 OFFCURVE",
"638 528 CURVE SMOOTH",
"638 639 OFFCURVE",
"574 710 OFFCURVE",
"415 710 CURVE SMOOTH",
"162 710 LINE",
"162 661 LINE",
"423 661 LINE SMOOTH",
"535 661 OFFCURVE",
"584 607 OFFCURVE",
"584 521 CURVE SMOOTH",
"584 433 OFFCURVE",
"535 378 OFFCURVE",
"423 378 CURVE SMOOTH",
"162 378 LINE",
"162 330 LINE",
"420 330 LINE SMOOTH",
"540 330 OFFCURVE",
"601 289 OFFCURVE",
"601 190 CURVE SMOOTH",
"601 93 OFFCURVE",
"540 49 OFFCURVE",
"420 49 CURVE SMOOTH",
"162 49 LINE",
"162 0 LINE",
"412 0 LINE SMOOTH",
"572 0 OFFCURVE",
"655 67 OFFCURVE",
"655 185 CURVE SMOOTH",
"655 299 OFFCURVE",
"592 341 OFFCURVE",
"511 355 CURVE"
);
}
);
};
layerId = "0A1AFE58-107D-4787-BDA0-D82FB635C3A6";
paths = (
{
closed = 1;
nodes = (
"174 0 LINE",
"174 710 LINE",
"120 710 LINE",
"120 0 LINE"
);
},
{
closed = 1;
nodes = (
"511 359 LINE",
"593 376 OFFCURVE",
"638 428 OFFCURVE",
"638 528 CURVE SMOOTH",
"638 639 OFFCURVE",
"574 710 OFFCURVE",
"415 710 CURVE SMOOTH",
"162 710 LINE",
"162 661 LINE",
"423 661 LINE SMOOTH",
"535 661 OFFCURVE",
"584 607 OFFCURVE",
"584 521 CURVE SMOOTH",
"584 433 OFFCURVE",
"535 379 OFFCURVE",
"423 379 CURVE SMOOTH",
"162 379 LINE",
"162 330 LINE",
"420 330 LINE SMOOTH",
"540 330 OFFCURVE",
"601 289 OFFCURVE",
"601 190 CURVE SMOOTH",
"601 93 OFFCURVE",
"540 49 OFFCURVE",
"420 49 CURVE SMOOTH",
"162 49 LINE",
"162 0 LINE",
"412 0 LINE SMOOTH",
"572 0 OFFCURVE",
"655 67 OFFCURVE",
"655 185 CURVE SMOOTH",
"655 299 OFFCURVE",
"592 341 OFFCURVE",
"511 355 CURVE"
);
}
);
userData = {
RMXScaler = {
height = 97.3;
width = 97.3;
};
};
width = 735;
},
{
background = {
paths = (
{
closed = 1;
nodes = (
"282 0 LINE",
"282 710 LINE",
"70 710 LINE",
"70 0 LINE"
);
},
{
closed = 1;
nodes = (
"582 360 LINE",
"660 383 OFFCURVE",
"695 434 OFFCURVE",
"695 529 CURVE SMOOTH",
"695 639 OFFCURVE",
"617 710 OFFCURVE",
"444 710 CURVE SMOOTH",
"263 710 LINE",
"263 552 LINE",
"403 552 LINE SMOOTH",
"457 552 OFFCURVE",
"481 539 OFFCURVE",
"481 484 CURVE SMOOTH",
"481 439 OFFCURVE",
"457 419 OFFCURVE",
"403 419 CURVE SMOOTH",
"263 419 LINE",
"263 291 LINE",
"420 291 LINE SMOOTH",
"474 291 OFFCURVE",
"500 272 OFFCURVE",
"500 226 CURVE SMOOTH",
"500 171 OFFCURVE",
"474 158 OFFCURVE",
"420 158 CURVE SMOOTH",
"263 158 LINE",
"263 0 LINE",
"460 0 LINE SMOOTH",
"634 0 OFFCURVE",
"713 71 OFFCURVE",
"713 186 CURVE SMOOTH",
"713 287 OFFCURVE",
"672 336 OFFCURVE",
"582 354 CURVE"
);
}
);
};
layerId = "84435905-EDCB-4949-A8A3-0E53308A2F50";
paths = (
{
closed = 1;
nodes = (
"282 0 LINE",
"282 710 LINE",
"70 710 LINE",
"70 0 LINE"
);
},
{
closed = 1;
nodes = (
"582 360 LINE",
"660 383 OFFCURVE",
"695 434 OFFCURVE",
"695 529 CURVE SMOOTH",
"695 639 OFFCURVE",
"617 710 OFFCURVE",
"444 710 CURVE SMOOTH",
"263 710 LINE",
"263 556 LINE",
"406 556 LINE SMOOTH",
"460 556 OFFCURVE",
"484 543 OFFCURVE",
"484 491 CURVE SMOOTH",
"484 445 OFFCURVE",
"460 425 OFFCURVE",
"406 425 CURVE SMOOTH",
"263 425 LINE",
"263 285 LINE",
"423 285 LINE SMOOTH",
"477 285 OFFCURVE",
"503 266 OFFCURVE",
"503 220 CURVE SMOOTH",
"503 168 OFFCURVE",
"477 154 OFFCURVE",
"423 154 CURVE SMOOTH",
"263 154 LINE",
"263 0 LINE",
"460 0 LINE SMOOTH",
"634 0 OFFCURVE",
"713 71 OFFCURVE",
"713 186 CURVE SMOOTH",
"713 287 OFFCURVE",
"672 336 OFFCURVE",
"582 354 CURVE"
);
}
);
width = 748;
},
{
background = {
paths = (
{
closed = 1;
nodes = (
"210 0 LINE",
"210 710 LINE",
"106 710 LINE",
"106 0 LINE"
);
},
{
closed = 1;
nodes = (
"539 360 LINE",
"621 379 OFFCURVE",
"662 431 OFFCURVE",
"662 529 CURVE SMOOTH",
"662 640 OFFCURVE",
"601 710 OFFCURVE",
"433 710 CURVE SMOOTH",
"195 710 LINE",
"195 623 LINE",
"421 623 LINE SMOOTH",
"513 623 OFFCURVE",
"555 590 OFFCURVE",
"555 509 CURVE SMOOTH",
"555 434 OFFCURVE",
"513 395 OFFCURVE",
"421 395 CURVE SMOOTH",
"195 395 LINE",
"195 315 LINE",
"427 315 LINE SMOOTH",
"525 315 OFFCURVE",
"574 283 OFFCURVE",
"574 201 CURVE SMOOTH",
"574 117 OFFCURVE",
"525 87 OFFCURVE",
"427 87 CURVE SMOOTH",
"195 87 LINE",
"195 0 LINE",
"434 0 LINE SMOOTH",
"604 0 OFFCURVE",
"679 70 OFFCURVE",
"679 186 CURVE SMOOTH",
"679 293 OFFCURVE",
"627 337 OFFCURVE",
"539 354 CURVE"
);
}
);
};
layerId = "BBFAEC79-FC1B-4455-8BF7-285C9CA7D1F7";
paths = (
{
closed = 1;
nodes = (
"209 0 LINE",
"209 710 LINE",
"106 710 LINE",
"106 0 LINE"
);
},
{
closed = 1;
nodes = (
"539 360 LINE",
"621 379 OFFCURVE",
"662 431 OFFCURVE",
"662 529 CURVE SMOOTH",
"662 640 OFFCURVE",
"601 710 OFFCURVE",
"433 710 CURVE SMOOTH",
"194 710 LINE",
"194 623 LINE",
"426 623 LINE SMOOTH",
"518 623 OFFCURVE",
"560 591 OFFCURVE",
"560 510 CURVE SMOOTH",
"560 435 OFFCURVE",
"518 396 OFFCURVE",
"426 396 CURVE SMOOTH",
"194 396 LINE",
"194 314 LINE",
"430 314 LINE SMOOTH",
"528 314 OFFCURVE",
"577 282 OFFCURVE",
"577 200 CURVE SMOOTH",
"577 116 OFFCURVE",
"528 87 OFFCURVE",
"430 87 CURVE SMOOTH",
"194 87 LINE",
"194 0 LINE",
"434 0 LINE SMOOTH",
"604 0 OFFCURVE",
"679 70 OFFCURVE",
"679 186 CURVE SMOOTH",
"679 293 OFFCURVE",
"627 337 OFFCURVE",
"539 354 CURVE"
);
}
);
width = 742;
}
);
leftMetricsKey = H;
unicode = 0042;
userData = {
RMXScaler = {
source = B;
};
};
},
{
color = 7;
glyphname = C;
lastChange = "2018-03-01 08:47:21 +0000";
layers = (
{
anchors = (
{
name = bottom;
position = "{392, 0}";
},
{
name = top;
position = "{389, 710}";
}
);
background = {
paths = (
{
closed = 1;
nodes = (
"556 -15 OFFCURVE",
"660 68 OFFCURVE",
"684 216 CURVE",
"630 221 LINE",
"602 91 OFFCURVE",
"529 36 OFFCURVE",
"391 36 CURVE SMOOTH",
"217 36 OFFCURVE",
"127 153 OFFCURVE",
"127 355 CURVE SMOOTH",
"127 557 OFFCURVE",
"217 674 OFFCURVE",
"391 674 CURVE SMOOTH",
"529 674 OFFCURVE",
"600 619 OFFCURVE",
"629 490 CURVE",
"683 495 LINE",
"658 642 OFFCURVE",
"555 725 OFFCURVE",
"391 725 CURVE SMOOTH",
"191 725 OFFCURVE",
"70 585 OFFCURVE",
"70 355 CURVE SMOOTH",
"70 125 OFFCURVE",
"191 -15 OFFCURVE",
"391 -15 CURVE SMOOTH"
);
}
);
};
layerId = "0A1AFE58-107D-4787-BDA0-D82FB635C3A6";
paths = (
{
closed = 1;
nodes = (
"556 -15 OFFCURVE",
"656 71 OFFCURVE",
"684 216 CURVE",
"629 221 LINE",
"601 96 OFFCURVE",
"529 36 OFFCURVE",
"391 36 CURVE SMOOTH",
"217 36 OFFCURVE",
"127 153 OFFCURVE",
"127 355 CURVE SMOOTH",
"127 557 OFFCURVE",
"217 674 OFFCURVE",
"391 674 CURVE SMOOTH",
"529 674 OFFCURVE",
"598 617 OFFCURVE",
"628 490 CURVE",
"683 495 LINE",
"653 642 OFFCURVE",
"555 725 OFFCURVE",
"391 725 CURVE SMOOTH",
"191 725 OFFCURVE",
"70 585 OFFCURVE",
"70 355 CURVE SMOOTH",
"70 125 OFFCURVE",
"191 -15 OFFCURVE",
"391 -15 CURVE SMOOTH"
);
}
);
userData = {
RMXScaler = {
height = 97.3;
width = 97.3;
};
};
width = 750;
},
{
anchors = (
{
name = bottom;
position = "{399, 0}";
},
{
name = top;
position = "{394, 710}";
}
);
background = {
paths = (
{
closed = 1;
nodes = (
"602 -15 OFFCURVE",
"707 78 OFFCURVE",
"723 257 CURVE",
"517 277 LINE",
"506 206 OFFCURVE",
"480 165 OFFCURVE",
"398 165 CURVE SMOOTH",
"306 165 OFFCURVE",
"265 222 OFFCURVE",
"265 353 CURVE SMOOTH",
"265 481 OFFCURVE",
"304 545 OFFCURVE",
"395 545 CURVE SMOOTH",
"473 545 OFFCURVE",
"504 507 OFFCURVE",
"516 432 CURVE",
"722 452 LINE",
"710 623 OFFCURVE",
"596 725 OFFCURVE",
"394 725 CURVE SMOOTH",
"167 725 OFFCURVE",
"40 592 OFFCURVE",
"40 353 CURVE SMOOTH",
"40 120 OFFCURVE",
"167 -15 OFFCURVE",
"394 -15 CURVE SMOOTH"
);
}
);
};
layerId = "84435905-EDCB-4949-A8A3-0E53308A2F50";
paths = (
{
closed = 1;
nodes = (
"599 -15 OFFCURVE",
"707 78 OFFCURVE",
"723 257 CURVE",
"517 277 LINE",
"506 196 OFFCURVE",
"471 158 OFFCURVE",
"394 158 CURVE SMOOTH",
"307 158 OFFCURVE",
"265 212 OFFCURVE",
"265 353 CURVE SMOOTH",
"265 491 OFFCURVE",
"305 552 OFFCURVE",
"391 552 CURVE SMOOTH",
"464 552 OFFCURVE",
"504 517 OFFCURVE",
"516 432 CURVE",
"722 452 LINE",
"710 623 OFFCURVE",
"593 725 OFFCURVE",
"391 725 CURVE SMOOTH",
"164 725 OFFCURVE",
"40 592 OFFCURVE",
"40 353 CURVE SMOOTH",
"40 120 OFFCURVE",
"164 -15 OFFCURVE",
"391 -15 CURVE SMOOTH"
);
}
);
width = 763;
},
{
anchors = (
{
name = bottom;
position = "{392, 0}";
},
{
name = top;
position = "{388, 710}";
}
);
background = {
paths = (
{
closed = 1;
nodes = (
"575 -15 OFFCURVE",
"681 71 OFFCURVE",
"704 228 CURVE",
"599 236 LINE",
"576 125 OFFCURVE",
"516 78 OFFCURVE",
"392 78 CURVE SMOOTH",
"243 78 OFFCURVE",
"163 178 OFFCURVE",
"163 355 CURVE SMOOTH",
"163 532 OFFCURVE",
"243 632 OFFCURVE",
"391 632 CURVE SMOOTH",
"513 632 OFFCURVE",
"573 581 OFFCURVE",
"598 475 CURVE",
"702 482 LINE",
"679 639 OFFCURVE",
"571 725 OFFCURVE",
"391 725 CURVE SMOOTH",
"181 725 OFFCURVE",
"55 587 OFFCURVE",
"55 355 CURVE SMOOTH",
"55 123 OFFCURVE",
"180 -15 OFFCURVE",
"392 -15 CURVE SMOOTH"
);
}
);
};
layerId = "BBFAEC79-FC1B-4455-8BF7-285C9CA7D1F7";
paths = (
{
closed = 1;
nodes = (
"575 -15 OFFCURVE",
"681 71 OFFCURVE",
"704 228 CURVE",
"599 236 LINE",
"576 123 OFFCURVE",
"516 76 OFFCURVE",
"392 76 CURVE SMOOTH",
"243 76 OFFCURVE",
"163 176 OFFCURVE",
"163 355 CURVE SMOOTH",
"163 534 OFFCURVE",
"243 634 OFFCURVE",
"391 634 CURVE SMOOTH",
"513 634 OFFCURVE",
"573 583 OFFCURVE",
"598 475 CURVE",
"702 482 LINE",
"679 639 OFFCURVE",
"571 725 OFFCURVE",
"391 725 CURVE SMOOTH",
"181 725 OFFCURVE",
"55 587 OFFCURVE",
"55 355 CURVE SMOOTH",
"55 123 OFFCURVE",
"180 -15 OFFCURVE",
"392 -15 CURVE SMOOTH"
);
}
);
width = 764;
}
);
leftMetricsKey = O;
unicode = 0043;
userData = {
RMXScaler = {
source = C;
};
};
},
{
color = 7;
glyphname = D;
lastChange = "2018-01-18 18:42:46 +0000";
layers = (
{
anchors = (
{
name = top;
position = "{327, 710}";
}
);
background = {
paths = (
{
closed = 1;
nodes = (
"180 0 LINE",
"180 710 LINE",
"120 710 LINE",
"120 0 LINE"
);
},
{
closed = 1;
nodes = (
"145 51 LINE",
"145 0 LINE",
"328 0 LINE SMOOTH",
"568 0 OFFCURVE",
"672 105 OFFCURVE",
"672 353 CURVE SMOOTH",
"672 607 OFFCURVE",
"567 710 OFFCURVE",
"337 710 CURVE SMOOTH",
"145 710 LINE",
"145 659 LINE",
"346 659 LINE SMOOTH",
"521 659 OFFCURVE",
"610 589 OFFCURVE",
"610 353 CURVE SMOOTH",
"610 121 OFFCURVE",
"521 51 OFFCURVE",
"346 51 CURVE SMOOTH"
);
}
);
};
layerId = "0A1AFE58-107D-4787-BDA0-D82FB635C3A6";
paths = (
{
closed = 1;
nodes = (
"175 0 LINE",
"175 710 LINE",
"120 710 LINE",
"120 0 LINE"
);
},
{
closed = 1;
nodes = (
"145 50 LINE",
"145 0 LINE",
"328 0 LINE SMOOTH",
"568 0 OFFCURVE",
"672 105 OFFCURVE",
"672 353 CURVE SMOOTH",
"672 606 OFFCURVE",
"567 710 OFFCURVE",
"337 710 CURVE SMOOTH",
"145 710 LINE",
"145 660 LINE",
"346 660 LINE SMOOTH",
"526 660 OFFCURVE",
"615 589 OFFCURVE",
"615 353 CURVE SMOOTH",
"615 121 OFFCURVE",
"526 50 OFFCURVE",
"346 50 CURVE SMOOTH"
);
}
);
userData = {
RMXScaler = {
height = 97.3;
width = 97.3;
};
};
width = 742;
},
{
anchors = (
{
name = top;
position = "{354, 710}";
}
);
background = {
paths = (
{
closed = 1;
nodes = (
"290 0 LINE",
"290 710 LINE",
"70 710 LINE",
"70 0 LINE"
);
},
{
closed = 1;
nodes = (
"249 175 LINE",
"249 0 LINE",
"386 0 LINE SMOOTH",
"612 0 OFFCURVE",
"743 118 OFFCURVE",
"743 355 CURVE SMOOTH",
"743 595 OFFCURVE",
"611 710 OFFCURVE",
"397 710 CURVE SMOOTH",
"249 710 LINE",
"249 535 LINE",
"369 535 LINE SMOOTH",
"471 535 OFFCURVE",
"518 483 OFFCURVE",
"518 355 CURVE SMOOTH",
"518 227 OFFCURVE",
"471 175 OFFCURVE",
"369 175 CURVE SMOOTH"
);
}
);
};
layerId = "84435905-EDCB-4949-A8A3-0E53308A2F50";
paths = (
{
closed = 1;
nodes = (
"290 0 LINE",
"290 710 LINE",
"70 710 LINE",
"70 0 LINE"
);
},
{
closed = 1;
nodes = (
"249 167 LINE",
"249 0 LINE",
"386 0 LINE SMOOTH",
"612 0 OFFCURVE",
"743 118 OFFCURVE",
"743 355 CURVE SMOOTH",
"743 595 OFFCURVE",
"611 710 OFFCURVE",
"397 710 CURVE SMOOTH",
"249 710 LINE",
"249 543 LINE",
"369 543 LINE SMOOTH",
"471 543 OFFCURVE",
"518 491 OFFCURVE",
"518 355 CURVE SMOOTH",
"518 219 OFFCURVE",
"471 167 OFFCURVE",
"369 167 CURVE SMOOTH"
);
}
);
width = 783;
},
{
anchors = (
{
name = top;
position = "{339, 710}";
}
);
background = {
paths = (
{
closed = 1;
nodes = (
"211 0 LINE",
"211 710 LINE",
"106 710 LINE",
"106 0 LINE"
);
},
{
closed = 1;
nodes = (
"176 90 LINE",
"176 0 LINE",
"353 0 LINE SMOOTH",
"589 0 OFFCURVE",
"695 111 OFFCURVE",
"695 355 CURVE SMOOTH",
"695 602 OFFCURVE",
"588 710 OFFCURVE",
"363 710 CURVE SMOOTH",
"176 710 LINE",
"176 620 LINE",
"361 620 LINE SMOOTH",
"512 620 OFFCURVE",
"587 559 OFFCURVE",
"587 355 CURVE SMOOTH",
"587 151 OFFCURVE",
"512 90 OFFCURVE",
"361 90 CURVE SMOOTH"
);
}
);
};
layerId = "BBFAEC79-FC1B-4455-8BF7-285C9CA7D1F7";
paths = (
{
closed = 1;
nodes = (
"211 0 LINE",
"211 710 LINE",
"106 710 LINE",
"106 0 LINE"
);
},
{
closed = 1;
nodes = (
"176 90 LINE",
"176 0 LINE",
"353 0 LINE SMOOTH",
"589 0 OFFCURVE",
"695 111 OFFCURVE",
"695 355 CURVE SMOOTH",
"695 602 OFFCURVE",
"588 710 OFFCURVE",
"363 710 CURVE SMOOTH",
"176 710 LINE",
"176 620 LINE",
"361 620 LINE SMOOTH",
"512 620 OFFCURVE",
"588 559 OFFCURVE",
"588 355 CURVE SMOOTH",
"588 151 OFFCURVE",
"512 90 OFFCURVE",
"361 90 CURVE SMOOTH"
);
}
);
width = 750;
}
);
leftMetricsKey = H;
rightMetricsKey = O;
unicode = 0044;
userData = {
RMXScaler = {
source = D;
};
};
},
{
color = 7;
glyphname = E;
lastChange = "2018-06-27 14:24:58 +0000";
layers = (
{
anchors = (
{
name = bottom;
position = "{372, 0}";
},
{
name = ogonek;
position = "{569, 0}";
},
{
name = top;
position = "{360, 710}";
}
);
background = {
paths = (
{
closed = 1;
nodes = (
"175 0 LINE",
"175 710 LINE",
"120 710 LINE",
"120 0 LINE"
);
},
{
closed = 1;
nodes = (
"590 660 LINE",
"590 710 LINE",
"162 710 LINE",
"162 660 LINE"
);
},
{
closed = 1;
nodes = (
"524 339 LINE",
"524 387 LINE",
"162 387 LINE",
"162 339 LINE"
);
},
{
closed = 1;
nodes = (
"590 0 LINE",
"590 50 LINE",
"162 50 LINE",
"162 0 LINE"
);
}
);
};
layerId = "0A1AFE58-107D-4787-BDA0-D82FB635C3A6";
paths = (
{
closed = 1;
nodes = (
"175 0 LINE",
"175 710 LINE",
"120 710 LINE",
"120 0 LINE"
);
},
{
closed = 1;
nodes = (
"590 660 LINE",
"590 710 LINE",
"162 710 LINE",
"162 660 LINE"
);
},
{
closed = 1;
nodes = (
"524 339 LINE",
"524 387 LINE",
"162 387 LINE",
"162 339 LINE"
);
},
{
closed = 1;
nodes = (
"590 0 LINE",
"590 50 LINE",
"162 50 LINE",
"162 0 LINE"
);
}
);
userData = {
RMXScaler = {
height = 97.3;
width = 97.3;
};
};
width = 670;
},
{
anchors = (
{
name = bottom;
position = "{371, 0}";
},
{
name = ogonek;
position = "{600, 0}";
},
{
name = top;
position = "{364, 710}";
}
);
background = {
paths = (
{
closed = 1;
nodes = (
"285 0 LINE",
"285 710 LINE",
"70 710 LINE",
"70 0 LINE"
);
},
{
closed = 1;
nodes = (
"643 537 LINE",
"643 710 LINE",
"189 710 LINE",
"189 537 LINE"
);
},
{
closed = 1;
nodes = (
"581 279 LINE",
"581 430 LINE",
"207 430 LINE",
"207 279 LINE"
);
},
{
closed = 1;
nodes = (
"643 0 LINE",
"643 173 LINE",
"189 173 LINE",
"189 0 LINE"
);
}
);
};
layerId = "84435905-EDCB-4949-A8A3-0E53308A2F50";
paths = (
{
closed = 1;
nodes = (
"285 0 LINE",
"285 710 LINE",
"70 710 LINE",
"70 0 LINE"
);
},
{
closed = 1;
nodes = (
"643 537 LINE",
"643 710 LINE",
"189 710 LINE",
"189 537 LINE"
);
},
{
closed = 1;
nodes = (
"573 279 LINE",
"573 430 LINE",
"207 430 LINE",
"207 279 LINE"
);
},
{
closed = 1;
nodes = (
"643 0 LINE",
"643 173 LINE",
"189 173 LINE",
"189 0 LINE"
);
}
);
width = 693;
},
{
anchors = (
{
name = bottom;
position = "{376, 0}";
},
{
name = ogonek;
position = "{592, 0}";
},
{
name = top;
position = "{365, 710}";
}
);
layerId = "BBFAEC79-FC1B-4455-8BF7-285C9CA7D1F7";
paths = (
{
closed = 1;
nodes = (
"211 0 LINE",
"211 710 LINE",
"106 710 LINE",
"106 0 LINE"
);
},
{
closed = 1;
nodes = (
"612 620 LINE",
"612 710 LINE",
"179 710 LINE",
"179 620 LINE"
);
},
{
closed = 1;
nodes = (
"547 314 LINE",
"547 400 LINE",
"192 400 LINE",
"192 314 LINE"
);
},
{
closed = 1;
nodes = (
"612 0 LINE",
"612 90 LINE",
"179 90 LINE",
"179 0 LINE"
);
}
);
width = 681;
}
);
leftMetricsKey = "=H";
unicode = 0045;
userData = {
RMXScaler = {
source = E;
};
};
},
{
color = 7;
glyphname = F;
lastChange = "2018-01-18 18:43:11 +0000";
layers = (
{
background = {
paths = (
{
closed = 1;
nodes = (
"180 0 LINE",
"180 710 LINE",
"120 710 LINE",
"120 0 LINE"
);
},
{
closed = 1;
nodes = (
"577 657 LINE",
"577 710 LINE",
"167 710 LINE",
"167 657 LINE"
);
},
{
closed = 1;
nodes = (
"510 331 LINE",
"510 382 LINE",
"167 382 LINE",
"167 331 LINE"
);
}
);
};
layerId = "0A1AFE58-107D-4787-BDA0-D82FB635C3A6";
paths = (
{
closed = 1;
nodes = (
"175 0 LINE",
"175 710 LINE",
"120 710 LINE",
"120 0 LINE"
);
},
{
closed = 1;
nodes = (
"577 660 LINE",
"577 710 LINE",
"162 710 LINE",
"162 660 LINE"
);
},
{
closed = 1;
nodes = (
"510 331 LINE",
"510 379 LINE",
"162 379 LINE",
"162 331 LINE"
);
}
);
userData = {
RMXScaler = {
height = 97.3;
width = 97.3;
};
};
width = 607;
},
{
background = {
paths = (
{
closed = 1;
nodes = (
"288 0 LINE",
"288 710 LINE",
"70 710 LINE",
"70 0 LINE"
);
},
{
closed = 1;
nodes = (
"626 538 LINE",
"626 710 LINE",
"188 710 LINE",
"188 538 LINE"
);
},
{
closed = 1;
nodes = (
"563 248 LINE",
"563 401 LINE",
"188 401 LINE",
"188 248 LINE"
);
}
);
};
layerId = "84435905-EDCB-4949-A8A3-0E53308A2F50";
paths = (
{
closed = 1;
nodes = (
"290 0 LINE",
"290 710 LINE",
"70 710 LINE",
"70 0 LINE"
);
},
{
closed = 1;
nodes = (
"626 537 LINE",
"626 710 LINE",
"190 710 LINE",
"190 537 LINE"
);
},
{
closed = 1;
nodes = (
"563 248 LINE",
"563 401 LINE",
"190 401 LINE",
"190 248 LINE"
);
}
);
width = 646;
},
{
background = {
paths = (
{
closed = 1;
nodes = (
"212 0 LINE",
"212 710 LINE",
"106 710 LINE",
"106 0 LINE"
);
},
{
closed = 1;
nodes = (
"593 619 LINE",
"593 710 LINE",
"181 710 LINE",
"181 619 LINE"
);
},
{
closed = 1;
nodes = (
"528 301 LINE",
"528 387 LINE",
"181 387 LINE",
"181 301 LINE"
);
}
);
};
layerId = "BBFAEC79-FC1B-4455-8BF7-285C9CA7D1F7";
paths = (
{
closed = 1;
nodes = (
"211 0 LINE",
"211 710 LINE",
"106 710 LINE",
"106 0 LINE"
);
},
{
closed = 1;
nodes = (
"593 620 LINE",
"593 710 LINE",
"180 710 LINE",
"180 620 LINE"
);
},
{
closed = 1;
nodes = (
"528 300 LINE",
"528 387 LINE",
"180 387 LINE",
"180 300 LINE"
);
}
);
width = 620;
}
);
leftMetricsKey = H;
unicode = 0046;
userData = {
RMXScaler = {
source = F;
};
};
},
{
color = 7;
glyphname = G;
lastChange = "2018-05-18 19:28:51 +0000";
layers = (
{
anchors = (
{
name = bottom;
position = "{385, 0}";
},
{
name = top;
position = "{392, 710}";
}
);
background = {
paths = (
{
closed = 1;
nodes = (
"544 -15 OFFCURVE",
"617 82 OFFCURVE",
"641 140 CURVE",
"646 140 LINE",
"654 0 LINE",
"697 0 LINE",
"697 346 LINE",
"443 346 LINE",
"443 301 LINE",
"669 301 LINE",
"652 309 LINE",
"634 137 OFFCURVE",
"536 36 OFFCURVE",
"385 36 CURVE SMOOTH",
"221 36 OFFCURVE",
"127 155 OFFCURVE",
"127 355 CURVE SMOOTH",
"127 561 OFFCURVE",
"219 674 OFFCURVE",
"394 674 CURVE SMOOTH",
"538 674 OFFCURVE",
"610 622 OFFCURVE",
"637 499 CURVE",
"691 504 LINE",
"668 631 OFFCURVE",
"581 725 OFFCURVE",
"396 725 CURVE SMOOTH",
"190 725 OFFCURVE",
"70 585 OFFCURVE",
"70 355 CURVE SMOOTH",
"70 125 OFFCURVE",
"194 -15 OFFCURVE",
"385 -15 CURVE SMOOTH"
);
}
);
};
layerId = "0A1AFE58-107D-4787-BDA0-D82FB635C3A6";
paths = (
{
closed = 1;
nodes = (
"544 -15 OFFCURVE",
"617 82 OFFCURVE",
"641 140 CURVE",
"646 140 LINE",
"654 0 LINE",
"697 0 LINE",
"697 346 LINE",
"443 346 LINE",
"443 301 LINE",
"669 301 LINE",
"652 320 LINE",
"650 299 LINE SMOOTH",
"635 140 OFFCURVE",
"536 36 OFFCURVE",
"385 36 CURVE SMOOTH",
"221 36 OFFCURVE",
"127 155 OFFCURVE",
"127 355 CURVE SMOOTH",
"127 561 OFFCURVE",
"219 674 OFFCURVE",
"394 674 CURVE SMOOTH",
"538 674 OFFCURVE",
"610 622 OFFCURVE",
"637 499 CURVE",
"691 504 LINE",
"668 631 OFFCURVE",
"581 725 OFFCURVE",
"396 725 CURVE SMOOTH",
"190 725 OFFCURVE",
"70 585 OFFCURVE",
"70 355 CURVE SMOOTH",
"70 125 OFFCURVE",
"194 -15 OFFCURVE",
"385 -15 CURVE SMOOTH"
);
}
);
userData = {
RMXScaler = {
height = 97.3;
width = 97.3;
};
};
width = 791;
},
{
anchors = (
{
name = bottom;
position = "{397, 0}";
},
{
name = top;
position = "{410, 710}";
}
);
background = {
paths = (
{
closed = 1;
nodes = (
"472 -16 OFFCURVE",
"533 40 OFFCURVE",
"560 101 CURVE",
"567 101 LINE",
"592 0 LINE",
"748 0 LINE",
"748 393 LINE",
"417 393 LINE",
"417 253 LINE",
"596 253 LINE",
"560 288 LINE",
"553 195 OFFCURVE",
"499 144 OFFCURVE",
"410 144 CURVE SMOOTH",
"302 144 OFFCURVE",
"265 213 OFFCURVE",
"265 353 CURVE SMOOTH",
"265 488 OFFCURVE",
"304 555 OFFCURVE",
"403 555 CURVE SMOOTH",
"480 555 OFFCURVE",
"512 518 OFFCURVE",
"528 464 CURVE",
"738 484 LINE",
"720 615 OFFCURVE",
"632 725 OFFCURVE",
"403 725 CURVE SMOOTH",
"167 725 OFFCURVE",
"40 592 OFFCURVE",
"40 353 CURVE SMOOTH",
"40 120 OFFCURVE",
"148 -16 OFFCURVE",
"352 -16 CURVE SMOOTH"
);
}
);
};
layerId = "84435905-EDCB-4949-A8A3-0E53308A2F50";
paths = (
{
closed = 1;
nodes = (
"472 -16 OFFCURVE",
"533 40 OFFCURVE",
"560 101 CURVE",
"567 101 LINE",
"592 0 LINE",
"748 0 LINE",
"748 393 LINE",
"417 393 LINE",
"417 253 LINE",
"596 253 LINE",
"560 288 LINE",
"556 262 LINE SMOOTH",
"545 188 OFFCURVE",
"490 144 OFFCURVE",
"410 144 CURVE SMOOTH",
"302 144 OFFCURVE",
"265 213 OFFCURVE",
"265 353 CURVE SMOOTH",
"265 488 OFFCURVE",
"304 555 OFFCURVE",
"403 555 CURVE SMOOTH",
"480 555 OFFCURVE",
"512 518 OFFCURVE",
"528 464 CURVE",
"738 484 LINE",
"720 615 OFFCURVE",
"632 725 OFFCURVE",
"403 725 CURVE SMOOTH",
"167 725 OFFCURVE",
"40 592 OFFCURVE",
"40 353 CURVE SMOOTH",
"40 120 OFFCURVE",
"148 -16 OFFCURVE",
"352 -16 CURVE SMOOTH"
);
}
);
width = 803;
},
{
anchors = (
{
name = bottom;
position = "{391, 0}";
},
{
name = top;
position = "{398, 710}";
}
);
background = {
paths = (
{
closed = 1;
nodes = (
"512 -16 OFFCURVE",
"580 52 OFFCURVE",
"614 125 CURVE",
"620 125 LINE",
"631 0 LINE",
"714 0 LINE",
"714 361 LINE",
"433 361 LINE",
"433 278 LINE",
"660 278 LINE",
"623 305 LINE",
"607 167 OFFCURVE",
"527 73 OFFCURVE",
"391 73 CURVE SMOOTH",
"248 73 OFFCURVE",
"162 171 OFFCURVE",
"162 355 CURVE SMOOTH",
"162 535 OFFCURVE",
"243 634 OFFCURVE",
"397 634 CURVE SMOOTH",
"526 634 OFFCURVE",
"582 581 OFFCURVE",
"604 490 CURVE",
"708 498 LINE",
"691 629 OFFCURVE",
"592 725 OFFCURVE",
"396 725 CURVE SMOOTH",
"180 725 OFFCURVE",
"55 588 OFFCURVE",
"55 355 CURVE SMOOTH",
"55 114 OFFCURVE",
"186 -16 OFFCURVE",
"373 -16 CURVE SMOOTH"
);
}
);
};
layerId = "BBFAEC79-FC1B-4455-8BF7-285C9CA7D1F7";
paths = (
{
closed = 1;
nodes = (
"512 -16 OFFCURVE",
"580 52 OFFCURVE",
"614 125 CURVE",
"620 125 LINE",
"631 0 LINE",
"714 0 LINE",
"714 361 LINE",
"433 361 LINE",
"433 278 LINE",
"660 278 LINE",
"626 331 LINE",
"621 295 LINE SMOOTH",
"603 166 OFFCURVE",
"527 73 OFFCURVE",
"391 73 CURVE SMOOTH",
"248 73 OFFCURVE",
"162 171 OFFCURVE",
"162 355 CURVE SMOOTH",
"162 535 OFFCURVE",
"243 634 OFFCURVE",
"397 634 CURVE SMOOTH",
"526 634 OFFCURVE",
"582 581 OFFCURVE",
"604 490 CURVE",
"708 498 LINE",
"691 629 OFFCURVE",
"592 725 OFFCURVE",
"396 725 CURVE SMOOTH",
"180 725 OFFCURVE",
"55 588 OFFCURVE",
"55 355 CURVE SMOOTH",
"55 114 OFFCURVE",
"186 -16 OFFCURVE",
"373 -16 CURVE SMOOTH"
);
}
);
width = 798;
}
);
leftMetricsKey = O;
unicode = 0047;
userData = {
RMXScaler = {
source = G;
};
};
},
{
color = 7;
glyphname = H;
lastChange = "2018-01-18 18:40:20 +0000";
layers = (
{
anchors = (
{
name = top;
position = "{391, 710}";
}
);
background = {
paths = (
{
closed = 1;
nodes = (
"607 389 LINE",
"180 389 LINE",
"180 710 LINE",
"120 710 LINE",
"120 0 LINE",
"180 0 LINE",
"180 336 LINE",
"607 336 LINE",
"607 0 LINE",
"667 0 LINE",
"667 710 LINE",
"607 710 LINE"
);
}
);
};
layerId = "0A1AFE58-107D-4787-BDA0-D82FB635C3A6";
paths = (
{
closed = 1;
nodes = (
"612 389 LINE",
"175 389 LINE",
"175 710 LINE",
"120 710 LINE",
"120 0 LINE",
"175 0 LINE",
"175 339 LINE",
"612 339 LINE",
"612 0 LINE",
"667 0 LINE",
"667 710 LINE",
"612 710 LINE"
);
}
);
userData = {
RMXScaler = {
height = 97.3;
width = 97.3;
};
};
width = 787;
},
{
anchors = (
{
name = top;
position = "{401, 710}";
}
);
background = {
paths = (
{
closed = 1;
nodes = (
"518 440 LINE",
"290 440 LINE",
"290 710 LINE",
"70 710 LINE",
"70 0 LINE",
"290 0 LINE",
"290 270 LINE",
"518 270 LINE",
"518 0 LINE",
"738 0 LINE",
"738 710 LINE",
"518 710 LINE"
);
}
);
};
layerId = "84435905-EDCB-4949-A8A3-0E53308A2F50";
paths = (
{
closed = 1;
nodes = (
"518 445 LINE",
"290 445 LINE",
"290 710 LINE",
"70 710 LINE",
"70 0 LINE",
"290 0 LINE",
"290 270 LINE",
"518 270 LINE",
"518 0 LINE",
"738 0 LINE",
"738 710 LINE",
"518 710 LINE"
);
}
);
width = 808;
},
{
anchors = (
{
name = top;
position = "{398, 710}";
}
);
background = {
paths = (
{
closed = 1;
nodes = (
"585 405 LINE",
"212 405 LINE",
"212 710 LINE",
"106 710 LINE",
"106 0 LINE",
"212 0 LINE",
"212 314 LINE",
"585 314 LINE",
"585 0 LINE",
"692 0 LINE",
"692 710 LINE",
"585 710 LINE"
);
}
);
};
layerId = "BBFAEC79-FC1B-4455-8BF7-285C9CA7D1F7";
paths = (
{
closed = 1;
nodes = (
"587 405 LINE",
"211 405 LINE",
"211 710 LINE",
"106 710 LINE",
"106 0 LINE",
"211 0 LINE",
"211 315 LINE",
"587 315 LINE",
"587 0 LINE",
"692 0 LINE",
"692 710 LINE",
"587 710 LINE"
);
}
);
width = 798;
}
);
unicode = 0048;
userData = {
RMXScaler = {
source = H;
};
};
},
{
color = 7;
glyphname = I;
lastChange = "2018-01-18 18:43:37 +0000";
layers = (
{
anchors = (
{
name = bottom;
position = "{147, 0}";
},
{
name = ogonek;
position = "{157, 0}";
},
{
name = top;
position = "{147, 710}";
}
);
background = {
paths = (
{
closed = 1;
nodes = (
"175 0 LINE",
"175 710 LINE",
"115 710 LINE",
"115 0 LINE"
);
}
);
};
layerId = "0A1AFE58-107D-4787-BDA0-D82FB635C3A6";
paths = (
{
closed = 1;
nodes = (
"175 0 LINE",
"175 710 LINE",
"120 710 LINE",
"120 0 LINE"
);
}
);
width = 295;
},
{
anchors = (
{
name = bottom;
position = "{178, 0}";
},
{
name = ogonek;
position = "{250, 0}";
},
{
name = top;
position = "{177, 710}";
}
);
background = {
paths = (
{
closed = 1;
nodes = (
"290 0 LINE",
"290 670 LINE",
"71 670 LINE",
"71 0 LINE"
);
}
);
};
layerId = "84435905-EDCB-4949-A8A3-0E53308A2F50";
paths = (
{
closed = 1;
nodes = (
"290 0 LINE",
"290 710 LINE",
"70 710 LINE",
"70 0 LINE"
);
}
);
width = 360;
},
{
anchors = (
{
name = bottom;
position = "{158, 0}";
},
{
name = ogonek;
position = "{193, 0}";
},
{
name = top;
position = "{158, 710}";
}
);
layerId = "BBFAEC79-FC1B-4455-8BF7-285C9CA7D1F7";
paths = (
{
closed = 1;
nodes = (
"211 0 LINE",
"211 710 LINE",
"106 710 LINE",
"106 0 LINE"
);
}
);
width = 317;
}
);
leftMetricsKey = "=H";
rightMetricsKey = "=H";
unicode = 0049;
userData = {
RMXScaler = {
source = I;
};
};
},
{
color = 7;
glyphname = J;
lastChange = "2018-01-22 16:01:18 +0000";
layers = (
{
anchors = (
{
name = top;
position = "{278, 710}";
}
);
background = {
paths = (
{
closed = 1;
nodes = (
"283 657 LINE",
"283 710 LINE",
"-69 710 LINE",
"-69 657 LINE"
);
},
{
closed = 1;
nodes = (
"220 -15 OFFCURVE",
"305 76 OFFCURVE",
"305 262 CURVE SMOOTH",
"305 710 LINE",
"245 710 LINE",
"245 263 LINE SMOOTH",
"245 102 OFFCURVE",
"189 36 OFFCURVE",
"55 36 CURVE SMOOTH",
"-79 36 OFFCURVE",
"-135 101 OFFCURVE",
"-146 238 CURVE",
"-203 233 LINE",
"-190 70 OFFCURVE",
"-112 -15 OFFCURVE",
"56 -15 CURVE SMOOTH"
);
}
);
};
layerId = "0A1AFE58-107D-4787-BDA0-D82FB635C3A6";
paths = (
{
closed = 1;
nodes = (
"10 -6 LINE",
"33 -12 OFFCURVE",
"69 -15 OFFCURVE",
"96 -15 CURVE SMOOTH",
"247 -15 OFFCURVE",
"305 76 OFFCURVE",
"305 262 CURVE SMOOTH",
"305 710 LINE",
"250 710 LINE",
"250 263 LINE SMOOTH",
"250 103 OFFCURVE",
"214 36 OFFCURVE",
"90 36 CURVE SMOOTH",
"67 36 OFFCURVE",
"35 38 OFFCURVE",
"16 42 CURVE"
);
}
);
userData = {
RMXScaler = {
height = 97.3;
width = 97.3;
};
};
width = 415;
},
{
anchors = (
{
name = top;
position = "{332, 710}";
}
);
background = {
anchors = (
{
name = top;
position = "{211, 710}";
}
);
paths = (
{
closed = 1;
nodes = (
"331 535 LINE",
"331 710 LINE",
"-29 710 LINE",
"-29 535 LINE"
);
},
{
closed = 1;
nodes = (
"341 -15 OFFCURVE",
"443 74 OFFCURVE",
"443 274 CURVE SMOOTH",
"443 710 LINE",
"223 710 LINE",
"223 273 LINE SMOOTH",
"223 194 OFFCURVE",
"199 160 OFFCURVE",
"136 160 CURVE SMOOTH",
"80 160 OFFCURVE",
"53 194 OFFCURVE",
"48 279 CURVE",
"-163 259 LINE",
"-158 64 OFFCURVE",
"-60 -15 OFFCURVE",
"139 -15 CURVE SMOOTH"
);
}
);
};
layerId = "84435905-EDCB-4949-A8A3-0E53308A2F50";
paths = (
{
closed = 1;
nodes = (
"5 6 LINE",
"40 -6 OFFCURVE",
"94 -15 OFFCURVE",
"159 -15 CURVE SMOOTH",
"351 -15 OFFCURVE",
"443 74 OFFCURVE",
"443 264 CURVE SMOOTH",
"443 710 LINE",
"223 710 LINE",
"223 263 LINE SMOOTH",
"223 184 OFFCURVE",
"190 155 OFFCURVE",
"121 155 CURVE SMOOTH",
"80 155 OFFCURVE",
"48 163 OFFCURVE",
"25 170 CURVE"
);
}
);
width = 503;
},
{
anchors = (
{
name = top;
position = "{292, 710}";
}
);
background = {
paths = (
{
closed = 1;
nodes = (
"293 620 LINE",
"293 710 LINE",
"-64 710 LINE",
"-64 620 LINE"
);
},
{
closed = 1;
nodes = (
"255 -15 OFFCURVE",
"342 77 OFFCURVE",
"342 276 CURVE SMOOTH",
"342 710 LINE",
"237 710 LINE",
"237 269 LINE SMOOTH",
"237 137 OFFCURVE",
"191 76 OFFCURVE",
"75 76 CURVE SMOOTH",
"-42 76 OFFCURVE",
"-88 130 OFFCURVE",
"-98 259 CURVE",
"-201 251 LINE",
"-191 74 OFFCURVE",
"-110 -15 OFFCURVE",
"72 -15 CURVE SMOOTH"
);
}
);
};
layerId = "BBFAEC79-FC1B-4455-8BF7-285C9CA7D1F7";
paths = (
{
closed = 1;
nodes = (
"10 -1 LINE",
"38 -9 OFFCURVE",
"76 -15 OFFCURVE",
"122 -15 CURVE SMOOTH",
"275 -15 OFFCURVE",
"342 77 OFFCURVE",
"342 256 CURVE SMOOTH",
"342 710 LINE",
"237 710 LINE",
"237 249 LINE SMOOTH",
"237 137 OFFCURVE",
"211 76 OFFCURVE",
"105 76 CURVE SMOOTH",
"76 76 OFFCURVE",
"50 80 OFFCURVE",
"20 86 CURVE"
);
}
);
width = 438;
}
);
rightMetricsKey = U;
unicode = 004A;
userData = {
RMXScaler = {
source = J;
};
};
},
{
color = 7;
glyphname = K;
lastChange = "2018-05-18 14:00:09 +0000";
layers = (
{
anchors = (
{
name = bottom;
position = "{354, 0}";
},
{
name = top;
position = "{355, 710}";
}
);
background = {
paths = (
{
closed = 1;
nodes = (
"204 341 LINE",
"622 710 LINE",
"550 710 LINE",
"178 382 LINE",
"153 382 LINE",
"153 341 LINE"
);
},
{
closed = 1;
nodes = (
"175 0 LINE",
"175 710 LINE",
"120 710 LINE",
"120 0 LINE"
);
},
{
closed = 1;
nodes = (
"632 0 LINE",
"203 392 LINE",
"168 350 LINE",
"559 0 LINE"
);
}
);
};
layerId = "0A1AFE58-107D-4787-BDA0-D82FB635C3A6";
paths = (
{
closed = 1;
nodes = (
"175 0 LINE",
"175 710 LINE",
"120 710 LINE",
"120 0 LINE"
);
},
{
closed = 1;
nodes = (
"214 382 LINE",
"214 350 LINE",
"622 710 LINE",
"550 710 LINE",
"178 382 LINE",
"153 382 LINE",
"153 341 LINE",
"178 341 LINE",
"559 0 LINE",
"632 0 LINE"
);
}
);
userData = {
RMXScaler = {
height = 97.3;
width = 97.3;
};
};
width = 642;
},
{
anchors = (
{
name = bottom;
position = "{391, 0}";
},
{
name = top;
position = "{392, 710}";
}
);
background = {
paths = (
{
closed = 1;
nodes = (
"419 293 LINE",
"742 710 LINE",
"512 710 LINE",
"299 424 LINE",
"257 424 LINE",
"257 293 LINE"
);
},
{
closed = 1;
nodes = (
"289 0 LINE",
"289 710 LINE",
"70 710 LINE",
"70 0 LINE"
);
},
{
closed = 1;
nodes = (
"748 0 LINE",
"442 443 LINE",
"267 340 LINE",
"498 0 LINE"
);
}
);
};
layerId = "84435905-EDCB-4949-A8A3-0E53308A2F50";
paths = (
{
closed = 1;
nodes = (
"289 0 LINE",
"289 710 LINE",
"70 710 LINE",
"70 0 LINE"
);
},
{
closed = 1;
nodes = (
"432 457 LINE",
"428 305 LINE",
"742 710 LINE",
"512 710 LINE",
"299 424 LINE",
"257 424 LINE",
"257 293 LINE",
"299 293 LINE",
"498 0 LINE",
"748 0 LINE"
);
}
);
width = 753;
},
{
anchors = (
{
name = bottom;
position = "{366, 0}";
},
{
name = top;
position = "{365, 710}";
}
);
background = {
paths = (
{
closed = 1;
nodes = (
"263 324 LINE",
"663 710 LINE",
"535 710 LINE",
"216 400 LINE",
"191 400 LINE",
"191 324 LINE"
);
},
{
closed = 1;
nodes = (
"211 0 LINE",
"211 710 LINE",
"106 710 LINE",
"106 0 LINE"
);
},
{
closed = 1;
nodes = (
"671 0 LINE",
"274 407 LINE",
"193 348 LINE",
"539 0 LINE"
);
}
);
};
layerId = "BBFAEC79-FC1B-4455-8BF7-285C9CA7D1F7";
paths = (
{
closed = 1;
nodes = (
"211 0 LINE",
"211 710 LINE",
"106 710 LINE",
"106 0 LINE"
);
},
{
closed = 1;
nodes = (
"279 402 LINE",
"279 339 LINE",
"663 710 LINE",
"535 710 LINE",
"216 400 LINE",
"191 400 LINE",
"191 324 LINE",
"217 324 LINE",
"539 0 LINE",
"671 0 LINE"
);
}
);
width = 676;
}
);
leftMetricsKey = H;
unicode = 004B;
userData = {
RMXScaler = {
source = K;
};
};
},
{
color = 7;
glyphname = L;
lastChange = "2018-04-05 09:35:55 +0000";
layers = (
{
anchors = (
{
name = bottom;
position = "{334, 0}";
},
{
name = periodcentered;
position = "{380, 370}";
},
{
name = top;
position = "{149, 710}";
},
{
name = topright;
position = "{329, 463}";
}
);
background = {
paths = (
{
closed = 1;
nodes = (
"180 0 LINE",
"180 710 LINE",
"120 710 LINE",
"120 0 LINE"
);
},
{
closed = 1;
nodes = (
"524 0 LINE",
"524 53 LINE",
"167 53 LINE",
"167 0 LINE"
);
}
);
};
layerId = "0A1AFE58-107D-4787-BDA0-D82FB635C3A6";
paths = (
{
closed = 1;
nodes = (
"175 0 LINE",
"175 710 LINE",
"120 710 LINE",
"120 0 LINE"
);
},
{
closed = 1;
nodes = (
"534 0 LINE",
"534 50 LINE",
"162 50 LINE",
"162 0 LINE"
);
}
);
userData = {
RMXScaler = {
height = 97.3;
width = 97.3;
};
};
width = 544;
},
{
anchors = (
{
name = bottom;
position = "{331, 0}";
},
{
name = periodcentered;
position = "{415, 370}";
},
{
name = top;
position = "{176, 710}";
},
{
name = topright;
position = "{426, 475}";
}
);
background = {
paths = (
{
closed = 1;
nodes = (
"290 0 LINE",
"290 710 LINE",
"70 710 LINE",
"70 0 LINE"
);
},
{
closed = 1;
nodes = (
"580 0 LINE",
"580 175 LINE",
"188 175 LINE",
"188 0 LINE"
);
}
);
};
layerId = "84435905-EDCB-4949-A8A3-0E53308A2F50";
paths = (
{
closed = 1;
nodes = (
"290 0 LINE",
"290 710 LINE",
"70 710 LINE",
"70 0 LINE"
);
},
{
closed = 1;
nodes = (
"580 0 LINE",
"580 173 LINE",
"188 173 LINE",
"188 0 LINE"
);
}
);
width = 605;
},
{
anchors = (
{
name = bottom;
position = "{336, 0}";
},
{
name = periodcentered;
position = "{405, 370}";
},
{
name = top;
position = "{160, 710}";
},
{
name = topright;
position = "{372, 468}";
}
);
layerId = "BBFAEC79-FC1B-4455-8BF7-285C9CA7D1F7";
paths = (
{
closed = 1;
nodes = (
"211 0 LINE",
"211 710 LINE",
"106 710 LINE",
"106 0 LINE"
);
},
{
closed = 1;
nodes = (
"546 0 LINE",
"546 90 LINE",
"178 90 LINE",
"178 0 LINE"
);
}
);
width = 566;
}
);
leftMetricsKey = "=H";
unicode = 004C;
userData = {
RMXScaler = {
source = L;
};
};
},
{
color = 7;
glyphname = M;
lastChange = "2018-03-04 16:08:57 +0000";
layers = (
{
background = {
paths = (
{
closed = 1;
nodes = (
"731 710 LINE",
"472 68 LINE",
"467 68 LINE",
"205 710 LINE",
"120 710 LINE",
"120 0 LINE",
"172 0 LINE",
"172 645 LINE",
"177 645 LINE",
"439 0 LINE",
"498 0 LINE",
"760 645 LINE",
"765 645 LINE",
"765 0 LINE",
"817 0 LINE",
"817 710 LINE"
);
}
);
};
layerId = "0A1AFE58-107D-4787-BDA0-D82FB635C3A6";
paths = (
{
closed = 1;
nodes = (
"731 710 LINE",
"472 68 LINE",
"467 68 LINE",
"206 710 LINE",
"120 710 LINE",
"120 0 LINE",
"172 0 LINE",
"172 645 LINE",
"177 645 LINE",
"438 0 LINE",
"497 0 LINE",
"758 645 LINE",
"763 645 LINE",
"763 0 LINE",
"817 0 LINE",
"817 710 LINE"
);
}
);
userData = {
RMXScaler = {
height = 97.3;
width = 97.3;
};
};
width = 937;
},
{
background = {
paths = (
{
closed = 1;
nodes = (
"661 710 LINE",
"523 246 LINE",
"514 246 LINE",
"375 710 LINE",
"68 710 LINE",
"68 0 LINE",
"250 0 LINE",
"250 500 LINE",
"257 500 LINE",
"413 0 LINE",
"593 0 LINE",
"749 500 LINE",
"756 500 LINE",
"756 0 LINE",
"966 0 LINE",
"966 710 LINE"
);
}
);
};
layerId = "84435905-EDCB-4949-A8A3-0E53308A2F50";
paths = (
{
closed = 1;
nodes = (
"666 710 LINE",
"536 256 LINE",
"529 256 LINE",
"395 710 LINE",
"70 710 LINE",
"70 0 LINE",
"250 0 LINE",
"250 500 LINE",
"257 500 LINE",
"413 0 LINE",
"613 0 LINE",
"769 500 LINE",
"776 500 LINE",
"776 0 LINE",
"986 0 LINE",
"986 710 LINE"
);
}
);
width = 1056;
},
{
background = {
paths = (
{
closed = 1;
nodes = (
"723 710 LINE",
"501 125 LINE",
"494 125 LINE",
"268 710 LINE",
"106 710 LINE",
"106 0 LINE",
"201 0 LINE",
"201 598 LINE",
"208 598 LINE",
"440 0 LINE",
"543 0 LINE",
"775 598 LINE",
"782 598 LINE",
"782 0 LINE",
"886 0 LINE",
"886 710 LINE"
);
}
);
};
layerId = "BBFAEC79-FC1B-4455-8BF7-285C9CA7D1F7";
paths = (
{
closed = 1;
nodes = (
"720 710 LINE",
"499 125 LINE",
"494 125 LINE",
"270 710 LINE",
"106 710 LINE",
"106 0 LINE",
"201 0 LINE",
"201 598 LINE",
"208 598 LINE",
"440 0 LINE",
"543 0 LINE",
"775 598 LINE",
"782 598 LINE",
"782 0 LINE",
"885 0 LINE",
"885 710 LINE"
);
}
);
width = 991;
}
);
leftMetricsKey = H;
rightMetricsKey = H;
unicode = 004D;
userData = {
RMXScaler = {
source = M;
};
};
},
{
color = 7;
glyphname = N;
lastChange = "2018-01-18 18:44:56 +0000";
layers = (
{
anchors = (
{
name = bottom;
position = "{395, 0}";
},
{
name = top;
position = "{401, 710}";
}
);
background = {
paths = (
{
closed = 1;
nodes = (
"613 106 LINE",
"172 710 LINE",
"120 710 LINE",
"120 0 LINE",
"175 0 LINE",
"175 604 LINE",
"179 604 LINE",
"620 0 LINE",
"672 0 LINE",
"672 710 LINE",
"617 710 LINE",
"617 106 LINE"
);
}
);
};
layerId = "0A1AFE58-107D-4787-BDA0-D82FB635C3A6";
paths = (
{
closed = 1;
nodes = (
"616 98 LINE",
"169 710 LINE",
"120 710 LINE",
"120 0 LINE",
"172 0 LINE",
"172 612 LINE",
"176 612 LINE",
"623 0 LINE",
"672 0 LINE",
"672 710 LINE",
"620 710 LINE",
"620 98 LINE"
);
}
);
userData = {
RMXScaler = {
height = 97.3;
width = 97.3;
};
};
width = 792;
},
{
anchors = (
{
name = bottom;
position = "{417, 0}";
},
{
name = top;
position = "{419, 710}";
}
);
background = {
paths = (
{
closed = 1;
nodes = (
"556 289 LINE",
"309 710 LINE",
"70 710 LINE",
"70 0 LINE",
"255 0 LINE",
"255 449 LINE",
"233 423 LINE",
"262 423 LINE",
"510 0 LINE",
"748 0 LINE",
"748 710 LINE",
"563 710 LINE",
"563 264 LINE",
"585 289 LINE"
);
}
);
};
layerId = "84435905-EDCB-4949-A8A3-0E53308A2F50";
paths = (
{
closed = 1;
nodes = (
"556 289 LINE",
"309 710 LINE",
"70 710 LINE",
"70 0 LINE",
"255 0 LINE",
"255 423 LINE",
"262 423 LINE",
"510 0 LINE",
"748 0 LINE",
"748 710 LINE",
"563 710 LINE",
"563 289 LINE"
);
}
);
width = 818;
},
{
anchors = (
{
name = bottom;
position = "{402, 0}";
},
{
name = top;
position = "{408, 710}";
}
);
layerId = "BBFAEC79-FC1B-4455-8BF7-285C9CA7D1F7";
paths = (
{
closed = 1;
nodes = (
"602 165 LINE",
"213 710 LINE",
"106 710 LINE",
"106 0 LINE",
"201 0 LINE",
"201 545 LINE",
"207 545 LINE",
"595 0 LINE",
"702 0 LINE",
"702 710 LINE",
"607 710 LINE",
"607 165 LINE"
);
}
);
width = 808;
}
);
leftMetricsKey = "=H";
rightMetricsKey = "=H";
unicode = 004E;
userData = {
RMXScaler = {
source = N;
};
};
},
{
color = 7;
glyphname = O;
lastChange = "2018-01-18 18:40:54 +0000";
layers = (
{
anchors = (
{
name = bottom;
position = "{396, 0}";
},
{
name = top;
position = "{397, 710}";
}
);
background = {
paths = (
{
closed = 1;
nodes = (
"600 -16 OFFCURVE",
"722 122 OFFCURVE",
"722 355 CURVE SMOOTH",
"722 587 OFFCURVE",
"600 725 OFFCURVE",
"396 725 CURVE SMOOTH",
"192 725 OFFCURVE",
"70 587 OFFCURVE",
"70 355 CURVE SMOOTH",
"70 122 OFFCURVE",
"192 -16 OFFCURVE",
"396 -16 CURVE SMOOTH"
);
},
{
closed = 1;
nodes = (
"226 38 OFFCURVE",
"132 149 OFFCURVE",
"132 355 CURVE SMOOTH",
"132 560 OFFCURVE",
"226 671 OFFCURVE",
"396 671 CURVE SMOOTH",
"566 671 OFFCURVE",
"660 560 OFFCURVE",
"660 355 CURVE SMOOTH",
"660 149 OFFCURVE",
"566 38 OFFCURVE",
"396 38 CURVE SMOOTH"
);
}
);
};
layerId = "0A1AFE58-107D-4787-BDA0-D82FB635C3A6";
paths = (
{
closed = 1;
nodes = (
"600 -15 OFFCURVE",
"722 123 OFFCURVE",
"722 355 CURVE SMOOTH",
"722 587 OFFCURVE",
"600 725 OFFCURVE",
"396 725 CURVE SMOOTH",
"192 725 OFFCURVE",
"70 587 OFFCURVE",
"70 355 CURVE SMOOTH",
"70 123 OFFCURVE",
"192 -15 OFFCURVE",
"396 -15 CURVE SMOOTH"
);
},
{
closed = 1;
nodes = (
"221 36 OFFCURVE",
"127 148 OFFCURVE",
"127 355 CURVE SMOOTH",
"127 562 OFFCURVE",
"221 674 OFFCURVE",
"396 674 CURVE SMOOTH",
"571 674 OFFCURVE",
"665 562 OFFCURVE",
"665 355 CURVE SMOOTH",
"665 148 OFFCURVE",
"571 36 OFFCURVE",
"396 36 CURVE SMOOTH"
);
}
);
userData = {
RMXScaler = {
height = 97.3;
width = 97.3;
};
};
width = 792;
},
{
anchors = (
{
name = bottom;
position = "{406, 0}";
},
{
name = top;
position = "{406, 710}";
}
);
background = {
paths = (
{
closed = 1;
nodes = (
"647 -15 OFFCURVE",
"774 117 OFFCURVE",
"774 355 CURVE SMOOTH",
"774 593 OFFCURVE",
"647 725 OFFCURVE",
"407 725 CURVE SMOOTH",
"167 725 OFFCURVE",
"40 593 OFFCURVE",
"40 355 CURVE SMOOTH",
"40 117 OFFCURVE",
"167 -15 OFFCURVE",
"407 -15 CURVE SMOOTH"
);
},
{
closed = 1;
nodes = (
"301 165 OFFCURVE",
"265 238 OFFCURVE",
"265 355 CURVE SMOOTH",
"265 472 OFFCURVE",
"301 545 OFFCURVE",
"407 545 CURVE SMOOTH",
"513 545 OFFCURVE",
"549 472 OFFCURVE",
"549 355 CURVE SMOOTH",
"549 238 OFFCURVE",
"513 165 OFFCURVE",
"407 165 CURVE SMOOTH"
);
}
);
};
layerId = "84435905-EDCB-4949-A8A3-0E53308A2F50";
paths = (
{
closed = 1;
nodes = (
"647 -15 OFFCURVE",
"774 117 OFFCURVE",
"774 355 CURVE SMOOTH",
"774 593 OFFCURVE",
"647 725 OFFCURVE",
"407 725 CURVE SMOOTH",
"167 725 OFFCURVE",
"40 593 OFFCURVE",
"40 355 CURVE SMOOTH",
"40 117 OFFCURVE",
"167 -15 OFFCURVE",
"407 -15 CURVE SMOOTH"
);
},
{
closed = 1;
nodes = (
"301 155 OFFCURVE",
"265 228 OFFCURVE",
"265 355 CURVE SMOOTH",
"265 482 OFFCURVE",
"301 555 OFFCURVE",
"407 555 CURVE SMOOTH",
"513 555 OFFCURVE",
"549 482 OFFCURVE",
"549 355 CURVE SMOOTH",
"549 228 OFFCURVE",
"513 155 OFFCURVE",
"407 155 CURVE SMOOTH"
);
}
);
width = 814;
},
{
anchors = (
{
name = bottom;
position = "{397, 0}";
},
{
name = top;
position = "{398, 710}";
}
);
background = {
paths = (
{
closed = 1;
nodes = (
"614 -15 OFFCURVE",
"740 121 OFFCURVE",
"740 355 CURVE SMOOTH",
"740 589 OFFCURVE",
"614 725 OFFCURVE",
"397 725 CURVE SMOOTH",
"181 725 OFFCURVE",
"55 589 OFFCURVE",
"55 355 CURVE SMOOTH",
"55 121 OFFCURVE",
"181 -15 OFFCURVE",
"397 -15 CURVE SMOOTH"
);
},
{
closed = 1;
nodes = (
"245 78 OFFCURVE",
"163 174 OFFCURVE",
"163 355 CURVE SMOOTH",
"163 536 OFFCURVE",
"245 632 OFFCURVE",
"397 632 CURVE SMOOTH",
"550 632 OFFCURVE",
"632 536 OFFCURVE",
"632 355 CURVE SMOOTH",
"632 174 OFFCURVE",
"550 78 OFFCURVE",
"397 78 CURVE SMOOTH"
);
}
);
};
layerId = "BBFAEC79-FC1B-4455-8BF7-285C9CA7D1F7";
paths = (
{
closed = 1;
nodes = (
"614 -15 OFFCURVE",
"740 121 OFFCURVE",
"740 355 CURVE SMOOTH",
"740 589 OFFCURVE",
"614 725 OFFCURVE",
"397 725 CURVE SMOOTH",
"181 725 OFFCURVE",
"55 589 OFFCURVE",
"55 355 CURVE SMOOTH",
"55 121 OFFCURVE",
"181 -15 OFFCURVE",
"397 -15 CURVE SMOOTH"
);
},
{
closed = 1;
nodes = (
"244 76 OFFCURVE",
"162 172 OFFCURVE",
"162 355 CURVE SMOOTH",
"162 538 OFFCURVE",
"244 634 OFFCURVE",
"397 634 CURVE SMOOTH",
"551 634 OFFCURVE",
"633 538 OFFCURVE",
"633 355 CURVE SMOOTH",
"633 172 OFFCURVE",
"551 76 OFFCURVE",
"397 76 CURVE SMOOTH"
);
}
);
width = 795;
}
);
unicode = 004F;
userData = {
RMXScaler = {
source = O;
};
};
},
{
color = 7;
glyphname = P;
lastChange = "2018-01-18 18:46:11 +0000";
layers = (
{
background = {
paths = (
{
closed = 1;
nodes = (
"180 0 LINE",
"180 710 LINE",
"120 710 LINE",
"120 0 LINE"
);
},
{
closed = 1;
nodes = (
"160 350 LINE",
"160 299 LINE",
"390 299 LINE SMOOTH",
"547 299 OFFCURVE",
"629 365 OFFCURVE",
"629 505 CURVE SMOOTH",
"629 645 OFFCURVE",
"547 710 OFFCURVE",
"390 710 CURVE SMOOTH",
"160 710 LINE",
"160 657 LINE",
"375 657 LINE SMOOTH",
"523 657 OFFCURVE",
"572 614 OFFCURVE",
"572 504 CURVE SMOOTH",
"572 394 OFFCURVE",
"523 350 OFFCURVE",
"375 350 CURVE SMOOTH"
);
}
);
};
layerId = "0A1AFE58-107D-4787-BDA0-D82FB635C3A6";
paths = (
{
closed = 1;
nodes = (
"175 0 LINE",
"175 710 LINE",
"120 710 LINE",
"120 0 LINE"
);
},
{
closed = 1;
nodes = (
"160 347 LINE",
"160 299 LINE",
"390 299 LINE SMOOTH",
"547 299 OFFCURVE",
"629 365 OFFCURVE",
"629 505 CURVE SMOOTH",
"629 645 OFFCURVE",
"547 710 OFFCURVE",
"390 710 CURVE SMOOTH",
"160 710 LINE",
"160 661 LINE",
"378 661 LINE SMOOTH",
"526 661 OFFCURVE",
"575 614 OFFCURVE",
"575 504 CURVE SMOOTH",
"575 394 OFFCURVE",
"526 347 OFFCURVE",
"378 347 CURVE SMOOTH"
);
}
);
userData = {
RMXScaler = {
height = 97.3;
width = 97.3;
};
};
width = 674;
},
{
background = {
paths = (
{
closed = 1;
nodes = (
"290 0 LINE",
"290 710 LINE",
"70 710 LINE",
"70 0 LINE"
);
},
{
closed = 1;
nodes = (
"271 380 LINE",
"271 227 LINE",
"444 227 LINE SMOOTH",
"635 227 OFFCURVE",
"718 315 OFFCURVE",
"718 464 CURVE SMOOTH",
"718 622 OFFCURVE",
"635 710 OFFCURVE",
"453 710 CURVE SMOOTH",
"271 710 LINE",
"271 550 LINE",
"407 550 LINE SMOOTH",
"476 550 OFFCURVE",
"503 527 OFFCURVE",
"503 467 CURVE SMOOTH",
"503 405 OFFCURVE",
"476 380 OFFCURVE",
"407 380 CURVE SMOOTH"
);
}
);
};
layerId = "84435905-EDCB-4949-A8A3-0E53308A2F50";
paths = (
{
closed = 1;
nodes = (
"290 0 LINE",
"290 710 LINE",
"70 710 LINE",
"70 0 LINE"
);
},
{
closed = 1;
nodes = (
"271 380 LINE",
"271 227 LINE",
"447 227 LINE SMOOTH",
"638 227 OFFCURVE",
"721 315 OFFCURVE",
"721 464 CURVE SMOOTH",
"721 622 OFFCURVE",
"638 710 OFFCURVE",
"456 710 CURVE SMOOTH",
"271 710 LINE",
"271 550 LINE",
"407 550 LINE SMOOTH",
"476 550 OFFCURVE",
"503 527 OFFCURVE",
"503 467 CURVE SMOOTH",
"503 405 OFFCURVE",
"476 380 OFFCURVE",
"407 380 CURVE SMOOTH"
);
}
);
width = 746;
},
{
background = {
paths = (
{
closed = 1;
nodes = (
"212 0 LINE",
"212 710 LINE",
"106 710 LINE",
"106 0 LINE"
);
},
{
closed = 1;
nodes = (
"193 363 LINE",
"193 275 LINE",
"404 275 LINE SMOOTH",
"578 275 OFFCURVE",
"656 352 OFFCURVE",
"656 493 CURVE SMOOTH",
"656 635 OFFCURVE",
"578 710 OFFCURVE",
"406 710 CURVE SMOOTH",
"193 710 LINE",
"193 620 LINE",
"381 620 LINE SMOOTH",
"507 620 OFFCURVE",
"553 589 OFFCURVE",
"553 493 CURVE SMOOTH",
"553 397 OFFCURVE",
"507 363 OFFCURVE",
"380 363 CURVE SMOOTH"
);
}
);
};
layerId = "BBFAEC79-FC1B-4455-8BF7-285C9CA7D1F7";
paths = (
{
closed = 1;
nodes = (
"211 0 LINE",
"211 710 LINE",
"106 710 LINE",
"106 0 LINE"
);
},
{
closed = 1;
nodes = (
"192 363 LINE",
"192 275 LINE",
"404 275 LINE SMOOTH",
"578 275 OFFCURVE",
"656 352 OFFCURVE",
"656 493 CURVE SMOOTH",
"656 635 OFFCURVE",
"578 710 OFFCURVE",
"406 710 CURVE SMOOTH",
"192 710 LINE",
"192 622 LINE",
"381 622 LINE SMOOTH",
"507 622 OFFCURVE",
"553 590 OFFCURVE",
"553 493 CURVE SMOOTH",
"553 397 OFFCURVE",
"507 363 OFFCURVE",
"380 363 CURVE SMOOTH"
);
}
);
width = 696;
}
);
leftMetricsKey = H;
unicode = 0050;
userData = {
RMXScaler = {
source = P;
};
};
},
{
color = 7;
glyphname = Q;
lastChange = "2018-01-18 18:45:22 +0000";
layers = (
{
background = {
paths = (
{
closed = 1;
nodes = (
"690 -106 LINE",
"567 44 LINE",
"562 44 LINE",
"424 213 LINE",
"358 213 LINE",
"519 17 LINE",
"524 17 LINE",
"624 -106 LINE"
);
},
{
closed = 1;
nodes = (
"600 -15 OFFCURVE",
"722 123 OFFCURVE",
"722 355 CURVE SMOOTH",
"722 587 OFFCURVE",
"600 725 OFFCURVE",
"396 725 CURVE SMOOTH",
"192 725 OFFCURVE",
"70 587 OFFCURVE",
"70 355 CURVE SMOOTH",
"70 123 OFFCURVE",
"192 -15 OFFCURVE",
"396 -15 CURVE SMOOTH"
);
},
{
closed = 1;
nodes = (
"225 37 OFFCURVE",
"131 149 OFFCURVE",
"131 355 CURVE SMOOTH",
"131 561 OFFCURVE",
"225 673 OFFCURVE",
"396 673 CURVE SMOOTH",
"567 673 OFFCURVE",
"661 561 OFFCURVE",
"661 355 CURVE SMOOTH",
"661 149 OFFCURVE",
"567 37 OFFCURVE",
"396 37 CURVE SMOOTH"
);
}
);
};
layerId = "0A1AFE58-107D-4787-BDA0-D82FB635C3A6";
paths = (
{
closed = 1;
nodes = (
"691 -106 LINE",
"569 44 LINE",
"564 44 LINE",
"426 213 LINE",
"363 213 LINE",
"524 17 LINE",
"529 17 LINE",
"629 -106 LINE"
);
},
{
closed = 1;
nodes = (
"600 -15 OFFCURVE",
"722 123 OFFCURVE",
"722 355 CURVE SMOOTH",
"722 587 OFFCURVE",
"600 725 OFFCURVE",
"396 725 CURVE SMOOTH",
"192 725 OFFCURVE",
"70 587 OFFCURVE",
"70 355 CURVE SMOOTH",
"70 123 OFFCURVE",
"192 -15 OFFCURVE",
"396 -15 CURVE SMOOTH"
);
},
{
closed = 1;
nodes = (
"221 36 OFFCURVE",
"127 148 OFFCURVE",
"127 355 CURVE SMOOTH",
"127 562 OFFCURVE",
"221 674 OFFCURVE",
"396 674 CURVE SMOOTH",
"571 674 OFFCURVE",
"665 562 OFFCURVE",
"665 355 CURVE SMOOTH",
"665 148 OFFCURVE",
"571 36 OFFCURVE",
"396 36 CURVE SMOOTH"
);
}
);
userData = {
RMXScaler = {
height = 97.3;
width = 97.3;
};
};
width = 792;
},
{
background = {
paths = (
{
closed = 1;
nodes = (
"751 -88 LINE",
"611 112 LINE",
"579 112 LINE",
"487 262 LINE",
"327 262 LINE",
"459 34 LINE",
"481 34 LINE",
"570 -88 LINE"
);
},
{
closed = 1;
nodes = (
"647 -15 OFFCURVE",
"774 117 OFFCURVE",
"774 355 CURVE SMOOTH",
"774 593 OFFCURVE",
"647 725 OFFCURVE",
"407 725 CURVE SMOOTH",
"167 725 OFFCURVE",
"40 593 OFFCURVE",
"40 355 CURVE SMOOTH",
"40 117 OFFCURVE",
"167 -15 OFFCURVE",
"407 -15 CURVE SMOOTH"
);
},
{
closed = 1;
nodes = (
"291 160 OFFCURVE",
"255 233 OFFCURVE",
"255 355 CURVE SMOOTH",
"255 477 OFFCURVE",
"291 550 OFFCURVE",
"407 550 CURVE SMOOTH",
"523 550 OFFCURVE",
"559 477 OFFCURVE",
"559 355 CURVE SMOOTH",
"559 233 OFFCURVE",
"523 160 OFFCURVE",
"407 160 CURVE SMOOTH"
);
}
);
};
layerId = "84435905-EDCB-4949-A8A3-0E53308A2F50";
paths = (
{
closed = 1;
nodes = (
"751 -88 LINE",
"611 112 LINE",
"579 112 LINE",
"487 262 LINE",
"327 262 LINE",
"459 34 LINE",
"481 34 LINE",
"570 -88 LINE"
);
},
{
closed = 1;
nodes = (
"647 -15 OFFCURVE",
"774 117 OFFCURVE",
"774 355 CURVE SMOOTH",
"774 593 OFFCURVE",
"647 725 OFFCURVE",
"407 725 CURVE SMOOTH",
"167 725 OFFCURVE",
"40 593 OFFCURVE",
"40 355 CURVE SMOOTH",
"40 117 OFFCURVE",
"167 -15 OFFCURVE",
"407 -15 CURVE SMOOTH"
);
},
{
closed = 1;
nodes = (
"291 155 OFFCURVE",
"255 228 OFFCURVE",
"255 355 CURVE SMOOTH",
"255 482 OFFCURVE",
"291 555 OFFCURVE",
"407 555 CURVE SMOOTH",
"523 555 OFFCURVE",
"559 482 OFFCURVE",
"559 355 CURVE SMOOTH",
"559 228 OFFCURVE",
"523 155 OFFCURVE",
"407 155 CURVE SMOOTH"
);
}
);
width = 814;
},
{
background = {
paths = (
{
closed = 1;
nodes = (
"713 -101 LINE",
"580 69 LINE",
"564 69 LINE",
"446 226 LINE",
"342 226 LINE",
"496 18 LINE",
"511 18 LINE",
"605 -101 LINE"
);
},
{
closed = 1;
nodes = (
"614 -15 OFFCURVE",
"740 121 OFFCURVE",
"740 355 CURVE SMOOTH",
"740 589 OFFCURVE",
"614 725 OFFCURVE",
"397 725 CURVE SMOOTH",
"181 725 OFFCURVE",
"55 589 OFFCURVE",
"55 355 CURVE SMOOTH",
"55 121 OFFCURVE",
"181 -15 OFFCURVE",
"397 -15 CURVE SMOOTH"
);
},
{
closed = 1;
nodes = (
"245 78 OFFCURVE",
"163 174 OFFCURVE",
"163 355 CURVE SMOOTH",
"163 536 OFFCURVE",
"245 632 OFFCURVE",
"397 632 CURVE SMOOTH",
"550 632 OFFCURVE",
"632 536 OFFCURVE",
"632 355 CURVE SMOOTH",
"632 174 OFFCURVE",
"550 78 OFFCURVE",
"397 78 CURVE SMOOTH"
);
}
);
};
layerId = "BBFAEC79-FC1B-4455-8BF7-285C9CA7D1F7";
paths = (
{
closed = 1;
nodes = (
"713 -101 LINE",
"580 69 LINE",
"564 69 LINE",
"446 226 LINE",
"342 226 LINE",
"496 18 LINE",
"511 18 LINE",
"605 -101 LINE"
);
},
{
closed = 1;
nodes = (
"614 -15 OFFCURVE",
"740 121 OFFCURVE",
"740 355 CURVE SMOOTH",
"740 589 OFFCURVE",
"614 725 OFFCURVE",
"397 725 CURVE SMOOTH",
"181 725 OFFCURVE",
"55 589 OFFCURVE",
"55 355 CURVE SMOOTH",
"55 121 OFFCURVE",
"181 -15 OFFCURVE",
"397 -15 CURVE SMOOTH"
);
},
{
closed = 1;
nodes = (
"244 75 OFFCURVE",
"161 171 OFFCURVE",
"161 355 CURVE SMOOTH",
"161 539 OFFCURVE",
"244 635 OFFCURVE",
"397 635 CURVE SMOOTH",
"552 635 OFFCURVE",
"635 539 OFFCURVE",
"635 355 CURVE SMOOTH",
"635 171 OFFCURVE",
"552 75 OFFCURVE",
"397 75 CURVE SMOOTH"
);
}
);
width = 795;
}
);
leftMetricsKey = O;
rightMetricsKey = O;
unicode = 0051;
userData = {
RMXScaler = {
source = Q;
};
};
},
{
color = 7;
glyphname = R;
lastChange = "2018-05-18 22:47:25 +0000";
layers = (
{
anchors = (
{
name = bottom;
position = "{355, 0}";
},
{
name = top;
position = "{352, 710}";
}
);
background = {
paths = (
{
closed = 1;
nodes = (
"156 362 LINE",
"156 314 LINE",
"390 314 LINE SMOOTH",
"543 314 OFFCURVE",
"621 378 OFFCURVE",
"621 511 CURVE SMOOTH",
"621 646 OFFCURVE",
"544 710 OFFCURVE",
"395 710 CURVE SMOOTH",
"156 710 LINE",
"156 661 LINE",
"387 661 LINE SMOOTH",
"518 661 OFFCURVE",
"568 619 OFFCURVE",
"568 511 CURVE SMOOTH",
"568 404 OFFCURVE",
"517 362 OFFCURVE",
"384 362 CURVE SMOOTH"
);
},
{
closed = 1;
nodes = (
"627 0 LINE",
"365 328 LINE",
"301 328 LINE",
"560 0 LINE"
);
},
{
closed = 1;
nodes = (
"175 0 LINE",
"175 710 LINE",
"120 710 LINE",
"120 0 LINE"
);
}
);
};
layerId = "0A1AFE58-107D-4787-BDA0-D82FB635C3A6";
paths = (
{
closed = 1;
nodes = (
"175 0 LINE",
"175 710 LINE",
"120 710 LINE",
"120 0 LINE"
);
},
{
closed = 1;
nodes = (
"361 333 LINE",
"351 316 LINE",
"390 316 LINE SMOOTH",
"543 316 OFFCURVE",
"621 378 OFFCURVE",
"621 511 CURVE SMOOTH",
"621 646 OFFCURVE",
"544 710 OFFCURVE",
"395 710 CURVE SMOOTH",
"156 710 LINE",
"156 661 LINE",
"387 661 LINE SMOOTH",
"518 661 OFFCURVE",
"568 619 OFFCURVE",
"568 511 CURVE SMOOTH",
"568 404 OFFCURVE",
"517 362 OFFCURVE",
"384 362 CURVE SMOOTH",
"156 362 LINE",
"156 314 LINE",
"288 314 LINE",
"312 314 LINE",
"319 305 OFFCURVE",
"325 297 OFFCURVE",
"332 288 CURVE SMOOTH",
"560 0 LINE",
"627 0 LINE"
);
}
);
userData = {
RMXScaler = {
height = 97.3;
width = 97.3;
};
};
width = 697;
},
{
anchors = (
{
name = bottom;
position = "{382, 0}";
},
{
name = top;
position = "{379, 710}";
}
);
background = {
paths = (
{
closed = 1;
nodes = (
"270 393 LINE",
"270 249 LINE",
"437 249 LINE SMOOTH",
"632 249 OFFCURVE",
"716 329 OFFCURVE",
"716 477 CURVE SMOOTH",
"716 626 OFFCURVE",
"634 710 OFFCURVE",
"450 710 CURVE SMOOTH",
"270 710 LINE",
"270 551 LINE",
"409 551 LINE SMOOTH",
"478 551 OFFCURVE",
"504 527 OFFCURVE",
"504 472 CURVE SMOOTH",
"504 418 OFFCURVE",
"478 393 OFFCURVE",
"408 393 CURVE SMOOTH"
);
},
{
closed = 1;
nodes = (
"732 0 LINE",
"527 320 LINE",
"302 320 LINE",
"499 0 LINE"
);
},
{
closed = 1;
nodes = (
"289 0 LINE",
"289 710 LINE",
"70 710 LINE",
"70 0 LINE"
);
}
);
};
layerId = "84435905-EDCB-4949-A8A3-0E53308A2F50";
paths = (
{
closed = 1;
nodes = (
"289 0 LINE",
"289 710 LINE",
"70 710 LINE",
"70 0 LINE"
);
},
{
closed = 1;
nodes = (
"512 344 LINE",
"464 259 LINE",
"512 259 LINE SMOOTH",
"642 259 OFFCURVE",
"716 346 OFFCURVE",
"716 477 CURVE SMOOTH",
"716 626 OFFCURVE",
"634 710 OFFCURVE",
"450 710 CURVE SMOOTH",
"270 710 LINE",
"270 551 LINE",
"409 551 LINE SMOOTH",
"478 551 OFFCURVE",
"504 527 OFFCURVE",
"504 472 CURVE SMOOTH",
"504 418 OFFCURVE",
"478 393 OFFCURVE",
"408 393 CURVE SMOOTH",
"270 393 LINE",
"270 249 LINE",
"320 249 LINE",
"346 249 LINE",
"351 241 OFFCURVE",
"356 233 OFFCURVE",
"361 225 CURVE SMOOTH",
"499 0 LINE",
"732 0 LINE"
);
}
);
width = 754;
},
{
anchors = (
{
name = bottom;
position = "{367, 0}";
},
{
name = top;
position = "{364, 710}";
}
);
background = {
paths = (
{
closed = 1;
nodes = (
"192 375 LINE",
"192 291 LINE",
"396 291 LINE SMOOTH",
"574 291 OFFCURVE",
"655 366 OFFCURVE",
"655 499 CURVE SMOOTH",
"655 635 OFFCURVE",
"578 710 OFFCURVE",
"410 710 CURVE SMOOTH",
"192 710 LINE",
"192 622 LINE",
"390 622 LINE SMOOTH",
"506 622 OFFCURVE",
"553 591 OFFCURVE",
"553 499 CURVE SMOOTH",
"553 409 OFFCURVE",
"506 375 OFFCURVE",
"388 375 CURVE SMOOTH"
);
},
{
closed = 1;
nodes = (
"657 0 LINE",
"416 330 LINE",
"301 330 LINE",
"537 0 LINE"
);
},
{
closed = 1;
nodes = (
"211 0 LINE",
"211 710 LINE",
"106 710 LINE",
"106 0 LINE"
);
}
);
};
layerId = "BBFAEC79-FC1B-4455-8BF7-285C9CA7D1F7";
paths = (
{
closed = 1;
nodes = (
"211 0 LINE",
"211 710 LINE",
"106 710 LINE",
"106 0 LINE"
);
},
{
closed = 1;
nodes = (
"416 329 LINE",
"400 296 LINE",
"427 296 LINE SMOOTH",
"581 296 OFFCURVE",
"655 374 OFFCURVE",
"655 499 CURVE SMOOTH",
"655 635 OFFCURVE",
"578 710 OFFCURVE",
"410 710 CURVE SMOOTH",
"192 710 LINE",
"192 622 LINE",
"390 622 LINE SMOOTH",
"506 622 OFFCURVE",
"553 591 OFFCURVE",
"553 499 CURVE SMOOTH",
"553 409 OFFCURVE",
"506 375 OFFCURVE",
"388 375 CURVE SMOOTH",
"192 375 LINE",
"192 291 LINE",
"299 291 LINE",
"329 291 LINE",
"336 281 OFFCURVE",
"343 272 OFFCURVE",
"350 262 CURVE SMOOTH",
"537 0 LINE",
"657 0 LINE"
);
}
);
width = 722;
}
);
leftMetricsKey = H;
unicode = 0052;
userData = {
RMXScaler = {
source = R;
};
};
},
{
color = 7;
glyphname = S;
lastChange = "2018-08-01 12:35:50 +0000";
layers = (
{
anchors = (
{
name = bottom;
position = "{338, 0}";
},
{
name = top;
position = "{340, 710}";
}
);
background = {
paths = (
{
closed = 1;
nodes = (
"495 -15 OFFCURVE",
"591 61 OFFCURVE",
"591 186 CURVE SMOOTH",
"591 301 OFFCURVE",
"518 348 OFFCURVE",
"393 374 CURVE SMOOTH",
"298 394 LINE SMOOTH",
"194 416 OFFCURVE",
"151 455 OFFCURVE",
"151 535 CURVE SMOOTH",
"151 624 OFFCURVE",
"220 676 OFFCURVE",
"335 676 CURVE SMOOTH",
"457 676 OFFCURVE",
"514 637 OFFCURVE",
"534 528 CURVE",
"588 533 LINE",
"568 667 OFFCURVE",
"483 725 OFFCURVE",
"335 725 CURVE SMOOTH",
"187 725 OFFCURVE",
"97 653 OFFCURVE",
"97 532 CURVE SMOOTH",
"97 426 OFFCURVE",
"160 370 OFFCURVE",
"286 343 CURVE SMOOTH",
"381 323 LINE SMOOTH",
"485 301 OFFCURVE",
"537 271 OFFCURVE",
"537 182 CURVE SMOOTH",
"537 89 OFFCURVE",
"464 34 OFFCURVE",
"344 34 CURVE SMOOTH",
"215 34 OFFCURVE",
"140 82 OFFCURVE",
"124 182 CURVE",
"70 177 LINE",
"87 51 OFFCURVE",
"182 -15 OFFCURVE",
"342 -15 CURVE SMOOTH"
);
}
);
};
layerId = "0A1AFE58-107D-4787-BDA0-D82FB635C3A6";
paths = (
{
closed = 1;
nodes = (
"495 -15 OFFCURVE",
"591 61 OFFCURVE",
"591 186 CURVE SMOOTH",
"591 301 OFFCURVE",
"518 348 OFFCURVE",
"393 374 CURVE SMOOTH",
"295 394 LINE SMOOTH",
"191 415 OFFCURVE",
"148 455 OFFCURVE",
"148 535 CURVE SMOOTH",
"148 624 OFFCURVE",
"217 676 OFFCURVE",
"332 676 CURVE SMOOTH",
"454 676 OFFCURVE",
"511 637 OFFCURVE",
"531 528 CURVE",
"585 533 LINE",
"565 667 OFFCURVE",
"480 725 OFFCURVE",
"332 725 CURVE SMOOTH",
"184 725 OFFCURVE",
"94 653 OFFCURVE",
"94 532 CURVE SMOOTH",
"94 426 OFFCURVE",
"157 369 OFFCURVE",
"283 343 CURVE SMOOTH",
"381 323 LINE SMOOTH",
"485 302 OFFCURVE",
"537 271 OFFCURVE",
"537 182 CURVE SMOOTH",
"537 89 OFFCURVE",
"464 34 OFFCURVE",
"344 34 CURVE SMOOTH",
"215 34 OFFCURVE",
"140 82 OFFCURVE",
"124 182 CURVE",
"70 177 LINE",
"87 51 OFFCURVE",
"182 -15 OFFCURVE",
"342 -15 CURVE SMOOTH"
);
}
);
userData = {
RMXScaler = {
height = 97.3;
width = 97.3;
};
};
width = 664;
},
{
anchors = (
{
name = bottom;
position = "{366, 0}";
},
{
name = top;
position = "{359, 710}";
}
);
background = {
paths = (
{
closed = 1;
nodes = (
"574 -15 OFFCURVE",
"683 66 OFFCURVE",
"683 214 CURVE SMOOTH",
"683 338 OFFCURVE",
"627 400 OFFCURVE",
"462 430 CURVE SMOOTH",
"352 450 LINE SMOOTH",
"286 462 OFFCURVE",
"263 478 OFFCURVE",
"263 512 CURVE SMOOTH",
"263 550 OFFCURVE",
"297 569 OFFCURVE",
"362 569 CURVE SMOOTH",
"446 569 OFFCURVE",
"469 543 OFFCURVE",
"477 487 CURVE",
"680 507 LINE",
"667 643 OFFCURVE",
"577 725 OFFCURVE",
"359 725 CURVE SMOOTH",
"155 725 OFFCURVE",
"53 636 OFFCURVE",
"53 496 CURVE SMOOTH",
"53 369 OFFCURVE",
"132 304 OFFCURVE",
"271 279 CURVE SMOOTH",
"393 257 LINE SMOOTH",
"458 245 OFFCURVE",
"473 230 OFFCURVE",
"473 197 CURVE SMOOTH",
"473 160 OFFCURVE",
"437 141 OFFCURVE",
"375 141 CURVE SMOOTH",
"292 141 OFFCURVE",
"258 161 OFFCURVE",
"245 225 CURVE",
"40 205 LINE",
"50 60 OFFCURVE",
"148 -15 OFFCURVE",
"369 -15 CURVE SMOOTH"
);
}
);
};
layerId = "84435905-EDCB-4949-A8A3-0E53308A2F50";
paths = (
{
closed = 1;
nodes = (
"574 -15 OFFCURVE",
"683 69 OFFCURVE",
"683 217 CURVE SMOOTH",
"683 341 OFFCURVE",
"621 403 OFFCURVE",
"457 434 CURVE SMOOTH",
"355 453 LINE SMOOTH",
"289 465 OFFCURVE",
"266 480 OFFCURVE",
"266 513 CURVE SMOOTH",
"266 548 OFFCURVE",
"300 566 OFFCURVE",
"365 566 CURVE SMOOTH",
"446 566 OFFCURVE",
"469 540 OFFCURVE",
"479 484 CURVE",
"680 504 LINE",
"667 642 OFFCURVE",
"577 725 OFFCURVE",
"362 725 CURVE SMOOTH",
"158 725 OFFCURVE",
"56 638 OFFCURVE",
"56 498 CURVE SMOOTH",
"56 369 OFFCURVE",
"140 301 OFFCURVE",
"279 274 CURVE SMOOTH",
"393 252 LINE SMOOTH",
"453 240 OFFCURVE",
"473 229 OFFCURVE",
"473 199 CURVE SMOOTH",
"473 162 OFFCURVE",
"437 144 OFFCURVE",
"375 144 CURVE SMOOTH",
"292 144 OFFCURVE",
"258 164 OFFCURVE",
"245 228 CURVE",
"40 208 LINE",
"50 61 OFFCURVE",
"148 -15 OFFCURVE",
"369 -15 CURVE SMOOTH"
);
}
);
width = 723;
},
{
anchors = (
{
name = bottom;
position = "{330, 0}";
},
{
name = top;
position = "{327, 710}";
}
);
associatedMasterId = "0A1AFE58-107D-4787-BDA0-D82FB635C3A6";
background = {
paths = (
{
closed = 1;
nodes = (
"496 -15 OFFCURVE",
"590 55 OFFCURVE",
"590 183 CURVE SMOOTH",
"590 294 OFFCURVE",
"516 349 OFFCURVE",
"389 376 CURVE SMOOTH",
"294 396 LINE SMOOTH",
"194 417 OFFCURVE",
"152 471 OFFCURVE",
"152 536 CURVE SMOOTH",
"152 630 OFFCURVE",
"230 675 OFFCURVE",
"330 675 CURVE SMOOTH",
"453 675 OFFCURVE",
"512 638 OFFCURVE",
"534 530 CURVE",
"592 530 LINE",
"572 666 OFFCURVE",
"487 725 OFFCURVE",
"329 725 CURVE SMOOTH",
"181 725 OFFCURVE",
"94 648 OFFCURVE",
"94 533 CURVE SMOOTH",
"94 440 OFFCURVE",
"157 365 OFFCURVE",
"282 340 CURVE SMOOTH",
"377 321 LINE SMOOTH",
"477 301 OFFCURVE",
"532 263 OFFCURVE",
"532 177 CURVE SMOOTH",
"532 86 OFFCURVE",
"462 35 OFFCURVE",
"349 35 CURVE SMOOTH",
"217 35 OFFCURVE",
"151 72 OFFCURVE",
"129 175 CURVE",
"70 175 LINE",
"88 42 OFFCURVE",
"180 -15 OFFCURVE",
"348 -15 CURVE SMOOTH"
);
}
);
};
layerId = "7707104F-9E0E-4E77-BB29-29B3D4748AC1";
name = "Sep 19 17, 15:45";
paths = (
{
closed = 1;
nodes = (
"497 -15 OFFCURVE",
"591 55 OFFCURVE",
"591 183 CURVE SMOOTH",
"591 294 OFFCURVE",
"517 349 OFFCURVE",
"389 376 CURVE SMOOTH",
"294 396 LINE SMOOTH",
"194 417 OFFCURVE",
"152 471 OFFCURVE",
"152 536 CURVE SMOOTH",
"152 630 OFFCURVE",
"230 675 OFFCURVE",
"330 675 CURVE SMOOTH",
"450 675 OFFCURVE",
"508 638 OFFCURVE",
"529 530 CURVE",
"587 530 LINE",
"567 666 OFFCURVE",
"484 725 OFFCURVE",
"329 725 CURVE SMOOTH",
"181 725 OFFCURVE",
"94 648 OFFCURVE",
"94 533 CURVE SMOOTH",
"94 440 OFFCURVE",
"157 365 OFFCURVE",
"282 340 CURVE SMOOTH",
"377 321 LINE SMOOTH",
"478 301 OFFCURVE",
"533 263 OFFCURVE",
"533 177 CURVE SMOOTH",
"533 86 OFFCURVE",
"463 35 OFFCURVE",
"349 35 CURVE SMOOTH",
"217 35 OFFCURVE",
"151 72 OFFCURVE",
"129 175 CURVE",
"70 175 LINE",
"88 42 OFFCURVE",
"180 -15 OFFCURVE",
"348 -15 CURVE SMOOTH"
);
}
);
userData = {
RMXScaler = {
height = 97.3;
width = 97.3;
};
};
width = 662;
},
{
anchors = (
{
name = bottom;
position = "{320, 0}";
},
{
name = top;
position = "{317, 710}";
}
);
associatedMasterId = "0A1AFE58-107D-4787-BDA0-D82FB635C3A6";
background = {
paths = (
{
closed = 1;
nodes = (
"488 -15 OFFCURVE",
"581 55 OFFCURVE",
"581 182 CURVE SMOOTH",
"581 294 OFFCURVE",
"507 350 OFFCURVE",
"379 376 CURVE SMOOTH",
"284 395 LINE SMOOTH",
"184 415 OFFCURVE",
"142 456 OFFCURVE",
"142 535 CURVE SMOOTH",
"142 623 OFFCURVE",
"210 675 OFFCURVE",
"321 675 CURVE SMOOTH",
"439 675 OFFCURVE",
"496 638 OFFCURVE",
"517 530 CURVE",
"575 530 LINE",
"555 666 OFFCURVE",
"473 725 OFFCURVE",
"321 725 CURVE SMOOTH",
"174 725 OFFCURVE",
"84 653 OFFCURVE",
"84 532 CURVE SMOOTH",
"84 426 OFFCURVE",
"146 365 OFFCURVE",
"272 340 CURVE SMOOTH",
"367 321 LINE SMOOTH",
"468 301 OFFCURVE",
"523 263 OFFCURVE",
"523 178 CURVE SMOOTH",
"523 86 OFFCURVE",
"453 35 OFFCURVE",
"339 35 CURVE SMOOTH",
"199 35 OFFCURVE",
"138 76 OFFCURVE",
"119 175 CURVE",
"60 175 LINE",
"75 42 OFFCURVE",
"167 -15 OFFCURVE",
"337 -15 CURVE SMOOTH"
);
}
);
};
guideLines = (
{
angle = 77.692;
position = "{311, 351}";
showMeasurement = 1;
}
);
layerId = "45974F21-E962-4A92-8F58-BA03CCCA9B9D";
name = "Sep 20 17, 09:04";
paths = (
{
closed = 1;
nodes = (
"489 -15 OFFCURVE",
"582 55 OFFCURVE",
"582 182 CURVE SMOOTH",
"582 295 OFFCURVE",
"508 351 OFFCURVE",
"379 377 CURVE SMOOTH",
"284 396 LINE SMOOTH",
"184 416 OFFCURVE",
"142 457 OFFCURVE",
"142 535 CURVE SMOOTH",
"142 623 OFFCURVE",
"210 674 OFFCURVE",
"321 674 CURVE SMOOTH",
"438 674 OFFCURVE",
"495 637 OFFCURVE",
"516 530 CURVE",
"575 530 LINE",
"555 666 OFFCURVE",
"473 725 OFFCURVE",
"321 725 CURVE SMOOTH",
"173 725 OFFCURVE",
"83 653 OFFCURVE",
"83 532 CURVE SMOOTH",
"83 426 OFFCURVE",
"145 365 OFFCURVE",
"272 340 CURVE SMOOTH",
"367 321 LINE SMOOTH",
"468 301 OFFCURVE",
"523 263 OFFCURVE",
"523 178 CURVE SMOOTH",
"523 87 OFFCURVE",
"453 36 OFFCURVE",
"339 36 CURVE SMOOTH",
"200 36 OFFCURVE",
"139 77 OFFCURVE",
"120 175 CURVE",
"60 175 LINE",
"75 42 OFFCURVE",
"167 -15 OFFCURVE",
"337 -15 CURVE SMOOTH"
);
}
);
userData = {
RMXScaler = {
height = 97.3;
width = 97.3;
};
};
width = 649;
},
{
anchors = (
{
name = bottom;
position = "{320, 0}";
},
{
name = top;
position = "{317, 710}";
}
);
associatedMasterId = "0A1AFE58-107D-4787-BDA0-D82FB635C3A6";
background = {
paths = (
{
closed = 1;
nodes = (
"468 725 OFFCURVE",
"309 725 CURVE SMOOTH",
"164 725 OFFCURVE",
"60 663 OFFCURVE",
"60 528 CURVE SMOOTH",
"60 413 OFFCURVE",
"133 359 OFFCURVE",
"258 334 CURVE SMOOTH",
"358 314 LINE SMOOTH",
"458 294 OFFCURVE",
"500 253 OFFCURVE",
"500 175 CURVE SMOOTH",
"500 87 OFFCURVE",
"432 36 OFFCURVE",
"321 36 CURVE SMOOTH",
"204 36 OFFCURVE",
"147 73 OFFCURVE",
"126 180 CURVE",
"67 180 LINE",
"87 44 OFFCURVE",
"169 -15 OFFCURVE",
"321 -15 CURVE SMOOTH",
"469 -15 OFFCURVE",
"559 57 OFFCURVE",
"559 178 CURVE SMOOTH",
"559 284 OFFCURVE",
"496 345 OFFCURVE",
"370 370 CURVE SMOOTH",
"270 390 LINE SMOOTH",
"170 410 OFFCURVE",
"119 445 OFFCURVE",
"119 532 CURVE SMOOTH",
"119 630 OFFCURVE",
"194 674 OFFCURVE",
"307 674 CURVE SMOOTH",
"429 674 OFFCURVE",
"502 641 OFFCURVE",
"522 535 CURVE",
"582 535 LINE",
"567 672 OFFCURVE"
);
}
);
};
guideLines = (
{
angle = 77.692;
position = "{311, 351}";
showMeasurement = 1;
},
{
angle = -11.3099;
position = "{384, 376}";
}
);
layerId = "7520C9A5-588C-4E3A-9158-3D5BD0E96FFC";
name = "Sep 20 17, 09:09";
paths = (
{
closed = 1;
nodes = (
"469 -15 OFFCURVE",
"559 57 OFFCURVE",
"559 178 CURVE SMOOTH",
"559 284 OFFCURVE",
"496 345 OFFCURVE",
"370 370 CURVE SMOOTH",
"270 390 LINE SMOOTH",
"170 410 OFFCURVE",
"119 445 OFFCURVE",
"119 532 CURVE SMOOTH",
"119 624 OFFCURVE",
"186 674 OFFCURVE",
"307 674 CURVE SMOOTH",
"440 674 OFFCURVE",
"504 633 OFFCURVE",
"522 535 CURVE",
"582 535 LINE",
"568 663 OFFCURVE",
"480 725 OFFCURVE",
"309 725 CURVE SMOOTH",
"151 725 OFFCURVE",
"60 653 OFFCURVE",
"60 528 CURVE SMOOTH",
"60 413 OFFCURVE",
"133 359 OFFCURVE",
"258 334 CURVE SMOOTH",
"358 314 LINE SMOOTH",
"458 294 OFFCURVE",
"500 253 OFFCURVE",
"500 175 CURVE SMOOTH",
"500 87 OFFCURVE",
"432 36 OFFCURVE",
"321 36 CURVE SMOOTH",
"204 36 OFFCURVE",
"147 73 OFFCURVE",
"126 180 CURVE",
"67 180 LINE",
"87 44 OFFCURVE",
"169 -15 OFFCURVE",
"321 -15 CURVE SMOOTH"
);
}
);
userData = {
RMXScaler = {
height = 97.3;
width = 97.3;
};
};
width = 649;
},
{
anchors = (
{
name = bottom;
position = "{343, 0}";
},
{
name = top;
position = "{337, 710}";
}
);
background = {
paths = (
{
closed = 1;
nodes = (
"523 -15 OFFCURVE",
"620 57 OFFCURVE",
"620 188 CURVE SMOOTH",
"620 305 OFFCURVE",
"553 363 OFFCURVE",
"407 392 CURVE SMOOTH",
"315 410 LINE SMOOTH",
"219 429 OFFCURVE",
"181 461 OFFCURVE",
"181 529 CURVE SMOOTH",
"181 599 OFFCURVE",
"239 638 OFFCURVE",
"336 638 CURVE SMOOTH",
"448 638 OFFCURVE",
"494 605 OFFCURVE",
"510 515 CURVE",
"613 522 LINE",
"597 663 OFFCURVE",
"510 725 OFFCURVE",
"337 725 CURVE SMOOTH",
"173 725 OFFCURVE",
"77 652 OFFCURVE",
"77 522 CURVE SMOOTH",
"77 411 OFFCURVE",
"142 350 OFFCURVE",
"284 321 CURVE SMOOTH",
"376 302 LINE SMOOTH",
"476 281 OFFCURVE",
"516 254 OFFCURVE",
"516 184 CURVE SMOOTH",
"516 110 OFFCURVE",
"455 72 OFFCURVE",
"352 72 CURVE SMOOTH",
"228 72 OFFCURVE",
"177 110 OFFCURVE",
"161 192 CURVE",
"58 184 LINE",
"70 49 OFFCURVE",
"162 -15 OFFCURVE",
"349 -15 CURVE SMOOTH"
);
}
);
};
layerId = "BBFAEC79-FC1B-4455-8BF7-285C9CA7D1F7";
paths = (
{
closed = 1;
nodes = (
"523 -15 OFFCURVE",
"620 67 OFFCURVE",
"620 194 CURVE SMOOTH",
"620 311 OFFCURVE",
"553 370 OFFCURVE",
"407 395 CURVE SMOOTH",
"318 410 LINE SMOOTH",
"221 426 OFFCURVE",
"183 461 OFFCURVE",
"183 529 CURVE SMOOTH",
"183 601 OFFCURVE",
"241 639 OFFCURVE",
"339 639 CURVE SMOOTH",
"451 639 OFFCURVE",
"497 607 OFFCURVE",
"513 515 CURVE",
"616 522 LINE",
"600 663 OFFCURVE",
"513 725 OFFCURVE",
"340 725 CURVE SMOOTH",
"176 725 OFFCURVE",
"80 652 OFFCURVE",
"80 522 CURVE SMOOTH",
"80 411 OFFCURVE",
"145 347 OFFCURVE",
"287 321 CURVE SMOOTH",
"376 305 LINE SMOOTH",
"476 287 OFFCURVE",
"517 260 OFFCURVE",
"517 190 CURVE SMOOTH",
"517 120 OFFCURVE",
"456 71 OFFCURVE",
"352 71 CURVE SMOOTH",
"228 71 OFFCURVE",
"177 113 OFFCURVE",
"161 195 CURVE",
"58 187 LINE",
"70 52 OFFCURVE",
"162 -15 OFFCURVE",
"349 -15 CURVE SMOOTH"
);
}
);
width = 682;
}
);
unicode = 0053;
userData = {
RMXScaler = {
source = S;
};
};
},
{
color = 7;
glyphname = T;
lastChange = "2018-04-10 11:00:46 +0000";
layers = (
{
anchors = (
{
name = bottom;
position = "{284, 0}";
},
{
name = top;
position = "{283, 710}";
}
);
background = {
paths = (
{
closed = 1;
nodes = (
"25 710 LINE",
"25 660 LINE",
"255 660 LINE",
"255 0 LINE",
"310 0 LINE",
"310 660 LINE",
"540 660 LINE",
"540 710 LINE"
);
}
);
};
layerId = "0A1AFE58-107D-4787-BDA0-D82FB635C3A6";
paths = (
{
closed = 1;
nodes = (
"15 710 LINE",
"15 660 LINE",
"255 660 LINE",
"255 0 LINE",
"310 0 LINE",
"310 660 LINE",
"550 660 LINE",
"550 710 LINE"
);
}
);
userData = {
RMXScaler = {
height = 97.3;
width = 97.3;
};
};
width = 565;
},
{
anchors = (
{
name = bottom;
position = "{324, 0}";
},
{
name = top;
position = "{321, 710}";
}
);
background = {
paths = (
{
closed = 1;
nodes = (
"5 710 LINE",
"5 535 LINE",
"210 535 LINE",
"210 0 LINE",
"430 0 LINE",
"430 535 LINE",
"635 535 LINE",
"635 710 LINE"
);
}
);
};
layerId = "84435905-EDCB-4949-A8A3-0E53308A2F50";
paths = (
{
closed = 1;
nodes = (
"5 710 LINE",
"5 537 LINE",
"210 537 LINE",
"210 0 LINE",
"430 0 LINE",
"430 537 LINE",
"635 537 LINE",
"635 710 LINE"
);
}
);
width = 640;
},
{
anchors = (
{
name = bottom;
position = "{298, 0}";
},
{
name = top;
position = "{295, 710}";
}
);
background = {
paths = (
{
closed = 1;
nodes = (
"19 710 LINE",
"19 620 LINE",
"243 620 LINE",
"243 0 LINE",
"348 0 LINE",
"348 620 LINE",
"571 620 LINE",
"571 710 LINE"
);
}
);
};
layerId = "BBFAEC79-FC1B-4455-8BF7-285C9CA7D1F7";
paths = (
{
closed = 1;
nodes = (
"16 710 LINE",
"16 620 LINE",
"243 620 LINE",
"243 0 LINE",
"348 0 LINE",
"348 620 LINE",
"574 620 LINE",
"574 710 LINE"
);
}
);
width = 590;
}
);
unicode = 0054;
userData = {
RMXScaler = {
source = T;
};
};
},
{
color = 7;
glyphname = U;
lastChange = "2018-01-18 18:43:51 +0000";
layers = (
{
anchors = (
{
name = bottom;
position = "{380, 0}";
},
{
name = ogonek;
position = "{470, 0}";
},
{
name = top;
position = "{377, 710}";
}
);
background = {
paths = (
{
closed = 1;
nodes = (
"546 -15 OFFCURVE",
"650 71 OFFCURVE",
"650 262 CURVE SMOOTH",
"650 710 LINE",
"590 710 LINE",
"590 270 LINE SMOOTH",
"590 90 OFFCURVE",
"511 36 OFFCURVE",
"380 36 CURVE SMOOTH",
"249 36 OFFCURVE",
"170 90 OFFCURVE",
"170 270 CURVE SMOOTH",
"170 710 LINE",
"110 710 LINE",
"110 262 LINE SMOOTH",
"110 71 OFFCURVE",
"214 -15 OFFCURVE",
"380 -15 CURVE SMOOTH"
);
}
);
};
layerId = "0A1AFE58-107D-4787-BDA0-D82FB635C3A6";
paths = (
{
closed = 1;
nodes = (
"546 -15 OFFCURVE",
"650 71 OFFCURVE",
"650 262 CURVE SMOOTH",
"650 710 LINE",
"595 710 LINE",
"595 270 LINE SMOOTH",
"595 91 OFFCURVE",
"516 36 OFFCURVE",
"380 36 CURVE SMOOTH",
"244 36 OFFCURVE",
"165 91 OFFCURVE",
"165 270 CURVE SMOOTH",
"165 710 LINE",
"110 710 LINE",
"110 262 LINE SMOOTH",
"110 71 OFFCURVE",
"214 -15 OFFCURVE",
"380 -15 CURVE SMOOTH"
);
}
);
userData = {
RMXScaler = {
height = 97.3;
width = 97.3;
};
};
width = 760;
},
{
anchors = (
{
name = bottom;
position = "{389, 0}";
},
{
name = ogonek;
position = "{483, 0}";
},
{
name = top;
position = "{385, 710}";
}
);
background = {
paths = (
{
closed = 1;
nodes = (
"619 -15 OFFCURVE",
"717 84 OFFCURVE",
"717 320 CURVE SMOOTH",
"717 710 LINE",
"497 710 LINE",
"497 325 LINE SMOOTH",
"497 214 OFFCURVE",
"478 165 OFFCURVE",
"389 165 CURVE SMOOTH",
"300 165 OFFCURVE",
"280 214 OFFCURVE",
"280 325 CURVE SMOOTH",
"280 710 LINE",
"60 710 LINE",
"60 320 LINE SMOOTH",
"60 84 OFFCURVE",
"159 -15 OFFCURVE",
"389 -15 CURVE SMOOTH"
);
}
);
};
layerId = "84435905-EDCB-4949-A8A3-0E53308A2F50";
paths = (
{
closed = 1;
nodes = (
"619 -15 OFFCURVE",
"717 84 OFFCURVE",
"717 320 CURVE SMOOTH",
"717 710 LINE",
"497 710 LINE",
"497 315 LINE SMOOTH",
"497 204 OFFCURVE",
"478 155 OFFCURVE",
"389 155 CURVE SMOOTH",
"300 155 OFFCURVE",
"280 204 OFFCURVE",
"280 315 CURVE SMOOTH",
"280 710 LINE",
"60 710 LINE",
"60 320 LINE SMOOTH",
"60 84 OFFCURVE",
"159 -15 OFFCURVE",
"389 -15 CURVE SMOOTH"
);
}
);
width = 777;
},
{
anchors = (
{
name = bottom;
position = "{385, 0}";
},
{
name = ogonek;
position = "{483, 0}";
},
{
name = top;
position = "{384, 710}";
}
);
background = {
paths = (
{
closed = 1;
nodes = (
"572 -15 OFFCURVE",
"675 76 OFFCURVE",
"675 287 CURVE SMOOTH",
"675 710 LINE",
"569 710 LINE",
"569 297 LINE SMOOTH",
"569 133 OFFCURVE",
"507 78 OFFCURVE",
"385 78 CURVE SMOOTH",
"263 78 OFFCURVE",
"201 133 OFFCURVE",
"201 297 CURVE SMOOTH",
"201 710 LINE",
"96 710 LINE",
"96 287 LINE SMOOTH",
"96 76 OFFCURVE",
"198 -15 OFFCURVE",
"385 -15 CURVE SMOOTH"
);
}
);
};
layerId = "BBFAEC79-FC1B-4455-8BF7-285C9CA7D1F7";
paths = (
{
closed = 1;
nodes = (
"572 -15 OFFCURVE",
"675 76 OFFCURVE",
"675 287 CURVE SMOOTH",
"675 710 LINE",
"569 710 LINE",
"569 297 LINE SMOOTH",
"569 131 OFFCURVE",
"507 76 OFFCURVE",
"385 76 CURVE SMOOTH",
"263 76 OFFCURVE",
"201 131 OFFCURVE",
"201 297 CURVE SMOOTH",
"201 710 LINE",
"96 710 LINE",
"96 287 LINE SMOOTH",
"96 76 OFFCURVE",
"198 -15 OFFCURVE",
"385 -15 CURVE SMOOTH"
);
}
);
width = 771;
}
);
unicode = 0055;
userData = {
RMXScaler = {
source = U;
};
};
},
{
color = 7;
glyphname = V;
lastChange = "2018-01-18 18:47:56 +0000";
layers = (
{
background = {
paths = (
{
closed = 1;
nodes = (
"314 69 LINE",
"307 69 LINE",
"69 710 LINE",
"5 710 LINE",
"276 0 LINE",
"344 0 LINE",
"615 710 LINE",
"551 710 LINE"
);
}
);
};
layerId = "0A1AFE58-107D-4787-BDA0-D82FB635C3A6";
paths = (
{
closed = 1;
nodes = (
"314 69 LINE",
"309 69 LINE",
"69 710 LINE",
"10 710 LINE",
"279 0 LINE",
"341 0 LINE",
"610 710 LINE",
"552 710 LINE"
);
}
);
userData = {
RMXScaler = {
height = 97.3;
width = 97.3;
};
};
width = 620;
},
{
background = {
paths = (
{
closed = 1;
nodes = (
"376 183 LINE",
"366 183 LINE",
"235 710 LINE",
"5 710 LINE",
"213 0 LINE",
"523 0 LINE",
"731 710 LINE",
"506 710 LINE"
);
}
);
};
layerId = "84435905-EDCB-4949-A8A3-0E53308A2F50";
paths = (
{
closed = 1;
nodes = (
"381 183 LINE",
"374 183 LINE",
"235 710 LINE",
"5 710 LINE",
"213 0 LINE",
"523 0 LINE",
"731 710 LINE",
"516 710 LINE"
);
}
);
width = 736;
},
{
background = {
paths = (
{
closed = 1;
nodes = (
"333 98 LINE",
"326 98 LINE",
"119 710 LINE",
"5 710 LINE",
"258 0 LINE",
"399 0 LINE",
"652 710 LINE",
"539 710 LINE"
);
}
);
};
layerId = "BBFAEC79-FC1B-4455-8BF7-285C9CA7D1F7";
paths = (
{
closed = 1;
nodes = (
"335 98 LINE",
"328 98 LINE",
"116 710 LINE",
"5 710 LINE",
"258 0 LINE",
"399 0 LINE",
"652 710 LINE",
"543 710 LINE"
);
}
);
width = 657;
}
);
unicode = 0056;
userData = {
RMXScaler = {
source = V;
};
};
},
{
color = 7;
glyphname = W;
lastChange = "2018-03-04 16:09:51 +0000";
layers = (
{
anchors = (
{
name = top;
position = "{479, 710}";
}
);
background = {
paths = (
{
closed = 1;
nodes = (
"702 66 LINE",
"697 66 LINE",
"511 710 LINE",
"446 710 LINE",
"263 66 LINE",
"258 66 LINE",
"74 710 LINE",
"15 710 LINE",
"224 0 LINE",
"294 0 LINE",
"476 635 LINE",
"480 635 LINE",
"663 0 LINE",
"733 0 LINE",
"942 710 LINE",
"883 710 LINE"
);
}
);
};
layerId = "0A1AFE58-107D-4787-BDA0-D82FB635C3A6";
paths = (
{
closed = 1;
nodes = (
"702 66 LINE",
"698 66 LINE",
"513 710 LINE",
"446 710 LINE",
"264 66 LINE",
"260 66 LINE",
"74 710 LINE",
"15 710 LINE",
"224 0 LINE",
"295 0 LINE",
"476 635 LINE",
"480 635 LINE",
"662 0 LINE",
"733 0 LINE",
"942 710 LINE",
"885 710 LINE"
);
}
);
userData = {
RMXScaler = {
height = 97.3;
width = 97.3;
};
};
width = 957;
},
{
anchors = (
{
name = top;
position = "{554, 710}";
}
);
background = {
paths = (
{
closed = 1;
nodes = (
"790 183 LINE",
"780 183 LINE",
"680 710 LINE",
"439 710 LINE",
"342 183 LINE",
"332 183 LINE",
"231 710 LINE",
"5 710 LINE",
"180 0 LINE",
"467 0 LINE",
"551 487 LINE",
"557 487 LINE",
"642 0 LINE",
"929 0 LINE",
"1104 710 LINE",
"888 710 LINE"
);
}
);
};
layerId = "84435905-EDCB-4949-A8A3-0E53308A2F50";
paths = (
{
closed = 1;
nodes = (
"820 203 LINE",
"810 203 LINE",
"715 710 LINE",
"439 710 LINE",
"342 203 LINE",
"332 203 LINE",
"241 710 LINE",
"5 710 LINE",
"175 0 LINE",
"467 0 LINE",
"556 487 LINE",
"562 487 LINE",
"652 0 LINE",
"944 0 LINE",
"1114 710 LINE",
"913 710 LINE"
);
}
);
width = 1119;
},
{
anchors = (
{
name = top;
position = "{502, 710}";
}
);
background = {
paths = (
{
closed = 1;
nodes = (
"732 98 LINE",
"726 98 LINE",
"571 710 LINE",
"440 710 LINE",
"291 98 LINE",
"284 98 LINE",
"126 710 LINE",
"15 710 LINE",
"212 0 LINE",
"355 0 LINE",
"500 597 LINE",
"505 597 LINE",
"651 0 LINE",
"794 0 LINE",
"991 710 LINE",
"886 710 LINE"
);
}
);
};
layerId = "BBFAEC79-FC1B-4455-8BF7-285C9CA7D1F7";
paths = (
{
closed = 1;
nodes = (
"732 98 LINE",
"726 98 LINE",
"571 710 LINE",
"440 710 LINE",
"291 98 LINE",
"284 98 LINE",
"126 710 LINE",
"15 710 LINE",
"212 0 LINE",
"356 0 LINE",
"503 591 LINE",
"507 591 LINE",
"651 0 LINE",
"794 0 LINE",
"991 710 LINE",
"886 710 LINE"
);
}
);
width = 1006;
}
);
unicode = 0057;
userData = {
RMXScaler = {
source = W;
};
};
},
{
color = 7;
glyphname = X;
lastChange = "2018-03-01 09:27:56 +0000";
layers = (
{
background = {
paths = (
{
closed = 1;
nodes = (
"95 0 LINE",
"332 341 LINE",
"346 341 LINE",
"598 710 LINE",
"538 710 LINE",
"303 368 LINE",
"289 368 LINE",
"35 0 LINE"
);
},
{
closed = 1;
nodes = (
"600 0 LINE",
"331 391 LINE",
"317 391 LINE",
"97 710 LINE",
"36 710 LINE",
"305 318 LINE",
"319 318 LINE",
"539 0 LINE"
);
}
);
};
layerId = "0A1AFE58-107D-4787-BDA0-D82FB635C3A6";
paths = (
{
closed = 1;
nodes = (
"95 0 LINE",
"312 315 LINE",
"326 315 LINE",
"597 710 LINE",
"537 710 LINE",
"324 397 LINE",
"310 397 LINE",
"35 0 LINE"
);
},
{
closed = 1;
nodes = (
"600 0 LINE",
"343 364 LINE",
"330 383 LINE",
"99 710 LINE",
"38 710 LINE",
"290 352 LINE",
"304 333 LINE",
"539 0 LINE"
);
}
);
userData = {
RMXScaler = {
height = 97.3;
width = 97.3;
};
};
width = 635;
},
{
background = {
paths = (
{
closed = 1;
nodes = (
"222 0 LINE",
"393 331 LINE",
"486 331 LINE",
"701 710 LINE",
"486 710 LINE",
"322 394 LINE",
"228 394 LINE",
"8 0 LINE"
);
},
{
closed = 1;
nodes = (
"704 0 LINE",
"442 481 LINE",
"361 481 LINE",
"241 710 LINE",
"11 710 LINE",
"268 232 LINE",
"349 232 LINE",
"474 0 LINE"
);
}
);
};
layerId = "84435905-EDCB-4949-A8A3-0E53308A2F50";
paths = (
{
closed = 1;
nodes = (
"219 0 LINE",
"393 331 LINE",
"486 331 LINE",
"704 710 LINE",
"489 710 LINE",
"322 394 LINE",
"228 394 LINE",
"5 0 LINE"
);
},
{
closed = 1;
nodes = (
"707 0 LINE",
"442 481 LINE",
"361 481 LINE",
"238 710 LINE",
"8 710 LINE",
"268 232 LINE",
"349 232 LINE",
"477 0 LINE"
);
}
);
width = 712;
},
{
background = {
paths = (
{
closed = 1;
nodes = (
"135 0 LINE",
"356 329 LINE",
"390 329 LINE",
"645 710 LINE",
"535 710 LINE",
"315 382 LINE",
"281 382 LINE",
"25 0 LINE"
);
},
{
closed = 1;
nodes = (
"645 0 LINE",
"367 420 LINE",
"336 420 LINE",
"140 710 LINE",
"25 710 LINE",
"303 291 LINE",
"335 291 LINE",
"530 0 LINE"
);
}
);
};
layerId = "BBFAEC79-FC1B-4455-8BF7-285C9CA7D1F7";
paths = (
{
closed = 1;
nodes = (
"134 0 LINE",
"325 283 LINE",
"359 283 LINE",
"642 710 LINE",
"533 710 LINE",
"347 429 LINE",
"313 429 LINE",
"25 0 LINE"
);
},
{
closed = 1;
nodes = (
"645 0 LINE",
"385 369 LINE",
"357 409 LINE",
"144 710 LINE",
"28 710 LINE",
"281 351 LINE",
"313 306 LINE",
"529 0 LINE"
);
}
);
width = 670;
}
);
unicode = 0058;
userData = {
RMXScaler = {
source = X;
};
};
},
{
color = 7;
glyphname = Y;
lastChange = "2018-01-18 19:08:38 +0000";
layers = (
{
anchors = (
{
name = bottom;
position = "{311, 0}";
},
{
name = top;
position = "{305, 710}";
}
);
background = {
paths = (
{
closed = 1;
nodes = (
"334 0 LINE",
"334 287 LINE",
"326 255 LINE",
"616 710 LINE",
"554 710 LINE",
"310 319 LINE",
"307 319 LINE",
"59 710 LINE",
"-3 710 LINE",
"286 255 LINE",
"280 287 LINE",
"280 0 LINE"
);
}
);
};
layerId = "0A1AFE58-107D-4787-BDA0-D82FB635C3A6";
paths = (
{
closed = 1;
nodes = (
"555 710 LINE",
"312 319 LINE",
"309 319 LINE",
"61 710 LINE",
"0 710 LINE",
"280 264 LINE",
"280 0 LINE",
"334 0 LINE",
"334 264 LINE",
"614 710 LINE"
);
}
);
userData = {
RMXScaler = {
height = 97.3;
width = 97.3;
};
};
width = 614;
},
{
anchors = (
{
name = bottom;
position = "{373, 0}";
},
{
name = top;
position = "{372, 710}";
}
);
background = {
paths = (
{
closed = 1;
nodes = (
"482 0 LINE",
"482 310 LINE",
"477 254 LINE",
"745 710 LINE",
"526 710 LINE",
"385 456 LINE",
"377 456 LINE",
"232 710 LINE",
"0 710 LINE",
"270 254 LINE",
"263 310 LINE",
"263 0 LINE"
);
}
);
};
layerId = "84435905-EDCB-4949-A8A3-0E53308A2F50";
paths = (
{
closed = 1;
nodes = (
"536 710 LINE",
"390 451 LINE",
"383 451 LINE",
"232 710 LINE",
"0 710 LINE",
"263 266 LINE",
"263 0 LINE",
"482 0 LINE",
"482 266 LINE",
"745 710 LINE"
);
}
);
width = 745;
},
{
anchors = (
{
name = bottom;
position = "{330, 0}";
},
{
name = top;
position = "{326, 710}";
}
);
background = {
paths = (
{
closed = 1;
nodes = (
"379 0 LINE",
"379 295 LINE",
"372 250 LINE",
"657 710 LINE",
"543 710 LINE",
"332 361 LINE",
"328 361 LINE",
"110 710 LINE",
"-5 710 LINE",
"281 250 LINE",
"275 295 LINE",
"275 0 LINE"
);
}
);
};
layerId = "BBFAEC79-FC1B-4455-8BF7-285C9CA7D1F7";
paths = (
{
closed = 1;
nodes = (
"545 710 LINE",
"336 359 LINE",
"332 359 LINE",
"115 710 LINE",
"0 710 LINE",
"275 260 LINE",
"275 0 LINE",
"379 0 LINE",
"379 260 LINE",
"654 710 LINE"
);
}
);
width = 654;
}
);
unicode = 0059;
userData = {
RMXScaler = {
source = Y;
};
};
},
{
color = 7;
glyphname = Z;
lastChange = "2018-02-02 13:05:44 +0000";
layers = (
{
anchors = (
{
name = top;
position = "{306, 710}";
}
);
background = {
paths = (
{
closed = 1;
nodes = (
"138 56 LINE",
"546 661 LINE",
"546 710 LINE",
"76 710 LINE",
"76 657 LINE",
"473 657 LINE",
"473 654 LINE",
"65 49 LINE",
"65 0 LINE",
"546 0 LINE",
"546 53 LINE",
"138 53 LINE"
);
}
);
};
layerId = "0A1AFE58-107D-4787-BDA0-D82FB635C3A6";
paths = (
{
closed = 1;
nodes = (
"134 54 LINE",
"546 665 LINE",
"546 710 LINE",
"76 710 LINE",
"76 660 LINE",
"477 660 LINE",
"477 656 LINE",
"65 45 LINE",
"65 0 LINE",
"546 0 LINE",
"546 50 LINE",
"134 50 LINE"
);
}
);
userData = {
RMXScaler = {
height = 97.3;
width = 97.3;
};
};
width = 611;
},
{
anchors = (
{
name = top;
position = "{358, 710}";
}
);
background = {
paths = (
{
closed = 1;
nodes = (
"329 182 LINE",
"657 541 LINE",
"657 710 LINE",
"66 710 LINE",
"66 535 LINE",
"383 535 LINE",
"383 527 LINE",
"55 169 LINE",
"55 0 LINE",
"657 0 LINE",
"657 174 LINE",
"329 174 LINE"
);
}
);
};
layerId = "84435905-EDCB-4949-A8A3-0E53308A2F50";
paths = (
{
closed = 1;
nodes = (
"329 180 LINE",
"657 543 LINE",
"657 710 LINE",
"66 710 LINE",
"66 537 LINE",
"383 537 LINE",
"383 530 LINE",
"55 168 LINE",
"55 0 LINE",
"657 0 LINE",
"657 173 LINE",
"329 173 LINE"
);
}
);
width = 712;
},
{
anchors = (
{
name = top;
position = "{327, 710}";
}
);
background = {
paths = (
{
closed = 1;
nodes = (
"194 96 LINE",
"583 623 LINE",
"583 710 LINE",
"76 710 LINE",
"76 619 LINE",
"454 619 LINE",
"454 615 LINE",
"65 87 LINE",
"65 0 LINE",
"583 0 LINE",
"583 91 LINE",
"194 91 LINE"
);
}
);
};
layerId = "BBFAEC79-FC1B-4455-8BF7-285C9CA7D1F7";
paths = (
{
closed = 1;
nodes = (
"190 95 LINE",
"583 625 LINE",
"583 710 LINE",
"76 710 LINE",
"76 620 LINE",
"458 620 LINE",
"458 615 LINE",
"65 85 LINE",
"65 0 LINE",
"583 0 LINE",
"583 90 LINE",
"190 90 LINE"
);
}
);
width = 648;
}
);
unicode = 005A;
userData = {
RMXScaler = {
source = Z;
};
};
},
{
color = 7;
glyphname = a;
lastChange = "2018-08-02 09:30:20 +0000";
layers = (
{
anchors = (
{
name = bottom;
position = "{303, 0}";
},
{
name = ogonek;
position = "{478, 0}";
},
{
name = top;
position = "{308, 523}";
}
);
background = {
anchors = (
{
name = bottom;
position = "{293, 0}";
},
{
name = ogonek;
position = "{478, 0}";
},
{
name = top;
position = "{308, 523}";
}
);
paths = (
{
closed = 1;
nodes = (
"460 310 LINE",
"256 284 LINE SMOOTH",
"131 268 OFFCURVE",
"77 223 OFFCURVE",
"77 130 CURVE SMOOTH",
"77 34 OFFCURVE",
"143 -15 OFFCURVE",
"255 -15 CURVE SMOOTH",
"347 -15 OFFCURVE",
"410 28 OFFCURVE",
"443 90 CURVE",
"447 90 LINE",
"455 0 LINE",
"498 0 LINE",
"498 358 LINE SMOOTH",
"498 483 OFFCURVE",
"432 538 OFFCURVE",
"298 538 CURVE SMOOTH",
"171 538 OFFCURVE",
"109 473 OFFCURVE",
"96 380 CURVE",
"151 374 LINE",
"163 449 OFFCURVE",
"205 490 OFFCURVE",
"298 490 CURVE SMOOTH",
"396 490 OFFCURVE",
"444 452 OFFCURVE",
"444 356 CURVE SMOOTH",
"444 204 LINE SMOOTH",
"444 102 OFFCURVE",
"365 33 OFFCURVE",
"257 33 CURVE SMOOTH",
"173 33 OFFCURVE",
"132 67 OFFCURVE",
"132 132 CURVE SMOOTH",
"132 190 OFFCURVE",
"166 227 OFFCURVE",
"255 239 CURVE SMOOTH",
"460 266 LINE"
);
}
);
};
layerId = "0A1AFE58-107D-4787-BDA0-D82FB635C3A6";
paths = (
{
closed = 1;
nodes = (
"171 538 OFFCURVE",
"109 473 OFFCURVE",
"96 380 CURVE",
"151 374 LINE",
"163 449 OFFCURVE",
"205 490 OFFCURVE",
"298 490 CURVE SMOOTH",
"396 490 OFFCURVE",
"444 452 OFFCURVE",
"444 356 CURVE SMOOTH",
"444 308 LINE",
"431 306 OFFCURVE",
"418 305 OFFCURVE",
"405 303 CURVE SMOOTH",
"256 284 LINE SMOOTH",
"131 268 OFFCURVE",
"77 223 OFFCURVE",
"77 130 CURVE SMOOTH",
"77 34 OFFCURVE",
"143 -15 OFFCURVE",
"255 -15 CURVE SMOOTH",
"347 -15 OFFCURVE",
"410 28 OFFCURVE",
"443 90 CURVE",
"447 90 LINE",
"455 0 LINE",
"498 0 LINE",
"498 358 LINE SMOOTH",
"498 483 OFFCURVE",
"432 538 OFFCURVE",
"298 538 CURVE SMOOTH"
);
},
{
closed = 1;
nodes = (
"173 33 OFFCURVE",
"132 67 OFFCURVE",
"132 132 CURVE SMOOTH",
"132 190 OFFCURVE",
"166 227 OFFCURVE",
"255 239 CURVE SMOOTH",
"410 259 LINE SMOOTH",
"430 262 OFFCURVE",
"449 264 OFFCURVE",
"469 267 CURVE",
"444 289 LINE",
"444 204 LINE SMOOTH",
"444 102 OFFCURVE",
"365 33 OFFCURVE",
"257 33 CURVE SMOOTH"
);
}
);
width = 595;
},
{
anchors = (
{
name = bottom;
position = "{340, 0}";
},
{
name = ogonek;
position = "{566, 0}";
},
{
name = top;
position = "{347, 535}";
}
);
background = {
paths = (
{
closed = 1;
nodes = (
"431 335 LINE",
"225 312 LINE SMOOTH",
"89 297 OFFCURVE",
"40 238 OFFCURVE",
"40 148 CURVE SMOOTH",
"40 45 OFFCURVE",
"109 -14 OFFCURVE",
"239 -14 CURVE SMOOTH",
"319 -14 OFFCURVE",
"375 20 OFFCURVE",
"402 73 CURVE",
"409 73 LINE",
"426 0 LINE",
"606 0 LINE",
"606 344 LINE SMOOTH",
"606 487 OFFCURVE",
"518 553 OFFCURVE",
"343 553 CURVE SMOOTH",
"146 553 OFFCURVE",
"84 485 OFFCURVE",
"63 367 CURVE",
"264 347 LINE",
"272 389 OFFCURVE",
"289 407 OFFCURVE",
"336 407 CURVE SMOOTH",
"383 407 OFFCURVE",
"401 384 OFFCURVE",
"401 337 CURVE SMOOTH",
"401 190 LINE SMOOTH",
"401 150 OFFCURVE",
"371 121 OFFCURVE",
"314 121 CURVE SMOOTH",
"272 121 OFFCURVE",
"252 136 OFFCURVE",
"252 165 CURVE SMOOTH",
"252 192 OFFCURVE",
"268 203 OFFCURVE",
"311 208 CURVE SMOOTH",
"429 222 LINE"
);
}
);
};
layerId = "84435905-EDCB-4949-A8A3-0E53308A2F50";
paths = (
{
closed = 1;
nodes = (
"146 553 OFFCURVE",
"84 485 OFFCURVE",
"63 367 CURVE",
"264 347 LINE",
"272 389 OFFCURVE",
"289 407 OFFCURVE",
"336 407 CURVE SMOOTH",
"383 407 OFFCURVE",
"401 389 OFFCURVE",
"401 352 CURVE SMOOTH",
"401 332 LINE",
"388 330 OFFCURVE",
"374 329 OFFCURVE",
"361 327 CURVE SMOOTH",
"225 312 LINE SMOOTH",
"89 297 OFFCURVE",
"40 238 OFFCURVE",
"40 148 CURVE SMOOTH",
"40 45 OFFCURVE",
"109 -14 OFFCURVE",
"239 -14 CURVE SMOOTH",
"319 -14 OFFCURVE",
"375 20 OFFCURVE",
"402 73 CURVE",
"409 73 LINE",
"426 0 LINE",
"606 0 LINE",
"606 344 LINE SMOOTH",
"606 487 OFFCURVE",
"518 553 OFFCURVE",
"343 553 CURVE SMOOTH"
);
},
{
closed = 1;
nodes = (
"272 121 OFFCURVE",
"252 136 OFFCURVE",
"252 165 CURVE SMOOTH",
"252 192 OFFCURVE",
"268 203 OFFCURVE",
"311 208 CURVE SMOOTH",
"374 215 LINE SMOOTH",
"398 218 OFFCURVE",
"421 221 OFFCURVE",
"445 224 CURVE",
"401 265 LINE",
"401 190 LINE SMOOTH",
"401 150 OFFCURVE",
"371 121 OFFCURVE",
"314 121 CURVE SMOOTH"
);
}
);
userData = {
RMXScaler = {
height = 100.1;
};
};
width = 663;
},
{
anchors = (
{
name = bottom;
position = "{301, 0}";
},
{
name = ogonek;
position = "{498, 0}";
},
{
name = top;
position = "{313, 528}";
}
);
background = {
paths = (
{
closed = 1;
nodes = (
"437 324 LINE",
"248 300 LINE SMOOTH",
"120 284 OFFCURVE",
"65 236 OFFCURVE",
"65 139 CURVE SMOOTH",
"65 45 OFFCURVE",
"126 -14 OFFCURVE",
"245 -14 CURVE SMOOTH",
"332 -14 OFFCURVE",
"390 20 OFFCURVE",
"417 79 CURVE",
"422 79 LINE",
"432 0 LINE",
"517 0 LINE",
"517 358 LINE SMOOTH",
"517 485 OFFCURVE",
"443 544 OFFCURVE",
"306 544 CURVE SMOOTH",
"162 544 OFFCURVE",
"104 483 OFFCURVE",
"88 379 CURVE",
"186 371 LINE",
"196 428 OFFCURVE",
"225 463 OFFCURVE",
"305 463 CURVE SMOOTH",
"385 463 OFFCURVE",
"420 429 OFFCURVE",
"420 353 CURVE SMOOTH",
"420 204 LINE SMOOTH",
"420 126 OFFCURVE",
"367 66 OFFCURVE",
"270 66 CURVE SMOOTH",
"196 66 OFFCURVE",
"167 98 OFFCURVE",
"167 146 CURVE SMOOTH",
"167 192 OFFCURVE",
"193 217 OFFCURVE",
"258 226 CURVE SMOOTH",
"437 250 LINE"
);
}
);
};
layerId = "BBFAEC79-FC1B-4455-8BF7-285C9CA7D1F7";
paths = (
{
closed = 1;
nodes = (
"162 544 OFFCURVE",
"104 483 OFFCURVE",
"88 379 CURVE",
"186 371 LINE",
"196 428 OFFCURVE",
"225 463 OFFCURVE",
"305 463 CURVE SMOOTH",
"385 463 OFFCURVE",
"420 429 OFFCURVE",
"420 353 CURVE SMOOTH",
"420 322 LINE",
"405 320 OFFCURVE",
"390 318 OFFCURVE",
"375 316 CURVE SMOOTH",
"248 300 LINE SMOOTH",
"120 284 OFFCURVE",
"65 236 OFFCURVE",
"65 139 CURVE SMOOTH",
"65 45 OFFCURVE",
"126 -14 OFFCURVE",
"245 -14 CURVE SMOOTH",
"332 -14 OFFCURVE",
"390 20 OFFCURVE",
"417 79 CURVE",
"422 79 LINE",
"432 0 LINE",
"517 0 LINE",
"517 358 LINE SMOOTH",
"517 485 OFFCURVE",
"443 544 OFFCURVE",
"306 544 CURVE SMOOTH"
);
},
{
closed = 1;
nodes = (
"196 66 OFFCURVE",
"167 98 OFFCURVE",
"167 146 CURVE SMOOTH",
"167 192 OFFCURVE",
"193 217 OFFCURVE",
"258 226 CURVE SMOOTH",
"383 243 LINE SMOOTH",
"410 247 OFFCURVE",
"438 250 OFFCURVE",
"465 254 CURVE",
"420 293 LINE",
"420 204 LINE SMOOTH",
"420 126 OFFCURVE",
"367 66 OFFCURVE",
"270 66 CURVE SMOOTH"
);
}
);
width = 604;
}
);
rightMetricsKey = n;
unicode = 0061;
userData = {
RMXScaler = {
source = a;
};
};
},
{
color = 7;
glyphname = b;
lastChange = "2018-01-18 18:54:26 +0000";
layers = (
{
background = {
paths = (
{
closed = 1;
nodes = (
"487 -15 OFFCURVE",
"569 86 OFFCURVE",
"569 262 CURVE SMOOTH",
"569 434 OFFCURVE",
"482 538 OFFCURVE",
"340 538 CURVE SMOOTH",
"257 538 OFFCURVE",
"199 504 OFFCURVE",
"162 433 CURVE",
"157 433 LINE",
"157 750 LINE",
"102 750 LINE",
"102 0 LINE",
"143 0 LINE",
"157 102 LINE",
"161 102 LINE",
"187 48 OFFCURVE",
"238 -15 OFFCURVE",
"340 -15 CURVE SMOOTH"
);
},
{
closed = 1;
nodes = (
"218 32 OFFCURVE",
"152 150 OFFCURVE",
"152 262 CURVE SMOOTH",
"152 390 OFFCURVE",
"218 491 OFFCURVE",
"338 491 CURVE SMOOTH",
"450 491 OFFCURVE",
"513 410 OFFCURVE",
"513 262 CURVE SMOOTH",
"513 112 OFFCURVE",
"457 32 OFFCURVE",
"338 32 CURVE SMOOTH"
);
}
);
};
layerId = "0A1AFE58-107D-4787-BDA0-D82FB635C3A6";
paths = (
{
closed = 1;
nodes = (
"102 0 LINE",
"145 0 LINE",
"156 95 LINE",
"160 95 LINE",
"193 32 OFFCURVE",
"253 -15 OFFCURVE",
"339 -15 CURVE SMOOTH",
"487 -15 OFFCURVE",
"569 87 OFFCURVE",
"569 261 CURVE SMOOTH",
"569 436 OFFCURVE",
"487 538 OFFCURVE",
"339 538 CURVE SMOOTH",
"253 538 OFFCURVE",
"192 496 OFFCURVE",
"161 434 CURVE",
"157 434 LINE",
"157 750 LINE",
"102 750 LINE"
);
},
{
closed = 1;
nodes = (
"454 486 OFFCURVE",
"512 413 OFFCURVE",
"512 261 CURVE SMOOTH",
"512 110 OFFCURVE",
"454 37 OFFCURVE",
"337 37 CURVE SMOOTH",
"213 37 OFFCURVE",
"153 139 OFFCURVE",
"153 261 CURVE SMOOTH",
"153 384 OFFCURVE",
"213 486 OFFCURVE",
"337 486 CURVE SMOOTH"
);
}
);
width = 634;
},
{
background = {
paths = (
{
closed = 1;
nodes = (
"60 0 LINE",
"246 0 LINE",
"264 97 LINE",
"271 97 LINE",
"292 38 OFFCURVE",
"341 -15 OFFCURVE",
"439 -15 CURVE SMOOTH",
"572 -15 OFFCURVE",
"652 94 OFFCURVE",
"652 268 CURVE SMOOTH",
"652 443 OFFCURVE",
"572 550 OFFCURVE",
"439 550 CURVE SMOOTH",
"346 550 OFFCURVE",
"298 508 OFFCURVE",
"277 451 CURVE",
"270 451 LINE",
"270 750 LINE",
"60 750 LINE"
);
},
{
closed = 1;
nodes = (
"416 380 OFFCURVE",
"437 340 OFFCURVE",
"437 268 CURVE SMOOTH",
"437 195 OFFCURVE",
"416 155 OFFCURVE",
"352 155 CURVE SMOOTH",
"289 155 OFFCURVE",
"268 195 OFFCURVE",
"268 268 CURVE SMOOTH",
"268 340 OFFCURVE",
"289 380 OFFCURVE",
"352 380 CURVE SMOOTH"
);
}
);
};
layerId = "84435905-EDCB-4949-A8A3-0E53308A2F50";
paths = (
{
closed = 1;
nodes = (
"60 0 LINE",
"246 0 LINE",
"264 97 LINE",
"271 97 LINE",
"292 38 OFFCURVE",
"341 -15 OFFCURVE",
"439 -15 CURVE SMOOTH",
"572 -15 OFFCURVE",
"652 94 OFFCURVE",
"652 268 CURVE SMOOTH",
"652 443 OFFCURVE",
"572 550 OFFCURVE",
"439 550 CURVE SMOOTH",
"346 550 OFFCURVE",
"298 508 OFFCURVE",
"277 451 CURVE",
"270 451 LINE",
"270 750 LINE",
"60 750 LINE"
);
},
{
closed = 1;
nodes = (
"417 390 OFFCURVE",
"439 350 OFFCURVE",
"439 268 CURVE SMOOTH",
"439 185 OFFCURVE",
"417 145 OFFCURVE",
"353 145 CURVE SMOOTH",
"290 145 OFFCURVE",
"268 185 OFFCURVE",
"268 268 CURVE SMOOTH",
"268 350 OFFCURVE",
"290 390 OFFCURVE",
"353 390 CURVE SMOOTH"
);
}
);
userData = {
RMXScaler = {
height = 100.1;
};
};
width = 685;
},
{
background = {
paths = (
{
closed = 1;
nodes = (
"91 0 LINE",
"176 0 LINE",
"189 91 LINE",
"194 91 LINE",
"226 21 OFFCURVE",
"282 -15 OFFCURVE",
"361 -15 CURVE SMOOTH",
"507 -15 OFFCURVE",
"590 88 OFFCURVE",
"590 264 CURVE SMOOTH",
"590 440 OFFCURVE",
"507 543 OFFCURVE",
"361 543 CURVE SMOOTH",
"282 543 OFFCURVE",
"227 507 OFFCURVE",
"196 444 CURVE",
"191 444 LINE",
"191 750 LINE",
"91 750 LINE"
);
},
{
closed = 1;
nodes = (
"438 457 OFFCURVE",
"487 394 OFFCURVE",
"487 264 CURVE SMOOTH",
"487 134 OFFCURVE",
"438 71 OFFCURVE",
"338 71 CURVE SMOOTH",
"238 71 OFFCURVE",
"189 144 OFFCURVE",
"189 264 CURVE SMOOTH",
"189 383 OFFCURVE",
"238 457 OFFCURVE",
"338 457 CURVE SMOOTH"
);
}
);
};
layerId = "BBFAEC79-FC1B-4455-8BF7-285C9CA7D1F7";
paths = (
{
closed = 1;
nodes = (
"91 0 LINE",
"176 0 LINE",
"189 91 LINE",
"194 91 LINE",
"230 21 OFFCURVE",
"283 -15 OFFCURVE",
"366 -15 CURVE SMOOTH",
"507 -15 OFFCURVE",
"590 88 OFFCURVE",
"590 264 CURVE SMOOTH",
"590 440 OFFCURVE",
"507 543 OFFCURVE",
"361 543 CURVE SMOOTH",
"280 543 OFFCURVE",
"225 507 OFFCURVE",
"196 444 CURVE",
"191 444 LINE",
"191 750 LINE",
"91 750 LINE"
);
},
{
closed = 1;
nodes = (
"438 458 OFFCURVE",
"488 394 OFFCURVE",
"488 264 CURVE SMOOTH",
"488 134 OFFCURVE",
"438 70 OFFCURVE",
"338 70 CURVE SMOOTH",
"238 70 OFFCURVE",
"189 144 OFFCURVE",
"189 264 CURVE SMOOTH",
"189 383 OFFCURVE",
"238 458 OFFCURVE",
"338 458 CURVE SMOOTH"
);
}
);
width = 647;
}
);
leftMetricsKey = h;
rightMetricsKey = o;
unicode = 0062;
userData = {
RMXScaler = {
source = b;
};
};
},
{
color = 7;
glyphname = c;
lastChange = "2018-08-01 12:39:58 +0000";
layers = (
{
anchors = (
{
name = bottom;
position = "{301, 0}";
},
{
name = top;
position = "{301, 523}";
}
);
background = {
paths = (
{
closed = 1;
nodes = (
"455 -15 OFFCURVE",
"547 84 OFFCURVE",
"547 262 CURVE SMOOTH",
"547 440 OFFCURVE",
"455 538 OFFCURVE",
"306 538 CURVE SMOOTH",
"157 538 OFFCURVE",
"65 440 OFFCURVE",
"65 262 CURVE SMOOTH",
"65 84 OFFCURVE",
"157 -15 OFFCURVE",
"306 -15 CURVE SMOOTH"
);
},
{
closed = 1;
nodes = (
"184 36 OFFCURVE",
"121 108 OFFCURVE",
"121 262 CURVE SMOOTH",
"121 416 OFFCURVE",
"184 487 OFFCURVE",
"306 487 CURVE SMOOTH",
"428 487 OFFCURVE",
"491 416 OFFCURVE",
"491 262 CURVE SMOOTH",
"491 108 OFFCURVE",
"428 36 OFFCURVE",
"306 36 CURVE SMOOTH"
);
}
);
};
layerId = "0A1AFE58-107D-4787-BDA0-D82FB635C3A6";
paths = (
{
closed = 1;
nodes = (
"428 -15 OFFCURVE",
"501 51 OFFCURVE",
"514 157 CURVE",
"460 163 LINE",
"447 78 OFFCURVE",
"397 36 OFFCURVE",
"302 36 CURVE SMOOTH",
"184 36 OFFCURVE",
"121 112 OFFCURVE",
"121 262 CURVE SMOOTH",
"121 412 OFFCURVE",
"183 487 OFFCURVE",
"301 487 CURVE SMOOTH",
"396 487 OFFCURVE",
"448 447 OFFCURVE",
"460 360 CURVE",
"514 366 LINE",
"500 474 OFFCURVE",
"427 538 OFFCURVE",
"301 538 CURVE SMOOTH",
"156 538 OFFCURVE",
"65 436 OFFCURVE",
"65 262 CURVE SMOOTH",
"65 88 OFFCURVE",
"157 -15 OFFCURVE",
"302 -15 CURVE SMOOTH"
);
}
);
width = 584;
},
{
anchors = (
{
name = bottom;
position = "{322, 0}";
},
{
name = top;
position = "{322, 535}";
}
);
background = {
paths = (
{
closed = 1;
nodes = (
"513 -15 OFFCURVE",
"590 62 OFFCURVE",
"604 207 CURVE",
"410 227 LINE",
"403 186 OFFCURVE",
"386 155 OFFCURVE",
"329 155 CURVE SMOOTH",
"269 155 OFFCURVE",
"248 200 OFFCURVE",
"248 264 CURVE SMOOTH",
"248 337 OFFCURVE",
"270 380 OFFCURVE",
"330 380 CURVE SMOOTH",
"386 380 OFFCURVE",
"403 350 OFFCURVE",
"410 307 CURVE",
"604 327 LINE",
"589 461 OFFCURVE",
"519 550 OFFCURVE",
"322 550 CURVE SMOOTH",
"140 550 OFFCURVE",
"33 448 OFFCURVE",
"33 264 CURVE SMOOTH",
"33 88 OFFCURVE",
"140 -15 OFFCURVE",
"322 -15 CURVE SMOOTH"
);
}
);
};
layerId = "84435905-EDCB-4949-A8A3-0E53308A2F50";
paths = (
{
closed = 1;
nodes = (
"513 -15 OFFCURVE",
"590 62 OFFCURVE",
"604 207 CURVE",
"410 227 LINE",
"403 176 OFFCURVE",
"386 145 OFFCURVE",
"329 145 CURVE SMOOTH",
"267 145 OFFCURVE",
"246 190 OFFCURVE",
"246 264 CURVE SMOOTH",
"246 347 OFFCURVE",
"268 390 OFFCURVE",
"330 390 CURVE SMOOTH",
"386 390 OFFCURVE",
"403 360 OFFCURVE",
"410 307 CURVE",
"604 327 LINE",
"589 461 OFFCURVE",
"519 550 OFFCURVE",
"322 550 CURVE SMOOTH",
"140 550 OFFCURVE",
"33 448 OFFCURVE",
"33 264 CURVE SMOOTH",
"33 88 OFFCURVE",
"140 -15 OFFCURVE",
"322 -15 CURVE SMOOTH"
);
}
);
userData = {
RMXScaler = {
height = 100.1;
};
};
width = 634;
},
{
anchors = (
{
name = bottom;
position = "{305, 0}";
},
{
name = top;
position = "{305, 528}";
}
);
background = {
paths = (
{
closed = 1;
nodes = (
"451 -15 OFFCURVE",
"521 49 OFFCURVE",
"536 167 CURVE",
"436 175 LINE",
"425 107 OFFCURVE",
"388 72 OFFCURVE",
"306 72 CURVE SMOOTH",
"207 72 OFFCURVE",
"161 141 OFFCURVE",
"161 264 CURVE SMOOTH",
"161 387 OFFCURVE",
"206 455 OFFCURVE",
"305 455 CURVE SMOOTH",
"385 455 OFFCURVE",
"425 416 OFFCURVE",
"435 350 CURVE",
"536 358 LINE",
"522 478 OFFCURVE",
"444 543 OFFCURVE",
"305 543 CURVE SMOOTH",
"147 543 OFFCURVE",
"57 439 OFFCURVE",
"57 264 CURVE SMOOTH",
"57 90 OFFCURVE",
"147 -15 OFFCURVE",
"305 -15 CURVE SMOOTH"
);
}
);
};
layerId = "BBFAEC79-FC1B-4455-8BF7-285C9CA7D1F7";
paths = (
{
closed = 1;
nodes = (
"451 -15 OFFCURVE",
"521 49 OFFCURVE",
"536 167 CURVE",
"436 175 LINE",
"425 105 OFFCURVE",
"388 70 OFFCURVE",
"306 70 CURVE SMOOTH",
"207 70 OFFCURVE",
"160 139 OFFCURVE",
"160 264 CURVE SMOOTH",
"160 390 OFFCURVE",
"206 458 OFFCURVE",
"305 458 CURVE SMOOTH",
"385 458 OFFCURVE",
"425 419 OFFCURVE",
"435 350 CURVE",
"536 358 LINE",
"522 476 OFFCURVE",
"444 543 OFFCURVE",
"305 543 CURVE SMOOTH",
"147 543 OFFCURVE",
"57 439 OFFCURVE",
"57 264 CURVE SMOOTH",
"57 90 OFFCURVE",
"147 -15 OFFCURVE",
"305 -15 CURVE SMOOTH"
);
}
);
width = 596;
}
);
leftMetricsKey = o;
unicode = 0063;
userData = {
RMXScaler = {
source = c;
};
};
},
{
color = 7;
glyphname = d;
lastChange = "2018-01-19 10:07:00 +0000";
layers = (
{
anchors = (
{
name = topright;
position = "{627, 523}";
}
);
background = {
paths = (
{
closed = 1;
nodes = (
"381 -15 OFFCURVE",
"441 25 OFFCURVE",
"474 101 CURVE",
"478 101 LINE",
"490 0 LINE",
"532 0 LINE",
"532 750 LINE",
"477 750 LINE",
"477 434 LINE",
"472 434 LINE",
"441 498 OFFCURVE",
"381 538 OFFCURVE",
"295 538 CURVE SMOOTH",
"147 538 OFFCURVE",
"66 436 OFFCURVE",
"66 261 CURVE SMOOTH",
"66 87 OFFCURVE",
"147 -15 OFFCURVE",
"295 -15 CURVE SMOOTH"
);
},
{
closed = 1;
nodes = (
"181 32 OFFCURVE",
"122 110 OFFCURVE",
"122 261 CURVE SMOOTH",
"122 413 OFFCURVE",
"181 491 OFFCURVE",
"297 491 CURVE SMOOTH",
"421 491 OFFCURVE",
"481 389 OFFCURVE",
"481 261 CURVE SMOOTH",
"481 134 OFFCURVE",
"421 32 OFFCURVE",
"297 32 CURVE SMOOTH"
);
}
);
};
layerId = "0A1AFE58-107D-4787-BDA0-D82FB635C3A6";
paths = (
{
closed = 1;
nodes = (
"477 750 LINE",
"477 434 LINE",
"473 434 LINE",
"442 496 OFFCURVE",
"381 538 OFFCURVE",
"295 538 CURVE SMOOTH",
"147 538 OFFCURVE",
"65 436 OFFCURVE",
"65 261 CURVE SMOOTH",
"65 87 OFFCURVE",
"147 -15 OFFCURVE",
"295 -15 CURVE SMOOTH",
"381 -15 OFFCURVE",
"441 32 OFFCURVE",
"474 95 CURVE",
"478 95 LINE",
"489 0 LINE",
"532 0 LINE",
"532 750 LINE"
);
},
{
closed = 1;
nodes = (
"421 486 OFFCURVE",
"481 384 OFFCURVE",
"481 261 CURVE SMOOTH",
"481 139 OFFCURVE",
"421 37 OFFCURVE",
"297 37 CURVE SMOOTH",
"180 37 OFFCURVE",
"122 110 OFFCURVE",
"122 261 CURVE SMOOTH",
"122 413 OFFCURVE",
"180 486 OFFCURVE",
"297 486 CURVE SMOOTH"
);
}
);
width = 634;
},
{
anchors = (
{
name = topright;
position = "{719, 535}";
}
);
background = {
paths = (
{
closed = 1;
nodes = (
"415 750 LINE",
"415 451 LINE",
"408 451 LINE",
"387 508 OFFCURVE",
"339 550 OFFCURVE",
"246 550 CURVE SMOOTH",
"113 550 OFFCURVE",
"33 443 OFFCURVE",
"33 268 CURVE SMOOTH",
"33 94 OFFCURVE",
"113 -15 OFFCURVE",
"246 -15 CURVE SMOOTH",
"344 -15 OFFCURVE",
"393 38 OFFCURVE",
"414 97 CURVE",
"421 97 LINE",
"439 0 LINE",
"625 0 LINE",
"625 750 LINE"
);
},
{
closed = 1;
nodes = (
"396 380 OFFCURVE",
"417 340 OFFCURVE",
"417 268 CURVE SMOOTH",
"417 195 OFFCURVE",
"396 155 OFFCURVE",
"333 155 CURVE SMOOTH",
"269 155 OFFCURVE",
"248 195 OFFCURVE",
"248 268 CURVE SMOOTH",
"248 340 OFFCURVE",
"269 380 OFFCURVE",
"333 380 CURVE SMOOTH"
);
}
);
};
layerId = "84435905-EDCB-4949-A8A3-0E53308A2F50";
paths = (
{
closed = 1;
nodes = (
"415 750 LINE",
"415 451 LINE",
"408 451 LINE",
"387 508 OFFCURVE",
"339 550 OFFCURVE",
"246 550 CURVE SMOOTH",
"113 550 OFFCURVE",
"33 443 OFFCURVE",
"33 268 CURVE SMOOTH",
"33 94 OFFCURVE",
"113 -15 OFFCURVE",
"246 -15 CURVE SMOOTH",
"344 -15 OFFCURVE",
"393 38 OFFCURVE",
"414 97 CURVE",
"421 97 LINE",
"439 0 LINE",
"625 0 LINE",
"625 750 LINE"
);
},
{
closed = 1;
nodes = (
"395 390 OFFCURVE",
"417 350 OFFCURVE",
"417 268 CURVE SMOOTH",
"417 185 OFFCURVE",
"395 145 OFFCURVE",
"332 145 CURVE SMOOTH",
"268 145 OFFCURVE",
"246 185 OFFCURVE",
"246 268 CURVE SMOOTH",
"246 350 OFFCURVE",
"268 390 OFFCURVE",
"332 390 CURVE SMOOTH"
);
}
);
userData = {
RMXScaler = {
height = 100.1;
};
};
width = 685;
},
{
anchors = (
{
name = topright;
position = "{642, 528}";
}
);
background = {
paths = (
{
closed = 1;
nodes = (
"456 750 LINE",
"456 444 LINE",
"451 444 LINE",
"420 507 OFFCURVE",
"365 543 OFFCURVE",
"286 543 CURVE SMOOTH",
"140 543 OFFCURVE",
"57 440 OFFCURVE",
"57 264 CURVE SMOOTH",
"57 88 OFFCURVE",
"140 -15 OFFCURVE",
"286 -15 CURVE SMOOTH",
"365 -15 OFFCURVE",
"421 21 OFFCURVE",
"453 91 CURVE",
"458 91 LINE",
"471 0 LINE",
"556 0 LINE",
"556 750 LINE"
);
},
{
closed = 1;
nodes = (
"409 457 OFFCURVE",
"458 383 OFFCURVE",
"458 264 CURVE SMOOTH",
"458 144 OFFCURVE",
"409 71 OFFCURVE",
"309 71 CURVE SMOOTH",
"209 71 OFFCURVE",
"160 134 OFFCURVE",
"160 264 CURVE SMOOTH",
"160 394 OFFCURVE",
"209 457 OFFCURVE",
"309 457 CURVE SMOOTH"
);
}
);
};
layerId = "BBFAEC79-FC1B-4455-8BF7-285C9CA7D1F7";
paths = (
{
closed = 1;
nodes = (
"456 750 LINE",
"456 444 LINE",
"451 444 LINE",
"422 507 OFFCURVE",
"367 543 OFFCURVE",
"286 543 CURVE SMOOTH",
"140 543 OFFCURVE",
"57 440 OFFCURVE",
"57 264 CURVE SMOOTH",
"57 88 OFFCURVE",
"140 -15 OFFCURVE",
"281 -15 CURVE SMOOTH",
"364 -15 OFFCURVE",
"417 21 OFFCURVE",
"453 91 CURVE",
"458 91 LINE",
"471 0 LINE",
"556 0 LINE",
"556 750 LINE"
);
},
{
closed = 1;
nodes = (
"409 458 OFFCURVE",
"458 383 OFFCURVE",
"458 264 CURVE SMOOTH",
"458 144 OFFCURVE",
"409 70 OFFCURVE",
"309 70 CURVE SMOOTH",
"209 70 OFFCURVE",
"159 134 OFFCURVE",
"159 264 CURVE SMOOTH",
"159 394 OFFCURVE",
"209 458 OFFCURVE",
"309 458 CURVE SMOOTH"
);
}
);
width = 647;
}
);
leftMetricsKey = o;
rightMetricsKey = "=|h";
unicode = 0064;
userData = {
RMXScaler = {
source = d;
};
};
},
{
color = 7;
glyphname = e;
lastChange = "2018-02-02 17:23:40 +0000";
layers = (
{
anchors = (
{
name = bottom;
position = "{307, 0}";
},
{
name = ogonek;
position = "{385, 0}";
},
{
name = top;
position = "{306, 523}";
}
);
background = {
paths = (
{
closed = 1;
nodes = (
"435 -15 OFFCURVE",
"494 49 OFFCURVE",
"516 128 CURVE",
"461 133 LINE",
"443 77 OFFCURVE",
"404 34 OFFCURVE",
"304 34 CURVE SMOOTH",
"189 34 OFFCURVE",
"120 107 OFFCURVE",
"120 257 CURVE SMOOTH",
"120 416 OFFCURVE",
"186 489 OFFCURVE",
"297 489 CURVE SMOOTH",
"408 489 OFFCURVE",
"472 421 OFFCURVE",
"472 276 CURVE",
"482 286 LINE",
"100 286 LINE",
"100 240 LINE",
"526 240 LINE",
"526 285 LINE SMOOTH",
"526 445 OFFCURVE",
"438 538 OFFCURVE",
"297 538 CURVE SMOOTH",
"158 538 OFFCURVE",
"65 440 OFFCURVE",
"65 258 CURVE SMOOTH",
"65 77 OFFCURVE",
"161 -15 OFFCURVE",
"304 -15 CURVE SMOOTH"
);
}
);
};
layerId = "0A1AFE58-107D-4787-BDA0-D82FB635C3A6";
paths = (
{
closed = 1;
nodes = (
"435 -15 OFFCURVE",
"494 49 OFFCURVE",
"516 128 CURVE",
"461 133 LINE",
"443 77 OFFCURVE",
"404 34 OFFCURVE",
"304 34 CURVE SMOOTH",
"189 34 OFFCURVE",
"120 107 OFFCURVE",
"120 257 CURVE SMOOTH",
"120 416 OFFCURVE",
"186 489 OFFCURVE",
"297 489 CURVE SMOOTH",
"408 489 OFFCURVE",
"472 421 OFFCURVE",
"472 276 CURVE",
"482 290 LINE",
"100 290 LINE",
"100 244 LINE",
"526 244 LINE",
"526 285 LINE SMOOTH",
"526 445 OFFCURVE",
"438 538 OFFCURVE",
"297 538 CURVE SMOOTH",
"158 538 OFFCURVE",
"65 440 OFFCURVE",
"65 258 CURVE SMOOTH",
"65 77 OFFCURVE",
"161 -15 OFFCURVE",
"304 -15 CURVE SMOOTH"
);
}
);
width = 594;
},
{
anchors = (
{
name = bottom;
position = "{328, 0}";
},
{
name = ogonek;
position = "{412, 0}";
},
{
name = top;
position = "{329, 535}";
}
);
background = {
paths = (
{
closed = 1;
nodes = (
"508 -15 OFFCURVE",
"583 46 OFFCURVE",
"612 161 CURVE",
"420 178 LINE",
"409 142 OFFCURVE",
"385 126 OFFCURVE",
"336 126 CURVE SMOOTH",
"269 126 OFFCURVE",
"240 163 OFFCURVE",
"240 268 CURVE SMOOTH",
"240 370 OFFCURVE",
"263 410 OFFCURVE",
"331 410 CURVE SMOOTH",
"396 410 OFFCURVE",
"419 372 OFFCURVE",
"419 301 CURVE",
"438 328 LINE",
"216 328 LINE",
"216 213 LINE",
"616 214 LINE",
"616 287 LINE SMOOTH",
"616 453 OFFCURVE",
"513 553 OFFCURVE",
"328 553 CURVE SMOOTH",
"141 553 OFFCURVE",
"33 447 OFFCURVE",
"33 267 CURVE SMOOTH",
"33 88 OFFCURVE",
"136 -15 OFFCURVE",
"329 -15 CURVE SMOOTH"
);
}
);
};
layerId = "84435905-EDCB-4949-A8A3-0E53308A2F50";
paths = (
{
closed = 1;
nodes = (
"508 -15 OFFCURVE",
"583 46 OFFCURVE",
"612 158 CURVE",
"420 175 LINE",
"409 141 OFFCURVE",
"385 125 OFFCURVE",
"336 125 CURVE SMOOTH",
"269 125 OFFCURVE",
"240 162 OFFCURVE",
"240 268 CURVE SMOOTH",
"240 371 OFFCURVE",
"263 411 OFFCURVE",
"331 411 CURVE SMOOTH",
"396 411 OFFCURVE",
"419 373 OFFCURVE",
"419 301 CURVE",
"438 331 LINE",
"216 331 LINE",
"216 210 LINE",
"616 211 LINE",
"616 287 LINE SMOOTH",
"616 453 OFFCURVE",
"513 553 OFFCURVE",
"328 553 CURVE SMOOTH",
"141 553 OFFCURVE",
"33 447 OFFCURVE",
"33 267 CURVE SMOOTH",
"33 88 OFFCURVE",
"136 -15 OFFCURVE",
"329 -15 CURVE SMOOTH"
);
}
);
userData = {
RMXScaler = {
height = 100.1;
};
};
width = 650;
},
{
anchors = (
{
name = bottom;
position = "{310, 0}";
},
{
name = ogonek;
position = "{396, 0}";
},
{
name = top;
position = "{308, 528}";
}
);
background = {
paths = (
{
closed = 1;
nodes = (
"446 -15 OFFCURVE",
"511 45 OFFCURVE",
"534 136 CURVE",
"435 146 LINE",
"419 100 OFFCURVE",
"383 69 OFFCURVE",
"310 69 CURVE SMOOTH",
"206 69 OFFCURVE",
"159 134 OFFCURVE",
"159 264 CURVE SMOOTH",
"159 399 OFFCURVE",
"205 462 OFFCURVE",
"304 462 CURVE SMOOTH",
"400 462 OFFCURVE",
"444 403 OFFCURVE",
"444 289 CURVE",
"458 305 LINE",
"130 305 LINE",
"130 234 LINE",
"543 234 LINE",
"543 289 LINE SMOOTH",
"543 451 OFFCURVE",
"454 543 OFFCURVE",
"304 543 CURVE SMOOTH",
"154 543 OFFCURVE",
"57 446 OFFCURVE",
"57 263 CURVE SMOOTH",
"57 94 OFFCURVE",
"143 -15 OFFCURVE",
"311 -15 CURVE SMOOTH"
);
}
);
};
layerId = "BBFAEC79-FC1B-4455-8BF7-285C9CA7D1F7";
paths = (
{
closed = 1;
nodes = (
"446 -15 OFFCURVE",
"511 45 OFFCURVE",
"534 136 CURVE",
"435 146 LINE",
"419 100 OFFCURVE",
"383 70 OFFCURVE",
"310 70 CURVE SMOOTH",
"210 70 OFFCURVE",
"159 134 OFFCURVE",
"159 264 CURVE SMOOTH",
"159 399 OFFCURVE",
"208 462 OFFCURVE",
"304 462 CURVE SMOOTH",
"400 462 OFFCURVE",
"444 403 OFFCURVE",
"444 289 CURVE",
"458 308 LINE",
"130 308 LINE",
"130 233 LINE",
"543 233 LINE",
"543 289 LINE SMOOTH",
"543 451 OFFCURVE",
"454 544 OFFCURVE",
"304 544 CURVE SMOOTH",
"154 544 OFFCURVE",
"57 446 OFFCURVE",
"57 263 CURVE SMOOTH",
"57 94 OFFCURVE",
"143 -15 OFFCURVE",
"311 -15 CURVE SMOOTH"
);
}
);
width = 603;
}
);
leftMetricsKey = o;
unicode = 0065;
userData = {
RMXScaler = {
source = e;
};
};
},
{
color = 7;
glyphname = f;
lastChange = "2018-03-22 12:45:21 +0000";
layers = (
{
background = {
paths = (
{
closed = 1;
nodes = (
"348 473 LINE",
"348 523 LINE",
"40 523 LINE",
"40 473 LINE"
);
},
{
closed = 1;
nodes = (
"356 760 OFFCURVE",
"327 765 OFFCURVE",
"303 765 CURVE SMOOTH",
"198 765 OFFCURVE",
"145 708 OFFCURVE",
"145 578 CURVE SMOOTH",
"145 0 LINE",
"200 0 LINE",
"200 575 LINE SMOOTH",
"200 673 OFFCURVE",
"224 713 OFFCURVE",
"308 713 CURVE SMOOTH",
"325 713 OFFCURVE",
"347 710 OFFCURVE",
"362 706 CURVE",
"370 755 LINE"
);
}
);
};
layerId = "0A1AFE58-107D-4787-BDA0-D82FB635C3A6";
paths = (
{
closed = 1;
nodes = (
"348 474 LINE",
"348 523 LINE",
"40 523 LINE",
"40 474 LINE"
);
},
{
closed = 1;
nodes = (
"356 760 OFFCURVE",
"327 765 OFFCURVE",
"303 765 CURVE SMOOTH",
"198 765 OFFCURVE",
"145 708 OFFCURVE",
"145 578 CURVE SMOOTH",
"145 0 LINE",
"200 0 LINE",
"200 577 LINE SMOOTH",
"200 675 OFFCURVE",
"224 715 OFFCURVE",
"308 715 CURVE SMOOTH",
"325 715 OFFCURVE",
"347 712 OFFCURVE",
"362 708 CURVE",
"370 755 LINE"
);
}
);
width = 362;
},
{
background = {
paths = (
{
closed = 1;
nodes = (
"436 370 LINE",
"436 535 LINE",
"20 535 LINE",
"20 370 LINE"
);
},
{
closed = 1;
nodes = (
"430 757 OFFCURVE",
"378 765 OFFCURVE",
"320 765 CURVE SMOOTH",
"166 765 OFFCURVE",
"103 706 OFFCURVE",
"103 572 CURVE SMOOTH",
"103 0 LINE",
"313 0 LINE",
"313 526 LINE SMOOTH",
"313 573 OFFCURVE",
"322 600 OFFCURVE",
"376 600 CURVE SMOOTH",
"401 600 OFFCURVE",
"424 597 OFFCURVE",
"435 595 CURVE",
"455 750 LINE"
);
}
);
};
layerId = "84435905-EDCB-4949-A8A3-0E53308A2F50";
paths = (
{
closed = 1;
nodes = (
"436 380 LINE",
"436 535 LINE",
"20 535 LINE",
"20 380 LINE"
);
},
{
closed = 1;
nodes = (
"430 757 OFFCURVE",
"378 765 OFFCURVE",
"320 765 CURVE SMOOTH",
"166 765 OFFCURVE",
"103 706 OFFCURVE",
"103 572 CURVE SMOOTH",
"103 0 LINE",
"313 0 LINE",
"313 529 LINE SMOOTH",
"313 576 OFFCURVE",
"322 603 OFFCURVE",
"376 603 CURVE SMOOTH",
"401 603 OFFCURVE",
"424 600 OFFCURVE",
"435 598 CURVE",
"455 750 LINE"
);
}
);
userData = {
RMXScaler = {
height = 100.1;
};
};
width = 445;
},
{
background = {
paths = (
{
closed = 1;
nodes = (
"369 443 LINE",
"369 528 LINE",
"35 528 LINE",
"35 443 LINE"
);
},
{
closed = 1;
nodes = (
"367 761 OFFCURVE",
"335 765 OFFCURVE",
"306 765 CURVE SMOOTH",
"190 765 OFFCURVE",
"131 713 OFFCURVE",
"131 580 CURVE SMOOTH",
"131 0 LINE",
"231 0 LINE",
"231 573 LINE SMOOTH",
"231 650 OFFCURVE",
"259 677 OFFCURVE",
"324 677 CURVE SMOOTH",
"344 677 OFFCURVE",
"363 675 OFFCURVE",
"376 672 CURVE",
"386 756 LINE"
);
}
);
};
layerId = "BBFAEC79-FC1B-4455-8BF7-285C9CA7D1F7";
paths = (
{
closed = 1;
nodes = (
"369 443 LINE",
"369 528 LINE",
"35 528 LINE",
"35 443 LINE"
);
},
{
closed = 1;
nodes = (
"367 761 OFFCURVE",
"335 765 OFFCURVE",
"306 765 CURVE SMOOTH",
"198 765 OFFCURVE",
"131 713 OFFCURVE",
"131 580 CURVE SMOOTH",
"131 0 LINE",
"231 0 LINE",
"231 573 LINE SMOOTH",
"231 651 OFFCURVE",
"259 678 OFFCURVE",
"324 678 CURVE SMOOTH",
"344 678 OFFCURVE",
"363 676 OFFCURVE",
"376 673 CURVE",
"386 756 LINE"
);
}
);
width = 380;
}
);
unicode = 0066;
userData = {
RMXScaler = {
source = f;
};
};
},
{
color = 7;
glyphname = g;
lastChange = "2018-01-18 17:45:57 +0000";
layers = (
{
anchors = (
{
name = top;
position = "{319, 523}";
}
);
background = {
paths = (
{
closed = 1;
nodes = (
"532 523 LINE",
"489 523 LINE",
"478 428 LINE",
"474 428 LINE",
"441 491 OFFCURVE",
"381 538 OFFCURVE",
"295 538 CURVE SMOOTH",
"147 538 OFFCURVE",
"65 436 OFFCURVE",
"65 262 CURVE SMOOTH",
"65 87 OFFCURVE",
"147 -15 OFFCURVE",
"295 -15 CURVE SMOOTH",
"381 -15 OFFCURVE",
"442 27 OFFCURVE",
"473 89 CURVE",
"477 89 LINE",
"477 -200 LINE",
"532 -200 LINE"
);
},
{
closed = 1;
nodes = (
"179 37 OFFCURVE",
"122 110 OFFCURVE",
"122 262 CURVE SMOOTH",
"122 413 OFFCURVE",
"179 486 OFFCURVE",
"297 486 CURVE SMOOTH",
"421 486 OFFCURVE",
"481 384 OFFCURVE",
"481 262 CURVE SMOOTH",
"481 139 OFFCURVE",
"421 37 OFFCURVE",
"297 37 CURVE SMOOTH"
);
}
);
};
layerId = "0A1AFE58-107D-4787-BDA0-D82FB635C3A6";
paths = (
{
closed = 1;
nodes = (
"460 -214 OFFCURVE",
"532 -129 OFFCURVE",
"532 39 CURVE SMOOTH",
"532 523 LINE",
"489 523 LINE",
"478 428 LINE",
"474 428 LINE",
"447 479 OFFCURVE",
"393 538 OFFCURVE",
"295 538 CURVE SMOOTH",
"148 538 OFFCURVE",
"65 436 OFFCURVE",
"65 273 CURVE SMOOTH",
"65 101 OFFCURVE",
"140 -1 OFFCURVE",
"295 -1 CURVE SMOOTH",
"391 -1 OFFCURVE",
"447 57 OFFCURVE",
"473 115 CURVE",
"477 115 LINE",
"477 41 LINE SMOOTH",
"477 -104 OFFCURVE",
"427 -164 OFFCURVE",
"308 -164 CURVE SMOOTH",
"203 -164 OFFCURVE",
"156 -123 OFFCURVE",
"146 -55 CURVE",
"90 -61 LINE",
"103 -158 OFFCURVE",
"172 -214 OFFCURVE",
"308 -214 CURVE SMOOTH"
);
},
{
closed = 1;
nodes = (
"181 49 OFFCURVE",
"122 129 OFFCURVE",
"122 273 CURVE SMOOTH",
"122 410 OFFCURVE",
"181 486 OFFCURVE",
"294 486 CURVE SMOOTH",
"416 486 OFFCURVE",
"480 389 OFFCURVE",
"480 273 CURVE SMOOTH",
"480 163 OFFCURVE",
"413 49 OFFCURVE",
"294 49 CURVE SMOOTH"
);
}
);
width = 634;
},
{
anchors = (
{
name = top;
position = "{350, 535}";
}
);
background = {
paths = (
{
closed = 1;
nodes = (
"545 -210 OFFCURVE",
"625 -109 OFFCURVE",
"625 78 CURVE SMOOTH",
"625 535 LINE",
"439 535 LINE",
"421 438 LINE",
"414 438 LINE",
"393 497 OFFCURVE",
"344 550 OFFCURVE",
"246 550 CURVE SMOOTH",
"113 550 OFFCURVE",
"33 440 OFFCURVE",
"33 286 CURVE SMOOTH",
"33 132 OFFCURVE",
"110 32 OFFCURVE",
"236 32 CURVE SMOOTH",
"326 32 OFFCURVE",
"381 72 OFFCURVE",
"409 118 CURVE",
"415 118 LINE",
"415 44 LINE SMOOTH",
"415 -23 OFFCURVE",
"394 -55 OFFCURVE",
"333 -55 CURVE SMOOTH",
"279 -55 OFFCURVE",
"265 -32 OFFCURVE",
"254 1 CURVE",
"43 -19 LINE",
"58 -141 OFFCURVE",
"149 -210 OFFCURVE",
"333 -210 CURVE SMOOTH"
);
},
{
closed = 1;
nodes = (
"275 172 OFFCURVE",
"248 210 OFFCURVE",
"248 284 CURVE SMOOTH",
"248 350 OFFCURVE",
"275 390 OFFCURVE",
"333 390 CURVE SMOOTH",
"391 390 OFFCURVE",
"417 350 OFFCURVE",
"417 284 CURVE SMOOTH",
"417 210 OFFCURVE",
"391 172 OFFCURVE",
"333 172 CURVE SMOOTH"
);
}
);
};
layerId = "84435905-EDCB-4949-A8A3-0E53308A2F50";
paths = (
{
closed = 1;
nodes = (
"545 -210 OFFCURVE",
"625 -109 OFFCURVE",
"625 78 CURVE SMOOTH",
"625 535 LINE",
"439 535 LINE",
"421 438 LINE",
"414 438 LINE",
"393 497 OFFCURVE",
"344 550 OFFCURVE",
"246 550 CURVE SMOOTH",
"113 550 OFFCURVE",
"33 440 OFFCURVE",
"33 286 CURVE SMOOTH",
"33 132 OFFCURVE",
"110 32 OFFCURVE",
"236 32 CURVE SMOOTH",
"326 32 OFFCURVE",
"381 72 OFFCURVE",
"409 118 CURVE",
"415 118 LINE",
"415 39 LINE SMOOTH",
"415 -28 OFFCURVE",
"394 -60 OFFCURVE",
"333 -60 CURVE SMOOTH",
"279 -60 OFFCURVE",
"265 -37 OFFCURVE",
"254 1 CURVE",
"43 -19 LINE",
"58 -141 OFFCURVE",
"149 -210 OFFCURVE",
"333 -210 CURVE SMOOTH"
);
},
{
closed = 1;
nodes = (
"275 167 OFFCURVE",
"248 205 OFFCURVE",
"248 284 CURVE SMOOTH",
"248 355 OFFCURVE",
"275 395 OFFCURVE",
"333 395 CURVE SMOOTH",
"391 395 OFFCURVE",
"417 355 OFFCURVE",
"417 284 CURVE SMOOTH",
"417 205 OFFCURVE",
"391 167 OFFCURVE",
"333 167 CURVE SMOOTH"
);
}
);
userData = {
RMXScaler = {
height = 100.1;
};
};
width = 685;
},
{
anchors = (
{
name = top;
position = "{324, 528}";
}
);
background = {
paths = (
{
closed = 1;
nodes = (
"483 -210 OFFCURVE",
"556 -123 OFFCURVE",
"556 44 CURVE SMOOTH",
"556 528 LINE",
"471 528 LINE",
"458 437 LINE",
"453 437 LINE",
"429 491 OFFCURVE",
"385 543 OFFCURVE",
"286 543 CURVE SMOOTH",
"136 543 OFFCURVE",
"57 434 OFFCURVE",
"57 275 CURVE SMOOTH",
"57 116 OFFCURVE",
"132 8 OFFCURVE",
"286 8 CURVE SMOOTH",
"386 8 OFFCURVE",
"427 66 OFFCURVE",
"450 109 CURVE",
"456 109 LINE",
"456 43 LINE SMOOTH",
"456 -73 OFFCURVE",
"418 -125 OFFCURVE",
"316 -125 CURVE SMOOTH",
"226 -125 OFFCURVE",
"193 -92 OFFCURVE",
"181 -41 CURVE",
"79 -51 LINE",
"91 -151 OFFCURVE",
"161 -210 OFFCURVE",
"314 -210 CURVE SMOOTH"
);
},
{
closed = 1;
nodes = (
"209 92 OFFCURVE",
"160 156 OFFCURVE",
"160 275 CURVE SMOOTH",
"160 388 OFFCURVE",
"209 457 OFFCURVE",
"308 457 CURVE SMOOTH",
"409 457 OFFCURVE",
"458 381 OFFCURVE",
"458 275 CURVE SMOOTH",
"458 173 OFFCURVE",
"409 92 OFFCURVE",
"308 92 CURVE SMOOTH"
);
}
);
};
layerId = "BBFAEC79-FC1B-4455-8BF7-285C9CA7D1F7";
paths = (
{
closed = 1;
nodes = (
"483 -210 OFFCURVE",
"556 -117 OFFCURVE",
"556 44 CURVE SMOOTH",
"556 528 LINE",
"471 528 LINE",
"458 437 LINE",
"453 437 LINE",
"429 491 OFFCURVE",
"385 543 OFFCURVE",
"286 543 CURVE SMOOTH",
"136 543 OFFCURVE",
"57 434 OFFCURVE",
"57 275 CURVE SMOOTH",
"57 116 OFFCURVE",
"132 9 OFFCURVE",
"286 9 CURVE SMOOTH",
"386 9 OFFCURVE",
"427 66 OFFCURVE",
"450 109 CURVE",
"456 109 LINE",
"456 43 LINE SMOOTH",
"456 -67 OFFCURVE",
"416 -126 OFFCURVE",
"314 -126 CURVE SMOOTH",
"224 -126 OFFCURVE",
"193 -89 OFFCURVE",
"181 -38 CURVE",
"79 -48 LINE",
"91 -148 OFFCURVE",
"161 -210 OFFCURVE",
"314 -210 CURVE SMOOTH"
);
},
{
closed = 1;
nodes = (
"209 92 OFFCURVE",
"159 156 OFFCURVE",
"159 275 CURVE SMOOTH",
"159 388 OFFCURVE",
"209 458 OFFCURVE",
"308 458 CURVE SMOOTH",
"409 458 OFFCURVE",
"458 381 OFFCURVE",
"458 275 CURVE SMOOTH",
"458 173 OFFCURVE",
"409 92 OFFCURVE",
"308 92 CURVE SMOOTH"
);
}
);
width = 647;
}
);
leftMetricsKey = o;
rightMetricsKey = jdotless;
unicode = 0067;
userData = {
RMXScaler = {
source = g;
};
};
},
{
color = 7;
glyphname = h;
lastChange = "2018-01-18 18:54:20 +0000";
layers = (
{
anchors = (
{
name = top;
position = "{129, 731}";
}
);
background = {
paths = (
{
closed = 1;
nodes = (
"157 0 LINE",
"157 284 LINE SMOOTH",
"157 405 OFFCURVE",
"237 485 OFFCURVE",
"338 485 CURVE SMOOTH",
"426 485 OFFCURVE",
"469 439 OFFCURVE",
"469 338 CURVE SMOOTH",
"469 0 LINE",
"524 0 LINE",
"524 347 LINE SMOOTH",
"524 472 OFFCURVE",
"459 538 OFFCURVE",
"348 538 CURVE SMOOTH",
"258 538 OFFCURVE",
"195 489 OFFCURVE",
"160 428 CURVE",
"156 428 LINE",
"145 523 LINE",
"102 523 LINE",
"102 0 LINE"
);
}
);
};
layerId = "0A1AFE58-107D-4787-BDA0-D82FB635C3A6";
paths = (
{
closed = 1;
nodes = (
"157 0 LINE",
"157 284 LINE SMOOTH",
"157 405 OFFCURVE",
"237 485 OFFCURVE",
"338 485 CURVE SMOOTH",
"426 485 OFFCURVE",
"469 439 OFFCURVE",
"469 339 CURVE SMOOTH",
"469 0 LINE",
"524 0 LINE",
"524 348 LINE SMOOTH",
"524 472 OFFCURVE",
"459 538 OFFCURVE",
"348 538 CURVE SMOOTH",
"259 538 OFFCURVE",
"196 491 OFFCURVE",
"161 428 CURVE",
"157 428 LINE",
"157 750 LINE",
"102 750 LINE",
"102 0 LINE"
);
}
);
width = 621;
},
{
anchors = (
{
name = top;
position = "{165, 741}";
}
);
background = {
paths = (
{
closed = 1;
nodes = (
"270 0 LINE",
"270 279 LINE SMOOTH",
"270 335 OFFCURVE",
"306 370 OFFCURVE",
"356 370 CURVE SMOOTH",
"404 370 OFFCURVE",
"419 342 OFFCURVE",
"419 292 CURVE SMOOTH",
"419 0 LINE",
"629 0 LINE",
"629 347 LINE SMOOTH",
"629 469 OFFCURVE",
"583 550 OFFCURVE",
"455 550 CURVE SMOOTH",
"359 550 OFFCURVE",
"307 502 OFFCURVE",
"273 427 CURVE",
"266 427 LINE",
"246 535 LINE",
"60 535 LINE",
"60 0 LINE"
);
}
);
};
layerId = "84435905-EDCB-4949-A8A3-0E53308A2F50";
paths = (
{
closed = 1;
nodes = (
"270 0 LINE",
"270 279 LINE SMOOTH",
"270 333 OFFCURVE",
"303 370 OFFCURVE",
"356 370 CURVE SMOOTH",
"404 370 OFFCURVE",
"419 342 OFFCURVE",
"419 292 CURVE SMOOTH",
"419 0 LINE",
"629 0 LINE",
"629 347 LINE SMOOTH",
"629 469 OFFCURVE",
"584 550 OFFCURVE",
"455 550 CURVE SMOOTH",
"351 550 OFFCURVE",
"307 494 OFFCURVE",
"277 427 CURVE",
"270 427 LINE",
"270 750 LINE",
"60 750 LINE",
"60 0 LINE"
);
}
);
userData = {
RMXScaler = {
height = 100.1;
};
};
width = 686;
},
{
anchors = (
{
name = top;
position = "{140, 730}";
}
);
background = {
paths = (
{
closed = 1;
nodes = (
"191 0 LINE",
"191 290 LINE SMOOTH",
"191 388 OFFCURVE",
"253 453 OFFCURVE",
"341 453 CURVE SMOOTH",
"415 453 OFFCURVE",
"450 409 OFFCURVE",
"450 323 CURVE SMOOTH",
"450 0 LINE",
"550 0 LINE",
"550 356 LINE SMOOTH",
"550 476 OFFCURVE",
"490 543 OFFCURVE",
"373 543 CURVE SMOOTH",
"284 543 OFFCURVE",
"229 500 OFFCURVE",
"194 437 CURVE",
"189 437 LINE",
"176 528 LINE",
"91 528 LINE",
"91 0 LINE"
);
}
);
};
layerId = "BBFAEC79-FC1B-4455-8BF7-285C9CA7D1F7";
paths = (
{
closed = 1;
nodes = (
"191 0 LINE",
"191 291 LINE SMOOTH",
"191 388 OFFCURVE",
"254 453 OFFCURVE",
"340 453 CURVE SMOOTH",
"414 453 OFFCURVE",
"450 411 OFFCURVE",
"450 317 CURVE SMOOTH",
"450 0 LINE",
"550 0 LINE",
"550 356 LINE SMOOTH",
"550 480 OFFCURVE",
"486 543 OFFCURVE",
"374 543 CURVE SMOOTH",
"283 543 OFFCURVE",
"231 501 OFFCURVE",
"196 437 CURVE",
"191 437 LINE",
"191 750 LINE",
"91 750 LINE",
"91 0 LINE"
);
}
);
width = 637;
}
);
leftMetricsKey = n;
rightMetricsKey = n;
unicode = 0068;
userData = {
RMXScaler = {
source = h;
};
};
},
{
glyphname = j;
lastChange = "2018-08-02 09:20:58 +0000";
layers = (
{
background = {
anchors = (
{
name = top;
position = "{129, 515}";
}
);
paths = (
{
closed = 1;
nodes = (
"-15 -204 LINE",
"-4 -207 OFFCURVE",
"15 -210 OFFCURVE",
"30 -210 CURVE SMOOTH",
"119 -210 OFFCURVE",
"156 -165 OFFCURVE",
"156 -50 CURVE SMOOTH",
"156 515 LINE",
"101 515 LINE",
"101 -50 LINE SMOOTH",
"101 -136 OFFCURVE",
"82 -161 OFFCURVE",
"24 -161 CURVE SMOOTH",
"12 -161 OFFCURVE",
"-5 -159 OFFCURVE",
"-15 -157 CURVE"
);
},
{
closed = 1;
nodes = (
"153 600 OFFCURVE",
"171 614 OFFCURVE",
"171 643 CURVE SMOOTH",
"171 672 OFFCURVE",
"153 686 OFFCURVE",
"129 686 CURVE SMOOTH",
"104 686 OFFCURVE",
"87 672 OFFCURVE",
"87 643 CURVE SMOOTH",
"87 614 OFFCURVE",
"104 600 OFFCURVE",
"129 600 CURVE SMOOTH"
);
}
);
};
components = (
{
name = jdotless;
},
{
name = dotaccentcomb;
transform = "{1, 0, 0, 1, 136, 0}";
}
);
layerId = "0A1AFE58-107D-4787-BDA0-D82FB635C3A6";
width = 265;
},
{
background = {
anchors = (
{
name = top;
position = "{175, 535}";
}
);
paths = (
{
closed = 1;
nodes = (
"-56 -196 LINE",
"-29 -202 OFFCURVE",
"12 -210 OFFCURVE",
"65 -210 CURVE SMOOTH",
"220 -210 OFFCURVE",
"277 -134 OFFCURVE",
"277 31 CURVE SMOOTH",
"277 535 LINE",
"72 535 LINE",
"72 34 LINE SMOOTH",
"72 -32 OFFCURVE",
"51 -56 OFFCURVE",
"-4 -56 CURVE SMOOTH",
"-19 -56 OFFCURVE",
"-40 -53 OFFCURVE",
"-56 -51 CURVE"
);
},
{
closed = 1;
nodes = (
"245 600 OFFCURVE",
"286 634 OFFCURVE",
"286 697 CURVE SMOOTH",
"286 760 OFFCURVE",
"245 794 OFFCURVE",
"176 794 CURVE SMOOTH",
"105 794 OFFCURVE",
"64 760 OFFCURVE",
"64 697 CURVE SMOOTH",
"64 634 OFFCURVE",
"105 600 OFFCURVE",
"176 600 CURVE SMOOTH"
);
}
);
};
components = (
{
name = jdotless;
},
{
name = dotaccentcomb;
transform = "{1, 0, 0, 1, 175, 0}";
}
);
layerId = "84435905-EDCB-4949-A8A3-0E53308A2F50";
userData = {
RMXScaler = {
height = 100.1;
};
};
width = 342;
},
{
components = (
{
name = jdotless;
},
{
name = dotaccentcomb;
transform = "{1, 0, 0, 1, 147, 0}";
}
);
layerId = "BBFAEC79-FC1B-4455-8BF7-285C9CA7D1F7";
width = 289;
}
);
unicode = 006A;
userData = {
RMXScaler = {
source = j;
};
};
},
{
color = 7;
glyphname = k;
lastChange = "2018-05-18 13:59:30 +0000";
layers = (
{
anchors = (
{
name = bottom;
position = "{278, 0}";
}
);
background = {
paths = (
{
closed = 1;
nodes = (
"193 258 LINE",
"489 523 LINE",
"416 523 LINE",
"160 289 LINE",
"143 289 LINE",
"143 258 LINE"
);
},
{
closed = 1;
nodes = (
"157 0 LINE",
"157 750 LINE",
"102 750 LINE",
"102 0 LINE"
);
},
{
closed = 1;
nodes = (
"499 0 LINE",
"194 300 LINE",
"155 263 LINE",
"425 0 LINE"
);
}
);
};
layerId = "0A1AFE58-107D-4787-BDA0-D82FB635C3A6";
paths = (
{
closed = 1;
nodes = (
"157 0 LINE",
"157 750 LINE",
"102 750 LINE",
"102 0 LINE"
);
},
{
closed = 1;
nodes = (
"200 294 LINE",
"200 264 LINE",
"489 523 LINE",
"416 523 LINE",
"160 289 LINE",
"143 289 LINE",
"143 258 LINE",
"160 258 LINE",
"425 0 LINE",
"499 0 LINE"
);
}
);
width = 514;
},
{
anchors = (
{
name = bottom;
position = "{337, 0}";
}
);
background = {
paths = (
{
closed = 1;
nodes = (
"392 215 LINE",
"630 535 LINE",
"420 535 LINE",
"277 328 LINE",
"237 328 LINE",
"237 215 LINE"
);
},
{
closed = 1;
nodes = (
"270 0 LINE",
"270 750 LINE",
"60 750 LINE",
"60 0 LINE"
);
},
{
closed = 1;
nodes = (
"645 0 LINE",
"431 331 LINE",
"252 253 LINE",
"412 0 LINE"
);
}
);
};
layerId = "84435905-EDCB-4949-A8A3-0E53308A2F50";
paths = (
{
closed = 1;
nodes = (
"270 0 LINE",
"270 750 LINE",
"60 750 LINE",
"60 0 LINE"
);
},
{
closed = 1;
nodes = (
"402 376 LINE",
"397 222 LINE",
"630 535 LINE",
"420 535 LINE",
"277 328 LINE",
"237 328 LINE",
"237 215 LINE",
"276 215 LINE",
"412 0 LINE",
"645 0 LINE"
);
}
);
userData = {
RMXScaler = {
height = 100.1;
};
};
width = 647;
},
{
anchors = (
{
name = bottom;
position = "{295, 0}";
}
);
background = {
paths = (
{
closed = 1;
nodes = (
"243 242 LINE",
"533 528 LINE",
"415 528 LINE",
"196 309 LINE",
"168 309 LINE",
"168 242 LINE"
);
},
{
closed = 1;
nodes = (
"191 0 LINE",
"191 750 LINE",
"91 750 LINE",
"91 0 LINE"
);
},
{
closed = 1;
nodes = (
"543 0 LINE",
"257 314 LINE",
"178 261 LINE",
"421 0 LINE"
);
}
);
};
layerId = "BBFAEC79-FC1B-4455-8BF7-285C9CA7D1F7";
paths = (
{
closed = 1;
nodes = (
"191 0 LINE",
"191 750 LINE",
"91 750 LINE",
"91 0 LINE"
);
},
{
closed = 1;
nodes = (
"255 316 LINE",
"253 252 LINE",
"533 528 LINE",
"415 528 LINE",
"196 309 LINE",
"168 309 LINE",
"168 242 LINE",
"196 242 LINE",
"421 0 LINE",
"543 0 LINE"
);
}
);
width = 553;
}
);
leftMetricsKey = h;
unicode = 006B;
userData = {
RMXScaler = {
source = k;
};
};
},
{
color = 7;
glyphname = l;
lastChange = "2018-01-19 10:07:37 +0000";
layers = (
{
anchors = (
{
name = bottom;
position = "{129, 0}";
},
{
name = periodcentered;
position = "{251, 370}";
},
{
name = top;
position = "{129, 731}";
},
{
name = topright;
position = "{251, 523}";
}
);
background = {
paths = (
{
closed = 1;
nodes = (
"157 0 LINE",
"157 730 LINE",
"102 730 LINE",
"102 0 LINE"
);
}
);
};
layerId = "0A1AFE58-107D-4787-BDA0-D82FB635C3A6";
paths = (
{
closed = 1;
nodes = (
"157 0 LINE",
"157 750 LINE",
"102 750 LINE",
"102 0 LINE"
);
}
);
width = 259;
},
{
anchors = (
{
name = bottom;
position = "{168, 0}";
},
{
name = periodcentered;
position = "{325, 370}";
},
{
name = top;
position = "{165, 741}";
},
{
name = topright;
position = "{360, 535}";
}
);
background = {
paths = (
{
closed = 1;
nodes = (
"270 0 LINE",
"270 750 LINE",
"65 750 LINE",
"65 0 LINE"
);
}
);
};
layerId = "84435905-EDCB-4949-A8A3-0E53308A2F50";
paths = (
{
closed = 1;
nodes = (
"270 0 LINE",
"270 750 LINE",
"60 750 LINE",
"60 0 LINE"
);
}
);
userData = {
RMXScaler = {
height = 100.1;
};
};
width = 330;
},
{
anchors = (
{
name = bottom;
position = "{141, 0}";
},
{
name = periodcentered;
position = "{277, 370}";
},
{
name = top;
position = "{140, 730}";
},
{
name = topright;
position = "{277, 528}";
}
);
layerId = "BBFAEC79-FC1B-4455-8BF7-285C9CA7D1F7";
paths = (
{
closed = 1;
nodes = (
"191 0 LINE",
"191 750 LINE",
"91 750 LINE",
"91 0 LINE"
);
}
);
width = 282;
}
);
leftMetricsKey = h;
rightMetricsKey = d;
unicode = 006C;
userData = {
RMXScaler = {
source = l;
};
};
},
{
color = 7;
glyphname = m;
lastChange = "2018-01-17 15:09:52 +0000";
layers = (
{
background = {
paths = (
{
closed = 0;
nodes = (
"514 284 LINE",
"514 405 OFFCURVE",
"594 485 OFFCURVE",
"690 485 CURVE SMOOTH",
"773 485 OFFCURVE",
"816 439 OFFCURVE",
"816 338 CURVE SMOOTH",
"816 0 LINE",
"871 0 LINE",
"871 347 LINE SMOOTH",
"871 472 OFFCURVE",
"806 538 OFFCURVE",
"700 538 CURVE SMOOTH",
"615 538 OFFCURVE",
"552 489 OFFCURVE",
"517 428 CURVE"
);
},
{
closed = 0;
nodes = (
"510 416 LINE",
"506 416 LINE",
"486 496 OFFCURVE",
"428 538 OFFCURVE",
"343 538 CURVE SMOOTH",
"258 538 OFFCURVE",
"195 489 OFFCURVE",
"160 428 CURVE",
"156 428 LINE",
"145 523 LINE",
"102 523 LINE",
"102 0 LINE",
"157 0 LINE",
"157 284 LINE SMOOTH",
"157 405 OFFCURVE",
"237 485 OFFCURVE",
"333 485 CURVE SMOOTH",
"416 485 OFFCURVE",
"459 439 OFFCURVE",
"459 338 CURVE SMOOTH",
"459 0 LINE",
"514 0 LINE",
"514 347 LINE"
);
}
);
};
layerId = "0A1AFE58-107D-4787-BDA0-D82FB635C3A6";
paths = (
{
closed = 1;
nodes = (
"102 0 LINE",
"157 0 LINE",
"157 284 LINE SMOOTH",
"157 405 OFFCURVE",
"237 485 OFFCURVE",
"333 485 CURVE SMOOTH",
"416 485 OFFCURVE",
"459 439 OFFCURVE",
"459 338 CURVE SMOOTH",
"459 0 LINE",
"514 0 LINE",
"514 284 LINE SMOOTH",
"514 405 OFFCURVE",
"594 485 OFFCURVE",
"690 485 CURVE SMOOTH",
"773 485 OFFCURVE",
"816 439 OFFCURVE",
"816 338 CURVE SMOOTH",
"816 0 LINE",
"871 0 LINE",
"871 347 LINE SMOOTH",
"871 472 OFFCURVE",
"806 538 OFFCURVE",
"700 538 CURVE SMOOTH",
"615 538 OFFCURVE",
"548 494 OFFCURVE",
"509 420 CURVE",
"505 420 LINE",
"485 494 OFFCURVE",
"428 538 OFFCURVE",
"343 538 CURVE SMOOTH",
"258 538 OFFCURVE",
"195 489 OFFCURVE",
"160 428 CURVE",
"156 428 LINE",
"145 523 LINE",
"102 523 LINE"
);
}
);
width = 968;
},
{
background = {
paths = (
{
closed = 0;
nodes = (
"618 415 LINE",
"602 498 OFFCURVE",
"553 550 OFFCURVE",
"452 550 CURVE SMOOTH",
"359 550 OFFCURVE",
"307 502 OFFCURVE",
"273 427 CURVE",
"266 427 LINE",
"246 535 LINE",
"60 535 LINE",
"60 0 LINE",
"270 0 LINE",
"270 279 LINE SMOOTH",
"270 335 OFFCURVE",
"306 370 OFFCURVE",
"353 370 CURVE SMOOTH",
"399 370 OFFCURVE",
"414 342 OFFCURVE",
"414 292 CURVE SMOOTH",
"414 0 LINE",
"624 0 LINE",
"624 279 LINE SMOOTH",
"624 335 OFFCURVE",
"660 370 OFFCURVE",
"707 370 CURVE SMOOTH",
"753 370 OFFCURVE",
"768 342 OFFCURVE",
"768 292 CURVE SMOOTH",
"768 0 LINE",
"978 0 LINE",
"978 347 LINE SMOOTH",
"978 469 OFFCURVE",
"932 550 OFFCURVE",
"806 550 CURVE SMOOTH",
"713 550 OFFCURVE",
"661 502 OFFCURVE",
"627 427 CURVE",
"620 427 LINE"
);
}
);
};
layerId = "84435905-EDCB-4949-A8A3-0E53308A2F50";
paths = (
{
closed = 1;
nodes = (
"60 0 LINE",
"270 0 LINE",
"270 279 LINE SMOOTH",
"270 335 OFFCURVE",
"306 370 OFFCURVE",
"353 370 CURVE SMOOTH",
"399 370 OFFCURVE",
"414 342 OFFCURVE",
"414 292 CURVE SMOOTH",
"414 0 LINE",
"624 0 LINE",
"624 279 LINE SMOOTH",
"624 335 OFFCURVE",
"660 370 OFFCURVE",
"707 370 CURVE SMOOTH",
"753 370 OFFCURVE",
"768 342 OFFCURVE",
"768 292 CURVE SMOOTH",
"768 0 LINE",
"978 0 LINE",
"978 347 LINE SMOOTH",
"978 469 OFFCURVE",
"932 550 OFFCURVE",
"806 550 CURVE SMOOTH",
"703 550 OFFCURVE",
"657 502 OFFCURVE",
"622 427 CURVE",
"615 427 LINE",
"598 499 OFFCURVE",
"553 550 OFFCURVE",
"452 550 CURVE SMOOTH",
"359 550 OFFCURVE",
"307 502 OFFCURVE",
"273 427 CURVE",
"266 427 LINE",
"246 535 LINE",
"60 535 LINE"
);
}
);
userData = {
RMXScaler = {
height = 100.1;
};
};
width = 1035;
},
{
background = {
paths = (
{
closed = 1;
nodes = (
"191 0 LINE",
"191 290 LINE SMOOTH",
"191 388 OFFCURVE",
"253 453 OFFCURVE",
"336 453 CURVE SMOOTH",
"405 453 OFFCURVE",
"440 409 OFFCURVE",
"440 323 CURVE SMOOTH",
"440 0 LINE",
"540 0 LINE",
"540 356 LINE SMOOTH",
"540 476 OFFCURVE",
"480 543 OFFCURVE",
"368 543 CURVE SMOOTH",
"284 543 OFFCURVE",
"229 500 OFFCURVE",
"194 437 CURVE",
"189 437 LINE",
"176 528 LINE",
"91 528 LINE",
"91 0 LINE"
);
},
{
closed = 0;
nodes = (
"540 290 LINE",
"540 388 OFFCURVE",
"602 453 OFFCURVE",
"685 453 CURVE SMOOTH",
"754 453 OFFCURVE",
"789 409 OFFCURVE",
"789 323 CURVE SMOOTH",
"789 0 LINE",
"889 0 LINE",
"889 356 LINE SMOOTH",
"889 476 OFFCURVE",
"829 543 OFFCURVE",
"717 543 CURVE SMOOTH",
"633 543 OFFCURVE",
"578 500 OFFCURVE",
"543 437 CURVE",
"538 437 LINE"
);
}
);
};
layerId = "BBFAEC79-FC1B-4455-8BF7-285C9CA7D1F7";
paths = (
{
closed = 1;
nodes = (
"91 0 LINE",
"191 0 LINE",
"191 290 LINE SMOOTH",
"191 388 OFFCURVE",
"253 453 OFFCURVE",
"336 453 CURVE SMOOTH",
"405 453 OFFCURVE",
"440 409 OFFCURVE",
"440 323 CURVE SMOOTH",
"440 0 LINE",
"540 0 LINE",
"540 290 LINE SMOOTH",
"540 388 OFFCURVE",
"602 453 OFFCURVE",
"685 453 CURVE SMOOTH",
"754 453 OFFCURVE",
"789 409 OFFCURVE",
"789 323 CURVE SMOOTH",
"789 0 LINE",
"889 0 LINE",
"889 356 LINE SMOOTH",
"889 476 OFFCURVE",
"829 543 OFFCURVE",
"717 543 CURVE SMOOTH",
"623 543 OFFCURVE",
"571 490 OFFCURVE",
"536 427 CURVE",
"531 427 LINE",
"512 500 OFFCURVE",
"458 543 OFFCURVE",
"368 543 CURVE SMOOTH",
"284 543 OFFCURVE",
"229 500 OFFCURVE",
"194 437 CURVE",
"189 437 LINE",
"176 528 LINE",
"91 528 LINE"
);
}
);
width = 976;
}
);
leftMetricsKey = n;
rightMetricsKey = n;
unicode = 006D;
userData = {
RMXScaler = {
source = m;
};
};
},
{
color = 7;
glyphname = n;
lastChange = "2018-01-17 14:58:21 +0000";
layers = (
{
anchors = (
{
name = apostrophe;
position = "{0, 523}";
},
{
name = bottom;
position = "{306, 0}";
},
{
name = top;
position = "{310, 523}";
}
);
background = {
paths = (
{
closed = 1;
nodes = (
"157 0 LINE",
"157 276 LINE SMOOTH",
"157 397 OFFCURVE",
"237 480 OFFCURVE",
"338 480 CURVE SMOOTH",
"426 480 OFFCURVE",
"469 428 OFFCURVE",
"469 330 CURVE SMOOTH",
"469 0 LINE",
"524 0 LINE",
"524 345 LINE SMOOTH",
"524 464 OFFCURVE",
"459 530 OFFCURVE",
"343 530 CURVE SMOOTH",
"256 530 OFFCURVE",
"195 483 OFFCURVE",
"160 420 CURVE",
"156 420 LINE",
"145 515 LINE",
"102 515 LINE",
"102 0 LINE"
);
}
);
};
layerId = "0A1AFE58-107D-4787-BDA0-D82FB635C3A6";
paths = (
{
closed = 1;
nodes = (
"157 0 LINE",
"157 284 LINE SMOOTH",
"157 405 OFFCURVE",
"237 485 OFFCURVE",
"338 485 CURVE SMOOTH",
"426 485 OFFCURVE",
"469 439 OFFCURVE",
"469 338 CURVE SMOOTH",
"469 0 LINE",
"524 0 LINE",
"524 347 LINE SMOOTH",
"524 472 OFFCURVE",
"459 538 OFFCURVE",
"348 538 CURVE SMOOTH",
"258 538 OFFCURVE",
"195 489 OFFCURVE",
"160 428 CURVE",
"156 428 LINE",
"145 523 LINE",
"102 523 LINE",
"102 0 LINE"
);
}
);
width = 621;
},
{
anchors = (
{
name = apostrophe;
position = "{0, 535}";
},
{
name = bottom;
position = "{344, 0}";
},
{
name = top;
position = "{346, 535}";
}
);
background = {
paths = (
{
closed = 1;
nodes = (
"270 0 LINE",
"270 279 LINE SMOOTH",
"270 335 OFFCURVE",
"306 370 OFFCURVE",
"356 370 CURVE SMOOTH",
"404 370 OFFCURVE",
"419 342 OFFCURVE",
"419 292 CURVE SMOOTH",
"419 0 LINE",
"629 0 LINE",
"629 347 LINE SMOOTH",
"629 469 OFFCURVE",
"583 550 OFFCURVE",
"455 550 CURVE SMOOTH",
"359 550 OFFCURVE",
"307 502 OFFCURVE",
"273 427 CURVE",
"266 427 LINE",
"246 535 LINE",
"60 535 LINE",
"60 0 LINE"
);
}
);
};
layerId = "84435905-EDCB-4949-A8A3-0E53308A2F50";
paths = (
{
closed = 1;
nodes = (
"270 0 LINE",
"270 279 LINE SMOOTH",
"270 335 OFFCURVE",
"306 370 OFFCURVE",
"356 370 CURVE SMOOTH",
"404 370 OFFCURVE",
"419 342 OFFCURVE",
"419 292 CURVE SMOOTH",
"419 0 LINE",
"629 0 LINE",
"629 347 LINE SMOOTH",
"629 469 OFFCURVE",
"583 550 OFFCURVE",
"455 550 CURVE SMOOTH",
"359 550 OFFCURVE",
"307 502 OFFCURVE",
"273 427 CURVE",
"266 427 LINE",
"246 535 LINE",
"60 535 LINE",
"60 0 LINE"
);
}
);
userData = {
RMXScaler = {
height = 100.1;
};
};
width = 686;
},
{
anchors = (
{
name = apostrophe;
position = "{0, 528}";
},
{
name = bottom;
position = "{314, 0}";
},
{
name = top;
position = "{312, 528}";
}
);
background = {
paths = (
{
closed = 1;
nodes = (
"191 0 LINE",
"191 290 LINE SMOOTH",
"191 390 OFFCURVE",
"253 455 OFFCURVE",
"341 455 CURVE SMOOTH",
"415 455 OFFCURVE",
"450 411 OFFCURVE",
"450 323 CURVE SMOOTH",
"450 0 LINE",
"550 0 LINE",
"550 356 LINE SMOOTH",
"550 476 OFFCURVE",
"490 543 OFFCURVE",
"373 543 CURVE SMOOTH",
"284 543 OFFCURVE",
"229 500 OFFCURVE",
"194 437 CURVE",
"189 437 LINE",
"176 528 LINE",
"91 528 LINE",
"91 0 LINE"
);
}
);
};
layerId = "BBFAEC79-FC1B-4455-8BF7-285C9CA7D1F7";
paths = (
{
closed = 1;
nodes = (
"191 0 LINE",
"191 290 LINE SMOOTH",
"191 388 OFFCURVE",
"253 453 OFFCURVE",
"341 453 CURVE SMOOTH",
"415 453 OFFCURVE",
"450 409 OFFCURVE",
"450 323 CURVE SMOOTH",
"450 0 LINE",
"550 0 LINE",
"550 356 LINE SMOOTH",
"550 476 OFFCURVE",
"490 543 OFFCURVE",
"373 543 CURVE SMOOTH",
"284 543 OFFCURVE",
"229 500 OFFCURVE",
"194 437 CURVE",
"189 437 LINE",
"176 528 LINE",
"91 528 LINE",
"91 0 LINE"
);
}
);
width = 637;
}
);
unicode = 006E;
userData = {
RMXScaler = {
source = n;
};
};
},
{
color = 7;
glyphname = o;
lastChange = "2018-02-15 13:53:56 +0000";
layers = (
{
anchors = (
{
name = bottom;
position = "{306, 0}";
},
{
name = top;
position = "{306, 523}";
}
);
background = {
paths = (
{
closed = 1;
nodes = (
"455 -15 OFFCURVE",
"547 84 OFFCURVE",
"547 262 CURVE SMOOTH",
"547 440 OFFCURVE",
"455 538 OFFCURVE",
"306 538 CURVE SMOOTH",
"157 538 OFFCURVE",
"65 440 OFFCURVE",
"65 262 CURVE SMOOTH",
"65 84 OFFCURVE",
"157 -15 OFFCURVE",
"306 -15 CURVE SMOOTH"
);
},
{
closed = 1;
nodes = (
"184 37 OFFCURVE",
"122 109 OFFCURVE",
"122 262 CURVE SMOOTH",
"122 415 OFFCURVE",
"184 486 OFFCURVE",
"306 486 CURVE SMOOTH",
"428 486 OFFCURVE",
"490 415 OFFCURVE",
"490 262 CURVE SMOOTH",
"490 109 OFFCURVE",
"428 37 OFFCURVE",
"306 37 CURVE SMOOTH"
);
}
);
};
guideLines = (
{
angle = 270;
position = "{-75, 194}";
}
);
layerId = "0A1AFE58-107D-4787-BDA0-D82FB635C3A6";
paths = (
{
closed = 1;
nodes = (
"455 -15 OFFCURVE",
"547 84 OFFCURVE",
"547 262 CURVE SMOOTH",
"547 440 OFFCURVE",
"455 538 OFFCURVE",
"306 538 CURVE SMOOTH",
"157 538 OFFCURVE",
"65 440 OFFCURVE",
"65 262 CURVE SMOOTH",
"65 84 OFFCURVE",
"157 -15 OFFCURVE",
"306 -15 CURVE SMOOTH"
);
},
{
closed = 1;
nodes = (
"185 36 OFFCURVE",
"122 108 OFFCURVE",
"122 262 CURVE SMOOTH",
"122 416 OFFCURVE",
"185 487 OFFCURVE",
"306 487 CURVE SMOOTH",
"427 487 OFFCURVE",
"490 416 OFFCURVE",
"490 262 CURVE SMOOTH",
"490 108 OFFCURVE",
"427 36 OFFCURVE",
"306 36 CURVE SMOOTH"
);
}
);
width = 612;
},
{
anchors = (
{
name = bottom;
position = "{335, 0}";
},
{
name = top;
position = "{335, 535}";
}
);
background = {
paths = (
{
closed = 1;
nodes = (
"534 -15 OFFCURVE",
"637 88 OFFCURVE",
"637 267 CURVE SMOOTH",
"637 446 OFFCURVE",
"534 550 OFFCURVE",
"335 550 CURVE SMOOTH",
"136 550 OFFCURVE",
"33 446 OFFCURVE",
"33 267 CURVE SMOOTH",
"33 88 OFFCURVE",
"136 -15 OFFCURVE",
"335 -15 CURVE SMOOTH"
);
},
{
closed = 1;
nodes = (
"267 145 OFFCURVE",
"246 185 OFFCURVE",
"246 267 CURVE SMOOTH",
"246 350 OFFCURVE",
"267 390 OFFCURVE",
"335 390 CURVE SMOOTH",
"403 390 OFFCURVE",
"424 350 OFFCURVE",
"424 267 CURVE SMOOTH",
"424 185 OFFCURVE",
"403 145 OFFCURVE",
"335 145 CURVE SMOOTH"
);
}
);
};
layerId = "84435905-EDCB-4949-A8A3-0E53308A2F50";
paths = (
{
closed = 1;
nodes = (
"534 -15 OFFCURVE",
"637 88 OFFCURVE",
"637 267 CURVE SMOOTH",
"637 446 OFFCURVE",
"534 550 OFFCURVE",
"335 550 CURVE SMOOTH",
"136 550 OFFCURVE",
"33 446 OFFCURVE",
"33 267 CURVE SMOOTH",
"33 88 OFFCURVE",
"136 -15 OFFCURVE",
"335 -15 CURVE SMOOTH"
);
},
{
closed = 1;
nodes = (
"267 140 OFFCURVE",
"246 180 OFFCURVE",
"246 267 CURVE SMOOTH",
"246 355 OFFCURVE",
"267 395 OFFCURVE",
"335 395 CURVE SMOOTH",
"403 395 OFFCURVE",
"424 355 OFFCURVE",
"424 267 CURVE SMOOTH",
"424 180 OFFCURVE",
"403 140 OFFCURVE",
"335 140 CURVE SMOOTH"
);
}
);
userData = {
RMXScaler = {
height = 100.1;
};
};
width = 670;
},
{
anchors = (
{
name = top;
position = "{306, 515}";
}
);
associatedMasterId = "0A1AFE58-107D-4787-BDA0-D82FB635C3A6";
background = {
paths = (
{
closed = 1;
nodes = (
"447 -15 OFFCURVE",
"547 78 OFFCURVE",
"547 257 CURVE SMOOTH",
"547 436 OFFCURVE",
"447 530 OFFCURVE",
"307 530 CURVE SMOOTH",
"168 530 OFFCURVE",
"67 436 OFFCURVE",
"67 257 CURVE SMOOTH",
"67 78 OFFCURVE",
"168 -15 OFFCURVE",
"307 -15 CURVE SMOOTH"
);
},
{
closed = 1;
nodes = (
"191 32 OFFCURVE",
"123 108 OFFCURVE",
"123 257 CURVE SMOOTH",
"123 406 OFFCURVE",
"191 483 OFFCURVE",
"307 483 CURVE SMOOTH",
"423 483 OFFCURVE",
"491 406 OFFCURVE",
"491 257 CURVE SMOOTH",
"491 108 OFFCURVE",
"423 32 OFFCURVE",
"307 32 CURVE SMOOTH"
);
}
);
};
layerId = "945ACBA1-6E87-4E3A-800B-E127291E1D74";
name = "Sep 19 17, 13:24";
paths = (
{
closed = 1;
nodes = (
"457 -15 OFFCURVE",
"547 84 OFFCURVE",
"547 257 CURVE SMOOTH",
"547 430 OFFCURVE",
"457 529 OFFCURVE",
"307 529 CURVE SMOOTH",
"157 529 OFFCURVE",
"67 430 OFFCURVE",
"67 257 CURVE SMOOTH",
"67 84 OFFCURVE",
"157 -15 OFFCURVE",
"307 -15 CURVE SMOOTH"
);
},
{
closed = 1;
nodes = (
"185 33 OFFCURVE",
"123 109 OFFCURVE",
"123 257 CURVE SMOOTH",
"123 405 OFFCURVE",
"185 481 OFFCURVE",
"307 481 CURVE SMOOTH",
"429 481 OFFCURVE",
"491 405 OFFCURVE",
"491 257 CURVE SMOOTH",
"491 109 OFFCURVE",
"429 33 OFFCURVE",
"307 33 CURVE SMOOTH"
);
}
);
width = 614;
},
{
anchors = (
{
name = bottom;
position = "{311, 0}";
},
{
name = top;
position = "{311, 528}";
}
);
background = {
paths = (
{
closed = 1;
nodes = (
"475 -15 OFFCURVE",
"566 85 OFFCURVE",
"566 265 CURVE SMOOTH",
"566 444 OFFCURVE",
"475 543 OFFCURVE",
"311 543 CURVE SMOOTH",
"148 543 OFFCURVE",
"57 444 OFFCURVE",
"57 265 CURVE SMOOTH",
"57 85 OFFCURVE",
"148 -15 OFFCURVE",
"311 -15 CURVE SMOOTH"
);
},
{
closed = 1;
nodes = (
"208 73 OFFCURVE",
"160 140 OFFCURVE",
"160 265 CURVE SMOOTH",
"160 389 OFFCURVE",
"208 455 OFFCURVE",
"311 455 CURVE SMOOTH",
"415 455 OFFCURVE",
"463 389 OFFCURVE",
"463 265 CURVE SMOOTH",
"463 140 OFFCURVE",
"415 73 OFFCURVE",
"311 73 CURVE SMOOTH"
);
}
);
};
layerId = "BBFAEC79-FC1B-4455-8BF7-285C9CA7D1F7";
paths = (
{
closed = 1;
nodes = (
"475 -15 OFFCURVE",
"566 85 OFFCURVE",
"566 265 CURVE SMOOTH",
"566 444 OFFCURVE",
"475 543 OFFCURVE",
"311 543 CURVE SMOOTH",
"148 543 OFFCURVE",
"57 444 OFFCURVE",
"57 265 CURVE SMOOTH",
"57 85 OFFCURVE",
"148 -15 OFFCURVE",
"311 -15 CURVE SMOOTH"
);
},
{
closed = 1;
nodes = (
"208 70 OFFCURVE",
"159 137 OFFCURVE",
"159 265 CURVE SMOOTH",
"159 392 OFFCURVE",
"208 458 OFFCURVE",
"311 458 CURVE SMOOTH",
"415 458 OFFCURVE",
"464 392 OFFCURVE",
"464 265 CURVE SMOOTH",
"464 137 OFFCURVE",
"415 70 OFFCURVE",
"311 70 CURVE SMOOTH"
);
}
);
width = 623;
}
);
unicode = 006F;
userData = {
RMXScaler = {
source = o;
};
};
},
{
color = 7;
glyphname = p;
lastChange = "2018-01-18 17:49:20 +0000";
layers = (
{
background = {
paths = (
{
closed = 1;
nodes = (
"157 -200 LINE",
"157 89 LINE",
"161 89 LINE",
"192 27 OFFCURVE",
"253 -15 OFFCURVE",
"339 -15 CURVE SMOOTH",
"487 -15 OFFCURVE",
"568 87 OFFCURVE",
"568 262 CURVE SMOOTH",
"568 436 OFFCURVE",
"487 538 OFFCURVE",
"339 538 CURVE SMOOTH",
"253 538 OFFCURVE",
"193 491 OFFCURVE",
"160 428 CURVE",
"156 428 LINE",
"145 523 LINE",
"102 523 LINE",
"102 -200 LINE"
);
},
{
closed = 1;
nodes = (
"213 34 OFFCURVE",
"153 134 OFFCURVE",
"153 262 CURVE SMOOTH",
"153 389 OFFCURVE",
"213 489 OFFCURVE",
"337 489 CURVE SMOOTH",
"453 489 OFFCURVE",
"512 413 OFFCURVE",
"512 262 CURVE SMOOTH",
"512 110 OFFCURVE",
"453 34 OFFCURVE",
"337 34 CURVE SMOOTH"
);
}
);
};
layerId = "0A1AFE58-107D-4787-BDA0-D82FB635C3A6";
paths = (
{
closed = 1;
nodes = (
"157 -200 LINE",
"157 89 LINE",
"161 89 LINE",
"192 27 OFFCURVE",
"253 -15 OFFCURVE",
"339 -15 CURVE SMOOTH",
"487 -15 OFFCURVE",
"569 87 OFFCURVE",
"569 262 CURVE SMOOTH",
"569 436 OFFCURVE",
"487 538 OFFCURVE",
"339 538 CURVE SMOOTH",
"253 538 OFFCURVE",
"193 491 OFFCURVE",
"160 428 CURVE",
"156 428 LINE",
"145 523 LINE",
"102 523 LINE",
"102 -200 LINE"
);
},
{
closed = 1;
nodes = (
"213 37 OFFCURVE",
"153 139 OFFCURVE",
"153 262 CURVE SMOOTH",
"153 384 OFFCURVE",
"213 486 OFFCURVE",
"337 486 CURVE SMOOTH",
"454 486 OFFCURVE",
"512 413 OFFCURVE",
"512 262 CURVE SMOOTH",
"512 110 OFFCURVE",
"454 37 OFFCURVE",
"337 37 CURVE SMOOTH"
);
}
);
width = 634;
},
{
background = {
paths = (
{
closed = 1;
nodes = (
"270 -195 LINE",
"270 84 LINE",
"277 84 LINE",
"298 27 OFFCURVE",
"346 -15 OFFCURVE",
"439 -15 CURVE SMOOTH",
"572 -15 OFFCURVE",
"652 92 OFFCURVE",
"652 267 CURVE SMOOTH",
"652 441 OFFCURVE",
"572 550 OFFCURVE",
"439 550 CURVE SMOOTH",
"341 550 OFFCURVE",
"292 497 OFFCURVE",
"271 438 CURVE",
"264 438 LINE",
"246 535 LINE",
"60 535 LINE",
"60 -195 LINE"
);
},
{
closed = 1;
nodes = (
"289 155 OFFCURVE",
"268 195 OFFCURVE",
"268 267 CURVE SMOOTH",
"268 340 OFFCURVE",
"289 380 OFFCURVE",
"352 380 CURVE SMOOTH",
"416 380 OFFCURVE",
"437 340 OFFCURVE",
"437 267 CURVE SMOOTH",
"437 195 OFFCURVE",
"416 155 OFFCURVE",
"352 155 CURVE SMOOTH"
);
}
);
};
layerId = "84435905-EDCB-4949-A8A3-0E53308A2F50";
paths = (
{
closed = 1;
nodes = (
"270 -195 LINE",
"270 84 LINE",
"277 84 LINE",
"298 27 OFFCURVE",
"346 -15 OFFCURVE",
"439 -15 CURVE SMOOTH",
"572 -15 OFFCURVE",
"652 92 OFFCURVE",
"652 267 CURVE SMOOTH",
"652 441 OFFCURVE",
"572 550 OFFCURVE",
"439 550 CURVE SMOOTH",
"341 550 OFFCURVE",
"292 497 OFFCURVE",
"271 438 CURVE",
"264 438 LINE",
"246 535 LINE",
"60 535 LINE",
"60 -195 LINE"
);
},
{
closed = 1;
nodes = (
"290 145 OFFCURVE",
"268 185 OFFCURVE",
"268 267 CURVE SMOOTH",
"268 350 OFFCURVE",
"290 390 OFFCURVE",
"353 390 CURVE SMOOTH",
"417 390 OFFCURVE",
"439 350 OFFCURVE",
"439 267 CURVE SMOOTH",
"439 185 OFFCURVE",
"417 145 OFFCURVE",
"353 145 CURVE SMOOTH"
);
}
);
userData = {
RMXScaler = {
height = 100.1;
};
};
width = 685;
},
{
background = {
paths = (
{
closed = 1;
nodes = (
"191 -195 LINE",
"191 84 LINE",
"196 84 LINE",
"227 21 OFFCURVE",
"282 -15 OFFCURVE",
"361 -15 CURVE SMOOTH",
"507 -15 OFFCURVE",
"590 88 OFFCURVE",
"590 264 CURVE SMOOTH",
"590 440 OFFCURVE",
"507 543 OFFCURVE",
"361 543 CURVE SMOOTH",
"282 543 OFFCURVE",
"226 507 OFFCURVE",
"194 437 CURVE",
"189 437 LINE",
"176 528 LINE",
"91 528 LINE",
"91 -195 LINE"
);
},
{
closed = 1;
nodes = (
"238 71 OFFCURVE",
"189 145 OFFCURVE",
"189 264 CURVE SMOOTH",
"189 384 OFFCURVE",
"238 457 OFFCURVE",
"338 457 CURVE SMOOTH",
"438 457 OFFCURVE",
"487 394 OFFCURVE",
"487 264 CURVE SMOOTH",
"487 134 OFFCURVE",
"438 71 OFFCURVE",
"338 71 CURVE SMOOTH"
);
}
);
};
layerId = "BBFAEC79-FC1B-4455-8BF7-285C9CA7D1F7";
paths = (
{
closed = 1;
nodes = (
"191 -195 LINE",
"191 84 LINE",
"196 84 LINE",
"225 21 OFFCURVE",
"280 -15 OFFCURVE",
"361 -15 CURVE SMOOTH",
"507 -15 OFFCURVE",
"590 88 OFFCURVE",
"590 264 CURVE SMOOTH",
"590 440 OFFCURVE",
"507 543 OFFCURVE",
"366 543 CURVE SMOOTH",
"283 543 OFFCURVE",
"230 507 OFFCURVE",
"194 437 CURVE",
"189 437 LINE",
"176 528 LINE",
"91 528 LINE",
"91 -195 LINE"
);
},
{
closed = 1;
nodes = (
"238 70 OFFCURVE",
"189 145 OFFCURVE",
"189 264 CURVE SMOOTH",
"189 384 OFFCURVE",
"238 458 OFFCURVE",
"338 458 CURVE SMOOTH",
"438 458 OFFCURVE",
"488 394 OFFCURVE",
"488 264 CURVE SMOOTH",
"488 134 OFFCURVE",
"438 70 OFFCURVE",
"338 70 CURVE SMOOTH"
);
}
);
width = 647;
}
);
leftMetricsKey = n;
rightMetricsKey = o;
unicode = 0070;
userData = {
RMXScaler = {
source = p;
};
};
},
{
color = 7;
glyphname = q;
lastChange = "2018-01-18 18:01:21 +0000";
layers = (
{
background = {
paths = (
{
closed = 1;
nodes = (
"532 523 LINE",
"489 523 LINE",
"478 428 LINE",
"474 428 LINE",
"441 491 OFFCURVE",
"381 538 OFFCURVE",
"295 538 CURVE SMOOTH",
"147 538 OFFCURVE",
"66 436 OFFCURVE",
"66 262 CURVE SMOOTH",
"66 87 OFFCURVE",
"147 -15 OFFCURVE",
"295 -15 CURVE SMOOTH",
"381 -15 OFFCURVE",
"442 27 OFFCURVE",
"473 89 CURVE",
"477 89 LINE",
"477 -200 LINE",
"532 -200 LINE"
);
},
{
closed = 1;
nodes = (
"181 34 OFFCURVE",
"122 110 OFFCURVE",
"122 262 CURVE SMOOTH",
"122 413 OFFCURVE",
"181 489 OFFCURVE",
"297 489 CURVE SMOOTH",
"421 489 OFFCURVE",
"481 389 OFFCURVE",
"481 262 CURVE SMOOTH",
"481 134 OFFCURVE",
"421 34 OFFCURVE",
"297 34 CURVE SMOOTH"
);
}
);
};
layerId = "0A1AFE58-107D-4787-BDA0-D82FB635C3A6";
paths = (
{
closed = 1;
nodes = (
"532 523 LINE",
"489 523 LINE",
"478 428 LINE",
"474 428 LINE",
"441 491 OFFCURVE",
"381 538 OFFCURVE",
"295 538 CURVE SMOOTH",
"147 538 OFFCURVE",
"65 436 OFFCURVE",
"65 262 CURVE SMOOTH",
"65 87 OFFCURVE",
"147 -15 OFFCURVE",
"295 -15 CURVE SMOOTH",
"381 -15 OFFCURVE",
"442 27 OFFCURVE",
"473 89 CURVE",
"477 89 LINE",
"477 -200 LINE",
"532 -200 LINE"
);
},
{
closed = 1;
nodes = (
"180 37 OFFCURVE",
"122 110 OFFCURVE",
"122 262 CURVE SMOOTH",
"122 413 OFFCURVE",
"180 486 OFFCURVE",
"297 486 CURVE SMOOTH",
"421 486 OFFCURVE",
"481 384 OFFCURVE",
"481 262 CURVE SMOOTH",
"481 139 OFFCURVE",
"421 37 OFFCURVE",
"297 37 CURVE SMOOTH"
);
}
);
width = 634;
},
{
background = {
paths = (
{
closed = 1;
nodes = (
"625 535 LINE",
"439 535 LINE",
"421 438 LINE",
"414 438 LINE",
"393 497 OFFCURVE",
"344 550 OFFCURVE",
"246 550 CURVE SMOOTH",
"113 550 OFFCURVE",
"33 441 OFFCURVE",
"33 267 CURVE SMOOTH",
"33 92 OFFCURVE",
"113 -15 OFFCURVE",
"246 -15 CURVE SMOOTH",
"339 -15 OFFCURVE",
"387 27 OFFCURVE",
"408 84 CURVE",
"415 84 LINE",
"415 -195 LINE",
"625 -195 LINE"
);
},
{
closed = 1;
nodes = (
"269 155 OFFCURVE",
"248 195 OFFCURVE",
"248 267 CURVE SMOOTH",
"248 340 OFFCURVE",
"269 380 OFFCURVE",
"333 380 CURVE SMOOTH",
"396 380 OFFCURVE",
"417 340 OFFCURVE",
"417 267 CURVE SMOOTH",
"417 195 OFFCURVE",
"396 155 OFFCURVE",
"333 155 CURVE SMOOTH"
);
}
);
};
layerId = "84435905-EDCB-4949-A8A3-0E53308A2F50";
paths = (
{
closed = 1;
nodes = (
"625 535 LINE",
"439 535 LINE",
"421 438 LINE",
"414 438 LINE",
"393 497 OFFCURVE",
"344 550 OFFCURVE",
"246 550 CURVE SMOOTH",
"113 550 OFFCURVE",
"33 441 OFFCURVE",
"33 267 CURVE SMOOTH",
"33 92 OFFCURVE",
"113 -15 OFFCURVE",
"246 -15 CURVE SMOOTH",
"339 -15 OFFCURVE",
"387 27 OFFCURVE",
"408 84 CURVE",
"415 84 LINE",
"415 -195 LINE",
"625 -195 LINE"
);
},
{
closed = 1;
nodes = (
"268 145 OFFCURVE",
"246 185 OFFCURVE",
"246 267 CURVE SMOOTH",
"246 350 OFFCURVE",
"268 390 OFFCURVE",
"332 390 CURVE SMOOTH",
"395 390 OFFCURVE",
"417 350 OFFCURVE",
"417 267 CURVE SMOOTH",
"417 185 OFFCURVE",
"395 145 OFFCURVE",
"332 145 CURVE SMOOTH"
);
}
);
userData = {
RMXScaler = {
height = 100.1;
};
};
width = 685;
},
{
background = {
paths = (
{
closed = 1;
nodes = (
"556 528 LINE",
"471 528 LINE",
"458 437 LINE",
"453 437 LINE",
"421 507 OFFCURVE",
"365 543 OFFCURVE",
"286 543 CURVE SMOOTH",
"140 543 OFFCURVE",
"57 440 OFFCURVE",
"57 264 CURVE SMOOTH",
"57 88 OFFCURVE",
"140 -15 OFFCURVE",
"286 -15 CURVE SMOOTH",
"365 -15 OFFCURVE",
"420 21 OFFCURVE",
"451 84 CURVE",
"456 84 LINE",
"456 -195 LINE",
"556 -195 LINE"
);
},
{
closed = 1;
nodes = (
"209 71 OFFCURVE",
"160 134 OFFCURVE",
"160 264 CURVE SMOOTH",
"160 394 OFFCURVE",
"209 457 OFFCURVE",
"309 457 CURVE SMOOTH",
"409 457 OFFCURVE",
"458 384 OFFCURVE",
"458 264 CURVE SMOOTH",
"458 145 OFFCURVE",
"409 71 OFFCURVE",
"309 71 CURVE SMOOTH"
);
}
);
};
layerId = "BBFAEC79-FC1B-4455-8BF7-285C9CA7D1F7";
paths = (
{
closed = 1;
nodes = (
"556 528 LINE",
"471 528 LINE",
"458 437 LINE",
"453 437 LINE",
"417 507 OFFCURVE",
"364 543 OFFCURVE",
"281 543 CURVE SMOOTH",
"140 543 OFFCURVE",
"57 440 OFFCURVE",
"57 264 CURVE SMOOTH",
"57 88 OFFCURVE",
"140 -15 OFFCURVE",
"286 -15 CURVE SMOOTH",
"367 -15 OFFCURVE",
"422 21 OFFCURVE",
"451 84 CURVE",
"456 84 LINE",
"456 -195 LINE",
"556 -195 LINE"
);
},
{
closed = 1;
nodes = (
"209 70 OFFCURVE",
"159 134 OFFCURVE",
"159 264 CURVE SMOOTH",
"159 394 OFFCURVE",
"209 458 OFFCURVE",
"309 458 CURVE SMOOTH",
"409 458 OFFCURVE",
"458 384 OFFCURVE",
"458 264 CURVE SMOOTH",
"458 145 OFFCURVE",
"409 70 OFFCURVE",
"309 70 CURVE SMOOTH"
);
}
);
width = 647;
}
);
leftMetricsKey = o;
rightMetricsKey = idotless;
unicode = 0071;
userData = {
RMXScaler = {
source = q;
};
};
},
{
color = 7;
glyphname = r;
lastChange = "2018-01-18 18:58:30 +0000";
layers = (
{
anchors = (
{
name = bottom;
position = "{130, 0}";
},
{
name = top;
position = "{230, 523}";
}
);
background = {
paths = (
{
closed = 1;
nodes = (
"157 0 LINE",
"157 286 LINE SMOOTH",
"157 402 OFFCURVE",
"225 485 OFFCURVE",
"317 485 CURVE SMOOTH",
"337 485 OFFCURVE",
"355 482 OFFCURVE",
"365 479 CURVE",
"372 531 LINE",
"358 535 OFFCURVE",
"341 538 OFFCURVE",
"320 538 CURVE SMOOTH",
"235 538 OFFCURVE",
"181 483 OFFCURVE",
"148 403 CURVE",
"181 428 LINE",
"156 428 LINE",
"145 523 LINE",
"102 523 LINE",
"102 0 LINE"
);
}
);
};
layerId = "0A1AFE58-107D-4787-BDA0-D82FB635C3A6";
paths = (
{
closed = 1;
nodes = (
"157 0 LINE",
"157 286 LINE SMOOTH",
"157 402 OFFCURVE",
"225 485 OFFCURVE",
"317 485 CURVE SMOOTH",
"337 485 OFFCURVE",
"355 482 OFFCURVE",
"365 479 CURVE",
"372 531 LINE",
"358 535 OFFCURVE",
"338 538 OFFCURVE",
"317 538 CURVE SMOOTH",
"236 538 OFFCURVE",
"184 487 OFFCURVE",
"160 428 CURVE",
"156 428 LINE",
"145 523 LINE",
"102 523 LINE",
"102 0 LINE"
);
}
);
width = 377;
},
{
anchors = (
{
name = bottom;
position = "{168, 0}";
},
{
name = top;
position = "{256, 535}";
}
);
background = {
paths = (
{
closed = 1;
nodes = (
"270 0 LINE",
"270 249 LINE SMOOTH",
"270 316 OFFCURVE",
"319 358 OFFCURVE",
"393 358 CURVE SMOOTH",
"408 358 OFFCURVE",
"423 357 OFFCURVE",
"439 354 CURVE",
"459 543 LINE",
"443 547 OFFCURVE",
"423 550 OFFCURVE",
"401 550 CURVE SMOOTH",
"322 550 OFFCURVE",
"291 501 OFFCURVE",
"274 417 CURVE",
"267 417 LINE",
"246 535 LINE",
"65 535 LINE",
"65 0 LINE"
);
}
);
};
layerId = "84435905-EDCB-4949-A8A3-0E53308A2F50";
paths = (
{
closed = 1;
nodes = (
"270 0 LINE",
"270 249 LINE SMOOTH",
"270 316 OFFCURVE",
"319 358 OFFCURVE",
"393 358 CURVE SMOOTH",
"408 358 OFFCURVE",
"423 357 OFFCURVE",
"439 354 CURVE",
"459 543 LINE",
"443 547 OFFCURVE",
"423 550 OFFCURVE",
"401 550 CURVE SMOOTH",
"322 550 OFFCURVE",
"291 501 OFFCURVE",
"274 417 CURVE",
"267 417 LINE",
"246 535 LINE",
"60 535 LINE",
"60 0 LINE"
);
}
);
userData = {
RMXScaler = {
height = 100.1;
};
};
width = 467;
},
{
anchors = (
{
name = bottom;
position = "{140, 0}";
},
{
name = top;
position = "{248, 528}";
}
);
background = {
paths = (
{
closed = 1;
nodes = (
"191 0 LINE",
"191 290 LINE SMOOTH",
"191 387 OFFCURVE",
"255 447 OFFCURVE",
"337 447 CURVE SMOOTH",
"358 447 OFFCURVE",
"374 444 OFFCURVE",
"387 441 CURVE",
"397 537 LINE",
"383 540 OFFCURVE",
"364 543 OFFCURVE",
"344 543 CURVE SMOOTH",
"274 543 OFFCURVE",
"224 510 OFFCURVE",
"194 437 CURVE",
"189 437 LINE",
"176 528 LINE",
"91 528 LINE",
"91 0 LINE"
);
}
);
};
layerId = "BBFAEC79-FC1B-4455-8BF7-285C9CA7D1F7";
paths = (
{
closed = 1;
nodes = (
"191 0 LINE",
"191 290 LINE SMOOTH",
"191 388 OFFCURVE",
"255 448 OFFCURVE",
"337 448 CURVE SMOOTH",
"358 448 OFFCURVE",
"374 445 OFFCURVE",
"387 442 CURVE",
"397 537 LINE",
"383 540 OFFCURVE",
"364 543 OFFCURVE",
"344 543 CURVE SMOOTH",
"274 543 OFFCURVE",
"224 510 OFFCURVE",
"194 437 CURVE",
"189 437 LINE",
"176 528 LINE",
"91 528 LINE",
"91 0 LINE"
);
}
);
width = 402;
}
);
leftMetricsKey = n;
unicode = 0072;
userData = {
RMXScaler = {
source = r;
};
};
},
{
color = 7;
glyphname = s;
lastChange = "2018-08-01 12:40:45 +0000";
layers = (
{
anchors = (
{
name = bottom;
position = "{278, 0}";
},
{
name = top;
position = "{271, 523}";
}
);
background = {
paths = (
{
closed = 1;
nodes = (
"398 -15 OFFCURVE",
"471 43 OFFCURVE",
"471 136 CURVE SMOOTH",
"471 228 OFFCURVE",
"411 264 OFFCURVE",
"321 282 CURVE SMOOTH",
"239 298 LINE SMOOTH",
"168 312 OFFCURVE",
"142 342 OFFCURVE",
"142 395 CURVE SMOOTH",
"142 461 OFFCURVE",
"188 492 OFFCURVE",
"272 492 CURVE SMOOTH",
"360 492 OFFCURVE",
"407 460 OFFCURVE",
"412 389 CURVE",
"466 394 LINE",
"459 493 OFFCURVE",
"392 540 OFFCURVE",
"273 540 CURVE SMOOTH",
"161 540 OFFCURVE",
"88 493 OFFCURVE",
"88 395 CURVE SMOOTH",
"88 317 OFFCURVE",
"129 267 OFFCURVE",
"228 248 CURVE SMOOTH",
"310 232 LINE SMOOTH",
"376 219 OFFCURVE",
"417 201 OFFCURVE",
"417 136 CURVE SMOOTH",
"417 72 OFFCURVE",
"365 33 OFFCURVE",
"276 33 CURVE SMOOTH",
"180 33 OFFCURVE",
"128 69 OFFCURVE",
"120 145 CURVE",
"65 140 LINE",
"71 40 OFFCURVE",
"144 -15 OFFCURVE",
"276 -15 CURVE SMOOTH"
);
}
);
};
layerId = "0A1AFE58-107D-4787-BDA0-D82FB635C3A6";
paths = (
{
closed = 1;
nodes = (
"398 -15 OFFCURVE",
"471 43 OFFCURVE",
"471 136 CURVE SMOOTH",
"471 228 OFFCURVE",
"411 264 OFFCURVE",
"321 282 CURVE SMOOTH",
"242 298 LINE SMOOTH",
"168 313 OFFCURVE",
"142 342 OFFCURVE",
"142 395 CURVE SMOOTH",
"142 461 OFFCURVE",
"188 492 OFFCURVE",
"269 492 CURVE SMOOTH",
"357 492 OFFCURVE",
"404 460 OFFCURVE",
"409 389 CURVE",
"463 394 LINE",
"456 493 OFFCURVE",
"389 540 OFFCURVE",
"270 540 CURVE SMOOTH",
"161 540 OFFCURVE",
"88 493 OFFCURVE",
"88 395 CURVE SMOOTH",
"88 317 OFFCURVE",
"129 269 OFFCURVE",
"231 248 CURVE SMOOTH",
"310 232 LINE SMOOTH",
"376 219 OFFCURVE",
"417 201 OFFCURVE",
"417 136 CURVE SMOOTH",
"417 72 OFFCURVE",
"365 33 OFFCURVE",
"276 33 CURVE SMOOTH",
"180 33 OFFCURVE",
"128 69 OFFCURVE",
"120 145 CURVE",
"65 140 LINE",
"71 40 OFFCURVE",
"144 -15 OFFCURVE",
"276 -15 CURVE SMOOTH"
);
}
);
width = 536;
},
{
anchors = (
{
name = bottom;
position = "{307, 0}";
},
{
name = top;
position = "{302, 535}";
}
);
background = {
paths = (
{
closed = 1;
nodes = (
"479 -20 OFFCURVE",
"575 47 OFFCURVE",
"575 165 CURVE SMOOTH",
"575 266 OFFCURVE",
"511 315 OFFCURVE",
"393 337 CURVE SMOOTH",
"308 353 LINE SMOOTH",
"262 362 OFFCURVE",
"250 370 OFFCURVE",
"250 388 CURVE SMOOTH",
"250 406 OFFCURVE",
"268 415 OFFCURVE",
"307 415 CURVE SMOOTH",
"356 415 OFFCURVE",
"370 398 OFFCURVE",
"375 368 CURVE",
"570 384 LINE",
"558 503 OFFCURVE",
"475 553 OFFCURVE",
"302 553 CURVE SMOOTH",
"130 553 OFFCURVE",
"47 492 OFFCURVE",
"47 375 CURVE SMOOTH",
"47 280 OFFCURVE",
"106 217 OFFCURVE",
"236 193 CURVE SMOOTH",
"312 179 LINE SMOOTH",
"357 171 OFFCURVE",
"372 162 OFFCURVE",
"372 144 CURVE SMOOTH",
"372 124 OFFCURVE",
"352 115 OFFCURVE",
"309 115 CURVE SMOOTH",
"252 115 OFFCURVE",
"239 130 OFFCURVE",
"233 165 CURVE",
"35 148 LINE",
"43 33 OFFCURVE",
"126 -20 OFFCURVE",
"307 -20 CURVE SMOOTH"
);
}
);
};
layerId = "84435905-EDCB-4949-A8A3-0E53308A2F50";
paths = (
{
closed = 1;
nodes = (
"479 -20 OFFCURVE",
"575 47 OFFCURVE",
"575 165 CURVE SMOOTH",
"575 266 OFFCURVE",
"511 315 OFFCURVE",
"393 337 CURVE SMOOTH",
"308 353 LINE SMOOTH",
"265 361 OFFCURVE",
"252 368 OFFCURVE",
"252 388 CURVE SMOOTH",
"252 406 OFFCURVE",
"270 415 OFFCURVE",
"306 415 CURVE SMOOTH",
"355 415 OFFCURVE",
"369 398 OFFCURVE",
"372 368 CURVE",
"569 384 LINE",
"557 503 OFFCURVE",
"474 553 OFFCURVE",
"301 553 CURVE SMOOTH",
"132 553 OFFCURVE",
"49 492 OFFCURVE",
"49 375 CURVE SMOOTH",
"49 280 OFFCURVE",
"106 217 OFFCURVE",
"236 193 CURVE SMOOTH",
"312 179 LINE SMOOTH",
"357 171 OFFCURVE",
"372 164 OFFCURVE",
"372 144 CURVE SMOOTH",
"372 124 OFFCURVE",
"352 115 OFFCURVE",
"309 115 CURVE SMOOTH",
"252 115 OFFCURVE",
"239 130 OFFCURVE",
"233 165 CURVE",
"35 148 LINE",
"43 33 OFFCURVE",
"126 -20 OFFCURVE",
"307 -20 CURVE SMOOTH"
);
}
);
userData = {
RMXScaler = {
height = 100.1;
};
};
width = 610;
},
{
anchors = (
{
name = bottom;
position = "{272, 0}";
},
{
name = top;
position = "{265, 515}";
}
);
associatedMasterId = "0A1AFE58-107D-4787-BDA0-D82FB635C3A6";
background = {
paths = (
{
closed = 1;
nodes = (
"381 -15 OFFCURVE",
"464 33 OFFCURVE",
"464 133 CURVE SMOOTH",
"464 224 OFFCURVE",
"404 257 OFFCURVE",
"305 278 CURVE SMOOTH",
"240 292 LINE SMOOTH",
"165 308 OFFCURVE",
"132 336 OFFCURVE",
"132 392 CURVE SMOOTH",
"132 450 OFFCURVE",
"178 483 OFFCURVE",
"263 483 CURVE SMOOTH",
"352 483 OFFCURVE",
"396 451 OFFCURVE",
"403 379 CURVE",
"458 379 LINE",
"449 483 OFFCURVE",
"383 530 OFFCURVE",
"263 530 CURVE SMOOTH",
"154 530 OFFCURVE",
"81 479 OFFCURVE",
"81 392 CURVE SMOOTH",
"81 299 OFFCURVE",
"146 261 OFFCURVE",
"224 244 CURVE SMOOTH",
"304 227 LINE SMOOTH",
"372 213 OFFCURVE",
"413 194 OFFCURVE",
"413 128 CURVE SMOOTH",
"413 63 OFFCURVE",
"356 31 OFFCURVE",
"267 31 CURVE SMOOTH",
"171 31 OFFCURVE",
"119 65 OFFCURVE",
"115 140 CURVE",
"60 140 LINE",
"60 39 OFFCURVE",
"135 -15 OFFCURVE",
"269 -15 CURVE SMOOTH"
);
}
);
};
layerId = "02C77100-9580-476B-AE62-48C630CBC67D";
name = "Sep 19 17, 14:20";
paths = (
{
closed = 1;
nodes = (
"381 -15 OFFCURVE",
"464 33 OFFCURVE",
"464 133 CURVE SMOOTH",
"464 225 OFFCURVE",
"404 262 OFFCURVE",
"305 280 CURVE SMOOTH",
"238 292 LINE SMOOTH",
"166 305 OFFCURVE",
"133 333 OFFCURVE",
"133 392 CURVE SMOOTH",
"133 452 OFFCURVE",
"179 484 OFFCURVE",
"263 484 CURVE SMOOTH",
"353 484 OFFCURVE",
"399 452 OFFCURVE",
"403 379 CURVE",
"458 379 LINE",
"452 483 OFFCURVE",
"385 530 OFFCURVE",
"263 530 CURVE SMOOTH",
"154 530 OFFCURVE",
"81 482 OFFCURVE",
"81 389 CURVE SMOOTH",
"81 293 OFFCURVE",
"146 260 OFFCURVE",
"222 245 CURVE SMOOTH",
"304 229 LINE SMOOTH",
"371 216 OFFCURVE",
"412 195 OFFCURVE",
"412 128 CURVE SMOOTH",
"412 63 OFFCURVE",
"355 31 OFFCURVE",
"267 31 CURVE SMOOTH",
"171 31 OFFCURVE",
"119 65 OFFCURVE",
"115 140 CURVE",
"60 140 LINE",
"60 39 OFFCURVE",
"135 -15 OFFCURVE",
"269 -15 CURVE SMOOTH"
);
}
);
width = 524;
},
{
anchors = (
{
name = bottom;
position = "{285, 0}";
},
{
name = top;
position = "{283, 528}";
}
);
background = {
paths = (
{
closed = 1;
nodes = (
"421 -15 OFFCURVE",
"501 41 OFFCURVE",
"501 151 CURVE SMOOTH",
"501 236 OFFCURVE",
"450 278 OFFCURVE",
"334 301 CURVE SMOOTH",
"262 315 LINE SMOOTH",
"205 326 OFFCURVE",
"179 347 OFFCURVE",
"179 388 CURVE SMOOTH",
"179 437 OFFCURVE",
"213 464 OFFCURVE",
"282 464 CURVE SMOOTH",
"356 464 OFFCURVE",
"391 439 OFFCURVE",
"397 379 CURVE",
"496 387 LINE",
"488 493 OFFCURVE",
"420 545 OFFCURVE",
"283 545 CURVE SMOOTH",
"154 545 OFFCURVE",
"81 488 OFFCURVE",
"81 387 CURVE SMOOTH",
"81 293 OFFCURVE",
"139 253 OFFCURVE",
"241 232 CURVE SMOOTH",
"309 218 LINE SMOOTH",
"375 204 OFFCURVE",
"403 187 OFFCURVE",
"403 141 CURVE SMOOTH",
"403 92 OFFCURVE",
"359 65 OFFCURVE",
"289 65 CURVE SMOOTH",
"209 65 OFFCURVE",
"167 93 OFFCURVE",
"157 156 CURVE",
"58 148 LINE",
"68 41 OFFCURVE",
"136 -15 OFFCURVE",
"287 -15 CURVE SMOOTH"
);
}
);
};
layerId = "BBFAEC79-FC1B-4455-8BF7-285C9CA7D1F7";
paths = (
{
closed = 1;
nodes = (
"421 -15 OFFCURVE",
"501 41 OFFCURVE",
"501 151 CURVE SMOOTH",
"501 236 OFFCURVE",
"450 277 OFFCURVE",
"334 301 CURVE SMOOTH",
"266 315 LINE SMOOTH",
"206 327 OFFCURVE",
"180 347 OFFCURVE",
"180 388 CURVE SMOOTH",
"180 437 OFFCURVE",
"214 464 OFFCURVE",
"283 464 CURVE SMOOTH",
"354 464 OFFCURVE",
"388 439 OFFCURVE",
"394 379 CURVE",
"493 387 LINE",
"485 493 OFFCURVE",
"418 545 OFFCURVE",
"284 545 CURVE SMOOTH",
"155 545 OFFCURVE",
"82 488 OFFCURVE",
"82 387 CURVE SMOOTH",
"82 293 OFFCURVE",
"140 255 OFFCURVE",
"245 232 CURVE SMOOTH",
"309 218 LINE SMOOTH",
"375 204 OFFCURVE",
"403 187 OFFCURVE",
"403 141 CURVE SMOOTH",
"403 92 OFFCURVE",
"359 65 OFFCURVE",
"289 65 CURVE SMOOTH",
"209 65 OFFCURVE",
"167 93 OFFCURVE",
"157 156 CURVE",
"58 148 LINE",
"68 41 OFFCURVE",
"136 -15 OFFCURVE",
"287 -15 CURVE SMOOTH"
);
}
);
width = 563;
}
);
unicode = 0073;
userData = {
RMXScaler = {
source = s;
};
};
},
{
color = 7;
glyphname = t;
lastChange = "2018-03-13 10:56:58 +0000";
layers = (
{
anchors = (
{
name = bottom;
position = "{258, 0}";
},
{
name = topright;
position = "{295, 550}";
}
);
background = {
paths = (
{
closed = 1;
nodes = (
"20 474 LINE",
"369 474 LINE",
"369 523 LINE",
"20 523 LINE"
);
},
{
closed = 1;
nodes = (
"364 51 LINE",
"344 45 OFFCURVE",
"319 40 OFFCURVE",
"292 40 CURVE SMOOTH",
"227 40 OFFCURVE",
"191 66 OFFCURVE",
"191 146 CURVE SMOOTH",
"191 670 LINE",
"151 670 LINE",
"136 523 LINE",
"136 146 LINE SMOOTH",
"136 45 OFFCURVE",
"180 -10 OFFCURVE",
"287 -10 CURVE SMOOTH",
"317 -10 OFFCURVE",
"346 -5 OFFCURVE",
"372 4 CURVE"
);
}
);
};
layerId = "0A1AFE58-107D-4787-BDA0-D82FB635C3A6";
paths = (
{
closed = 1;
nodes = (
"20 474 LINE",
"369 474 LINE",
"369 523 LINE",
"20 523 LINE"
);
},
{
closed = 1;
nodes = (
"364 51 LINE",
"344 45 OFFCURVE",
"319 40 OFFCURVE",
"292 40 CURVE SMOOTH",
"227 40 OFFCURVE",
"191 66 OFFCURVE",
"191 146 CURVE SMOOTH",
"191 690 LINE",
"151 690 LINE",
"136 523 LINE",
"136 146 LINE SMOOTH",
"136 45 OFFCURVE",
"180 -10 OFFCURVE",
"287 -10 CURVE SMOOTH",
"317 -10 OFFCURVE",
"346 -5 OFFCURVE",
"372 4 CURVE"
);
}
);
width = 402;
},
{
anchors = (
{
name = bottom;
position = "{263, 0}";
},
{
name = topright;
position = "{395, 555}";
}
);
background = {
paths = (
{
closed = 1;
nodes = (
"15 380 LINE",
"417 380 LINE",
"417 535 LINE",
"15 535 LINE"
);
},
{
closed = 1;
nodes = (
"407 153 LINE",
"392 150 OFFCURVE",
"376 148 OFFCURVE",
"361 148 CURVE SMOOTH",
"313 148 OFFCURVE",
"298 165 OFFCURVE",
"298 216 CURVE SMOOTH",
"298 675 LINE",
"122 675 LINE",
"93 535 LINE",
"93 161 LINE SMOOTH",
"93 41 OFFCURVE",
"151 -15 OFFCURVE",
"292 -15 CURVE SMOOTH",
"340 -15 OFFCURVE",
"398 -6 OFFCURVE",
"427 4 CURVE"
);
}
);
};
layerId = "84435905-EDCB-4949-A8A3-0E53308A2F50";
paths = (
{
closed = 1;
nodes = (
"15 380 LINE",
"417 380 LINE",
"417 535 LINE",
"15 535 LINE"
);
},
{
closed = 1;
nodes = (
"407 153 LINE",
"392 150 OFFCURVE",
"376 148 OFFCURVE",
"361 148 CURVE SMOOTH",
"313 148 OFFCURVE",
"298 165 OFFCURVE",
"298 216 CURVE SMOOTH",
"298 690 LINE",
"122 690 LINE",
"93 535 LINE",
"93 161 LINE SMOOTH",
"93 41 OFFCURVE",
"151 -15 OFFCURVE",
"292 -15 CURVE SMOOTH",
"340 -15 OFFCURVE",
"398 -6 OFFCURVE",
"427 4 CURVE"
);
}
);
userData = {
RMXScaler = {
height = 100.1;
};
};
width = 457;
},
{
anchors = (
{
name = bottom;
position = "{262, 0}";
},
{
name = topright;
position = "{329, 540}";
}
);
background = {
paths = (
{
closed = 1;
nodes = (
"20 443 LINE",
"387 443 LINE",
"387 528 LINE",
"20 528 LINE"
);
},
{
closed = 1;
nodes = (
"379 83 LINE",
"361 79 OFFCURVE",
"339 74 OFFCURVE",
"314 74 CURVE SMOOTH",
"254 74 OFFCURVE",
"225 97 OFFCURVE",
"225 166 CURVE SMOOTH",
"225 670 LINE",
"145 670 LINE",
"125 528 LINE",
"125 154 LINE SMOOTH",
"125 43 OFFCURVE",
"178 -13 OFFCURVE",
"291 -13 CURVE SMOOTH",
"327 -13 OFFCURVE",
"365 -6 OFFCURVE",
"389 1 CURVE"
);
}
);
};
layerId = "BBFAEC79-FC1B-4455-8BF7-285C9CA7D1F7";
paths = (
{
closed = 1;
nodes = (
"20 443 LINE",
"387 443 LINE",
"387 528 LINE",
"20 528 LINE"
);
},
{
closed = 1;
nodes = (
"379 83 LINE",
"361 79 OFFCURVE",
"339 74 OFFCURVE",
"314 74 CURVE SMOOTH",
"254 74 OFFCURVE",
"225 97 OFFCURVE",
"225 166 CURVE SMOOTH",
"225 690 LINE",
"145 690 LINE",
"125 528 LINE",
"125 154 LINE SMOOTH",
"125 43 OFFCURVE",
"178 -13 OFFCURVE",
"291 -13 CURVE SMOOTH",
"327 -13 OFFCURVE",
"365 -6 OFFCURVE",
"389 1 CURVE"
);
}
);
width = 419;
}
);
unicode = 0074;
userData = {
RMXScaler = {
source = t;
};
};
},
{
color = 7;
glyphname = u;
lastChange = "2018-03-03 12:33:32 +0000";
layers = (
{
anchors = (
{
name = bottom;
position = "{305, 0}";
},
{
name = ogonek;
position = "{488, 0}";
},
{
name = top;
position = "{303, 523}";
}
);
background = {
paths = (
{
closed = 1;
nodes = (
"454 523 LINE",
"454 239 LINE SMOOTH",
"454 118 OFFCURVE",
"376 35 OFFCURVE",
"280 35 CURVE SMOOTH",
"195 35 OFFCURVE",
"152 87 OFFCURVE",
"152 185 CURVE SMOOTH",
"152 523 LINE",
"97 523 LINE",
"97 170 LINE SMOOTH",
"97 51 OFFCURVE",
"162 -15 OFFCURVE",
"275 -15 CURVE SMOOTH",
"357 -15 OFFCURVE",
"416 32 OFFCURVE",
"451 95 CURVE",
"455 95 LINE",
"466 0 LINE",
"509 0 LINE",
"509 523 LINE"
);
}
);
};
layerId = "0A1AFE58-107D-4787-BDA0-D82FB635C3A6";
paths = (
{
closed = 1;
nodes = (
"452 523 LINE",
"452 239 LINE SMOOTH",
"452 118 OFFCURVE",
"370 37 OFFCURVE",
"276 37 CURVE SMOOTH",
"193 37 OFFCURVE",
"152 84 OFFCURVE",
"152 185 CURVE SMOOTH",
"152 523 LINE",
"97 523 LINE",
"97 176 LINE SMOOTH",
"97 51 OFFCURVE",
"162 -15 OFFCURVE",
"268 -15 CURVE SMOOTH",
"356 -15 OFFCURVE",
"414 34 OFFCURVE",
"449 95 CURVE",
"453 95 LINE",
"464 0 LINE",
"507 0 LINE",
"507 523 LINE"
);
}
);
width = 609;
},
{
anchors = (
{
name = bottom;
position = "{340, 0}";
},
{
name = ogonek;
position = "{567, 0}";
},
{
name = top;
position = "{341, 535}";
}
);
background = {
paths = (
{
closed = 1;
nodes = (
"406 535 LINE",
"406 256 LINE SMOOTH",
"406 200 OFFCURVE",
"370 165 OFFCURVE",
"325 165 CURVE SMOOTH",
"277 165 OFFCURVE",
"262 193 OFFCURVE",
"262 243 CURVE SMOOTH",
"262 535 LINE",
"57 535 LINE",
"57 188 LINE SMOOTH",
"57 66 OFFCURVE",
"103 -15 OFFCURVE",
"229 -15 CURVE SMOOTH",
"325 -15 OFFCURVE",
"369 33 OFFCURVE",
"403 108 CURVE",
"410 108 LINE",
"430 0 LINE",
"611 0 LINE",
"611 535 LINE"
);
}
);
};
layerId = "84435905-EDCB-4949-A8A3-0E53308A2F50";
paths = (
{
closed = 1;
nodes = (
"410 535 LINE",
"410 256 LINE SMOOTH",
"410 200 OFFCURVE",
"374 165 OFFCURVE",
"327 165 CURVE SMOOTH",
"282 165 OFFCURVE",
"267 193 OFFCURVE",
"267 243 CURVE SMOOTH",
"267 535 LINE",
"57 535 LINE",
"57 188 LINE SMOOTH",
"57 66 OFFCURVE",
"103 -15 OFFCURVE",
"228 -15 CURVE SMOOTH",
"321 -15 OFFCURVE",
"373 33 OFFCURVE",
"407 108 CURVE",
"414 108 LINE",
"434 0 LINE",
"620 0 LINE",
"620 535 LINE"
);
}
);
userData = {
RMXScaler = {
height = 100.1;
};
};
width = 680;
},
{
anchors = (
{
name = bottom;
position = "{310, 0}";
},
{
name = ogonek;
position = "{514, 0}";
},
{
name = top;
position = "{313, 528}";
}
);
background = {
paths = (
{
closed = 1;
nodes = (
"436 528 LINE",
"436 238 LINE SMOOTH",
"436 140 OFFCURVE",
"374 75 OFFCURVE",
"291 75 CURVE SMOOTH",
"222 75 OFFCURVE",
"187 119 OFFCURVE",
"187 205 CURVE SMOOTH",
"187 528 LINE",
"87 528 LINE",
"87 172 LINE SMOOTH",
"87 52 OFFCURVE",
"147 -15 OFFCURVE",
"259 -15 CURVE SMOOTH",
"343 -15 OFFCURVE",
"398 28 OFFCURVE",
"433 91 CURVE",
"438 91 LINE",
"451 0 LINE",
"536 0 LINE",
"536 528 LINE"
);
}
);
};
layerId = "BBFAEC79-FC1B-4455-8BF7-285C9CA7D1F7";
paths = (
{
closed = 1;
nodes = (
"436 528 LINE",
"436 238 LINE SMOOTH",
"436 140 OFFCURVE",
"374 74 OFFCURVE",
"291 74 CURVE SMOOTH",
"222 74 OFFCURVE",
"187 118 OFFCURVE",
"187 205 CURVE SMOOTH",
"187 528 LINE",
"87 528 LINE",
"87 172 LINE SMOOTH",
"87 52 OFFCURVE",
"147 -15 OFFCURVE",
"259 -15 CURVE SMOOTH",
"343 -15 OFFCURVE",
"398 28 OFFCURVE",
"433 91 CURVE",
"438 91 LINE",
"451 0 LINE",
"536 0 LINE",
"536 528 LINE"
);
}
);
width = 627;
}
);
leftMetricsKey = "=|n";
rightMetricsKey = "=|n";
unicode = 0075;
userData = {
RMXScaler = {
source = u;
};
};
},
{
color = 7;
glyphname = v;
lastChange = "2018-01-17 20:17:29 +0000";
layers = (
{
background = {
paths = (
{
closed = 1;
nodes = (
"247 67 LINE",
"243 67 LINE",
"65 523 LINE",
"4 523 LINE",
"215 0 LINE",
"274 0 LINE",
"485 523 LINE",
"425 523 LINE"
);
}
);
};
layerId = "0A1AFE58-107D-4787-BDA0-D82FB635C3A6";
paths = (
{
closed = 1;
nodes = (
"248 67 LINE",
"244 67 LINE",
"64 523 LINE",
"5 523 LINE",
"215 0 LINE",
"274 0 LINE",
"484 523 LINE",
"427 523 LINE"
);
}
);
width = 489;
},
{
background = {
paths = (
{
closed = 1;
nodes = (
"321 193 LINE",
"315 193 LINE",
"224 535 LINE",
"-3 535 LINE",
"179 0 LINE",
"451 0 LINE",
"633 535 LINE",
"415 535 LINE"
);
}
);
};
layerId = "84435905-EDCB-4949-A8A3-0E53308A2F50";
paths = (
{
closed = 1;
nodes = (
"331 193 LINE",
"325 193 LINE",
"230 535 LINE",
"0 535 LINE",
"187 0 LINE",
"446 0 LINE",
"633 535 LINE",
"423 535 LINE"
);
}
);
userData = {
RMXScaler = {
height = 100.1;
};
};
width = 633;
},
{
background = {
paths = (
{
closed = 1;
nodes = (
"272 97 LINE",
"267 97 LINE",
"115 528 LINE",
"4 528 LINE",
"202 0 LINE",
"328 0 LINE",
"525 528 LINE",
"420 528 LINE"
);
}
);
};
layerId = "BBFAEC79-FC1B-4455-8BF7-285C9CA7D1F7";
paths = (
{
closed = 1;
nodes = (
"271 97 LINE",
"266 97 LINE",
"113 528 LINE",
"5 528 LINE",
"202 0 LINE",
"329 0 LINE",
"524 528 LINE",
"420 528 LINE"
);
}
);
width = 529;
}
);
unicode = 0076;
userData = {
RMXScaler = {
source = v;
};
};
},
{
color = 7;
glyphname = w;
lastChange = "2018-01-19 10:08:40 +0000";
layers = (
{
anchors = (
{
name = top;
position = "{394, 523}";
}
);
background = {
paths = (
{
closed = 1;
nodes = (
"579 67 LINE",
"575 67 LINE",
"422 523 LINE",
"366 523 LINE",
"216 67 LINE",
"212 67 LINE",
"54 523 LINE",
"-7 523 LINE",
"181 0 LINE",
"243 0 LINE",
"392 446 LINE",
"394 446 LINE",
"545 0 LINE",
"605 0 LINE",
"793 523 LINE",
"734 523 LINE"
);
}
);
};
layerId = "0A1AFE58-107D-4787-BDA0-D82FB635C3A6";
paths = (
{
closed = 1;
nodes = (
"574 73 LINE",
"570 73 LINE",
"424 523 LINE",
"364 523 LINE",
"219 73 LINE",
"215 73 LINE",
"64 523 LINE",
"5 523 LINE",
"186 0 LINE",
"246 0 LINE",
"391 448 LINE",
"393 448 LINE",
"540 0 LINE",
"600 0 LINE",
"781 523 LINE",
"724 523 LINE"
);
}
);
width = 786;
},
{
anchors = (
{
name = top;
position = "{500, 535}";
}
);
background = {
paths = (
{
closed = 1;
nodes = (
"701 165 LINE",
"696 165 LINE",
"618 535 LINE",
"372 535 LINE",
"297 165 LINE",
"292 165 LINE",
"230 535 LINE",
"0 535 LINE",
"144 0 LINE",
"409 0 LINE",
"484 334 LINE",
"488 334 LINE",
"561 0 LINE",
"826 0 LINE",
"970 535 LINE",
"760 535 LINE"
);
}
);
};
layerId = "84435905-EDCB-4949-A8A3-0E53308A2F50";
paths = (
{
closed = 1;
nodes = (
"711 165 LINE",
"706 165 LINE",
"628 535 LINE",
"377 535 LINE",
"297 165 LINE",
"292 165 LINE",
"230 535 LINE",
"0 535 LINE",
"144 0 LINE",
"409 0 LINE",
"484 334 LINE",
"488 334 LINE",
"561 0 LINE",
"826 0 LINE",
"970 535 LINE",
"775 535 LINE"
);
}
);
userData = {
RMXScaler = {
height = 100.1;
};
};
width = 970;
},
{
anchors = (
{
name = top;
position = "{425, 528}";
}
);
background = {
paths = (
{
closed = 1;
nodes = (
"614 97 LINE",
"608 97 LINE",
"485 528 LINE",
"364 528 LINE",
"240 97 LINE",
"234 97 LINE",
"106 528 LINE",
"-4 528 LINE",
"167 0 LINE",
"297 0 LINE",
"419 416 LINE",
"422 416 LINE",
"541 0 LINE",
"671 0 LINE",
"842 528 LINE",
"743 528 LINE"
);
}
);
};
layerId = "BBFAEC79-FC1B-4455-8BF7-285C9CA7D1F7";
paths = (
{
closed = 1;
nodes = (
"612 97 LINE",
"606 97 LINE",
"485 528 LINE",
"362 528 LINE",
"243 97 LINE",
"237 97 LINE",
"113 528 LINE",
"5 528 LINE",
"169 0 LINE",
"299 0 LINE",
"418 416 LINE",
"421 416 LINE",
"539 0 LINE",
"669 0 LINE",
"833 528 LINE",
"734 528 LINE"
);
}
);
width = 838;
}
);
unicode = 0077;
userData = {
RMXScaler = {
source = w;
};
};
},
{
color = 7;
glyphname = x;
lastChange = "2018-03-01 09:24:10 +0000";
layers = (
{
background = {
paths = (
{
closed = 1;
nodes = (
"92 0 LINE",
"246 218 LINE",
"257 218 LINE",
"473 523 LINE",
"411 523 LINE",
"255 302 LINE",
"243 302 LINE",
"30 0 LINE"
);
},
{
closed = 1;
nodes = (
"467 0 LINE",
"262 288 LINE",
"257 295 LINE",
"95 523 LINE",
"31 523 LINE",
"236 235 LINE",
"242 226 LINE",
"403 0 LINE"
);
}
);
};
layerId = "0A1AFE58-107D-4787-BDA0-D82FB635C3A6";
paths = (
{
closed = 1;
nodes = (
"86 0 LINE",
"244 222 LINE",
"254 222 LINE",
"467 523 LINE",
"406 523 LINE",
"254 306 LINE",
"244 306 LINE",
"25 0 LINE"
);
},
{
closed = 1;
nodes = (
"472 0 LINE",
"273 275 LINE",
"259 294 LINE",
"94 523 LINE",
"30 523 LINE",
"222 258 LINE",
"237 238 LINE",
"408 0 LINE"
);
}
);
width = 497;
},
{
background = {
paths = (
{
closed = 1;
nodes = (
"212 0 LINE",
"329 247 LINE",
"452 247 LINE",
"608 535 LINE",
"401 535 LINE",
"295 304 LINE",
"172 304 LINE",
"5 0 LINE"
);
},
{
closed = 1;
nodes = (
"610 0 LINE",
"417 364 LINE",
"316 364 LINE",
"237 535 LINE",
"7 535 LINE",
"199 171 LINE",
"300 171 LINE",
"380 0 LINE"
);
}
);
};
layerId = "84435905-EDCB-4949-A8A3-0E53308A2F50";
paths = (
{
closed = 1;
nodes = (
"212 0 LINE",
"329 247 LINE",
"452 247 LINE",
"608 535 LINE",
"401 535 LINE",
"295 304 LINE",
"172 304 LINE",
"5 0 LINE"
);
},
{
closed = 1;
nodes = (
"610 0 LINE",
"417 364 LINE",
"316 364 LINE",
"237 535 LINE",
"7 535 LINE",
"199 171 LINE",
"300 171 LINE",
"380 0 LINE"
);
}
);
userData = {
RMXScaler = {
height = 100.1;
};
};
width = 615;
},
{
background = {
paths = (
{
closed = 1;
nodes = (
"116 0 LINE",
"249 194 LINE",
"277 194 LINE",
"510 528 LINE",
"404 528 LINE",
"270 336 LINE",
"244 336 LINE",
"10 0 LINE"
);
},
{
closed = 1;
nodes = (
"499 0 LINE",
"285 312 LINE",
"274 323 LINE",
"134 528 LINE",
"22 528 LINE",
"232 221 LINE",
"245 208 LINE",
"387 0 LINE"
);
}
);
};
layerId = "BBFAEC79-FC1B-4455-8BF7-285C9CA7D1F7";
paths = (
{
closed = 1;
nodes = (
"116 0 LINE",
"245 195 LINE",
"271 195 LINE",
"503 528 LINE",
"397 528 LINE",
"266 337 LINE",
"240 337 LINE",
"10 0 LINE"
);
},
{
closed = 1;
nodes = (
"500 0 LINE",
"300 283 LINE",
"276 317 LINE",
"127 528 LINE",
"15 528 LINE",
"208 254 LINE",
"234 218 LINE",
"388 0 LINE"
);
}
);
width = 513;
}
);
unicode = 0078;
userData = {
RMXScaler = {
source = x;
};
};
},
{
color = 7;
glyphname = y;
lastChange = "2018-02-27 18:57:23 +0000";
layers = (
{
anchors = (
{
name = bottom;
position = "{372, 0}";
},
{
name = top;
position = "{245, 523}";
}
);
background = {
paths = (
{
closed = 1;
nodes = (
"251 57 LINE",
"247 57 LINE",
"66 523 LINE",
"4 523 LINE",
"212 0 LINE",
"240 0 LINE",
"242 30 LINE",
"189 -117 OFFCURVE",
"142 -164 OFFCURVE",
"78 -164 CURVE SMOOTH",
"64 -164 OFFCURVE",
"41 -162 OFFCURVE",
"23 -157 CURVE",
"16 -206 LINE",
"32 -211 OFFCURVE",
"58 -215 OFFCURVE",
"78 -215 CURVE SMOOTH",
"182 -215 OFFCURVE",
"229 -142 OFFCURVE",
"284 0 CURVE SMOOTH",
"485 523 LINE",
"426 523 LINE"
);
}
);
};
layerId = "0A1AFE58-107D-4787-BDA0-D82FB635C3A6";
paths = (
{
closed = 1;
nodes = (
"251 57 LINE",
"247 57 LINE",
"64 523 LINE",
"5 523 LINE",
"212 0 LINE",
"240 0 LINE",
"242 30 LINE",
"189 -117 OFFCURVE",
"142 -164 OFFCURVE",
"78 -164 CURVE SMOOTH",
"64 -164 OFFCURVE",
"41 -162 OFFCURVE",
"23 -157 CURVE",
"16 -206 LINE",
"32 -211 OFFCURVE",
"58 -215 OFFCURVE",
"78 -215 CURVE SMOOTH",
"182 -215 OFFCURVE",
"230 -142 OFFCURVE",
"284 0 CURVE SMOOTH",
"484 523 LINE",
"427 523 LINE"
);
}
);
width = 489;
},
{
anchors = (
{
name = bottom;
position = "{555, 0}";
},
{
name = top;
position = "{327, 535}";
}
);
background = {
paths = (
{
closed = 1;
nodes = (
"330 193 LINE",
"324 193 LINE",
"230 535 LINE",
"0 535 LINE",
"187 0 LINE",
"446 0 LINE",
"633 535 LINE",
"423 535 LINE"
);
}
);
};
layerId = "84435905-EDCB-4949-A8A3-0E53308A2F50";
paths = (
{
closed = 1;
nodes = (
"333 183 LINE",
"326 183 LINE",
"230 535 LINE",
"0 535 LINE",
"188 0 LINE",
"318 0 LINE",
"291 18 LINE",
"267 -33 OFFCURVE",
"239 -45 OFFCURVE",
"179 -45 CURVE SMOOTH",
"155 -45 OFFCURVE",
"118 -41 OFFCURVE",
"96 -36 CURVE",
"76 -192 LINE",
"111 -202 OFFCURVE",
"163 -210 OFFCURVE",
"208 -210 CURVE SMOOTH",
"351 -210 OFFCURVE",
"414 -138 OFFCURVE",
"459 0 CURVE SMOOTH",
"633 535 LINE",
"423 535 LINE"
);
}
);
userData = {
RMXScaler = {
height = 100.1;
};
};
width = 633;
},
{
anchors = (
{
name = bottom;
position = "{421, 0}";
},
{
name = top;
position = "{265, 528}";
}
);
background = {
paths = (
{
closed = 1;
nodes = (
"277 91 LINE",
"272 91 LINE",
"115 528 LINE",
"4 528 LINE",
"205 0 LINE",
"274 0 LINE",
"260 37 LINE",
"216 -86 OFFCURVE",
"177 -122 OFFCURVE",
"109 -122 CURVE SMOOTH",
"90 -122 OFFCURVE",
"63 -119 OFFCURVE",
"42 -115 CURVE",
"31 -199 LINE",
"53 -205 OFFCURVE",
"84 -210 OFFCURVE",
"116 -210 CURVE SMOOTH",
"240 -210 OFFCURVE",
"290 -132 OFFCURVE",
"337 0 CURVE SMOOTH",
"525 528 LINE",
"420 528 LINE"
);
}
);
};
layerId = "BBFAEC79-FC1B-4455-8BF7-285C9CA7D1F7";
paths = (
{
closed = 1;
nodes = (
"277 91 LINE",
"272 91 LINE",
"113 528 LINE",
"5 528 LINE",
"205 0 LINE",
"274 0 LINE",
"260 37 LINE",
"214 -86 OFFCURVE",
"177 -122 OFFCURVE",
"109 -122 CURVE SMOOTH",
"90 -122 OFFCURVE",
"63 -119 OFFCURVE",
"42 -115 CURVE",
"31 -199 LINE",
"53 -205 OFFCURVE",
"84 -210 OFFCURVE",
"116 -210 CURVE SMOOTH",
"240 -210 OFFCURVE",
"290 -132 OFFCURVE",
"337 0 CURVE SMOOTH",
"524 528 LINE",
"420 528 LINE"
);
}
);
width = 529;
}
);
leftMetricsKey = v;
rightMetricsKey = v;
unicode = 0079;
userData = {
RMXScaler = {
source = y;
};
};
},
{
color = 7;
glyphname = z;
lastChange = "2018-02-24 15:25:05 +0000";
layers = (
{
anchors = (
{
name = top;
position = "{250, 523}";
}
);
background = {
paths = (
{
closed = 1;
nodes = (
"123 53 LINE",
"427 478 LINE",
"427 523 LINE",
"70 523 LINE",
"70 473 LINE",
"359 473 LINE",
"359 470 LINE",
"55 45 LINE",
"55 0 LINE",
"422 0 LINE",
"422 50 LINE",
"123 50 LINE"
);
}
);
};
layerId = "0A1AFE58-107D-4787-BDA0-D82FB635C3A6";
paths = (
{
closed = 1;
nodes = (
"123 52 LINE",
"427 479 LINE",
"427 523 LINE",
"70 523 LINE",
"70 474 LINE",
"359 474 LINE",
"359 471 LINE",
"55 44 LINE",
"55 0 LINE",
"422 0 LINE",
"422 49 LINE",
"123 49 LINE"
);
}
);
width = 482;
},
{
anchors = (
{
name = top;
position = "{292, 535}";
}
);
background = {
paths = (
{
closed = 1;
nodes = (
"300 172 LINE",
"534 375 LINE",
"534 535 LINE",
"60 535 LINE",
"60 370 LINE",
"279 370 LINE",
"279 363 LINE",
"45 160 LINE",
"45 0 LINE",
"532 0 LINE",
"532 165 LINE",
"300 165 LINE"
);
}
);
};
layerId = "84435905-EDCB-4949-A8A3-0E53308A2F50";
paths = (
{
closed = 1;
nodes = (
"300 162 LINE",
"534 385 LINE",
"534 535 LINE",
"60 535 LINE",
"60 380 LINE",
"279 380 LINE",
"279 373 LINE",
"45 150 LINE",
"45 0 LINE",
"532 0 LINE",
"532 155 LINE",
"300 155 LINE"
);
}
);
userData = {
RMXScaler = {
height = 100.1;
};
};
width = 579;
},
{
anchors = (
{
name = top;
position = "{266, 528}";
}
);
background = {
paths = (
{
closed = 1;
nodes = (
"182 88 LINE",
"466 441 LINE",
"466 520 LINE",
"73 520 LINE",
"73 436 LINE",
"342 436 LINE",
"342 432 LINE",
"58 79 LINE",
"58 0 LINE",
"461 0 LINE",
"461 84 LINE",
"182 84 LINE"
);
}
);
};
layerId = "BBFAEC79-FC1B-4455-8BF7-285C9CA7D1F7";
paths = (
{
closed = 1;
nodes = (
"182 89 LINE",
"466 448 LINE",
"466 528 LINE",
"73 528 LINE",
"73 443 LINE",
"342 443 LINE",
"342 439 LINE",
"58 80 LINE",
"58 0 LINE",
"461 0 LINE",
"461 85 LINE",
"182 85 LINE"
);
}
);
width = 524;
}
);
unicode = 007A;
userData = {
RMXScaler = {
source = z;
};
};
},
{
color = 7;
glyphname = quotesingle;
lastChange = "2018-01-25 19:30:06 +0000";
layers = (
{
background = {
paths = (
{
closed = 1;
nodes = (
"49 770 OFFCURVE",
"29 756 OFFCURVE",
"29 727 CURVE SMOOTH",
"29 691 OFFCURVE",
"57 683 OFFCURVE",
"88 684 CURVE",
"78 708 LINE",
"78 665 OFFCURVE",
"44 609 OFFCURVE",
"20 575 CURVE",
"61 575 LINE",
"80 603 OFFCURVE",
"117 654 OFFCURVE",
"117 715 CURVE SMOOTH",
"117 753 OFFCURVE",
"98 770 OFFCURVE",
"72 770 CURVE SMOOTH"
);
}
);
};
layerId = "0A1AFE58-107D-4787-BDA0-D82FB635C3A6";
paths = (
{
closed = 1;
nodes = (
"60 520 LINE",
"102 520 LINE",
"114 770 LINE",
"60 770 LINE"
);
}
);
width = 174;
},
{
background = {
paths = (
{
closed = 1;
nodes = (
"54 770 OFFCURVE",
"10 730 OFFCURVE",
"10 666 CURVE SMOOTH",
"10 602 OFFCURVE",
"56 567 OFFCURVE",
"122 566 CURVE",
"98 599 LINE",
"89 556 OFFCURVE",
"65 510 OFFCURVE",
"25 446 CURVE",
"140 446 LINE",
"184 505 OFFCURVE",
"235 582 OFFCURVE",
"235 653 CURVE SMOOTH",
"235 734 OFFCURVE",
"188 770 OFFCURVE",
"119 770 CURVE SMOOTH"
);
}
);
};
layerId = "84435905-EDCB-4949-A8A3-0E53308A2F50";
paths = (
{
closed = 1;
nodes = (
"50 500 LINE",
"195 500 LINE",
"225 770 LINE",
"50 770 LINE"
);
}
);
width = 255;
},
{
layerId = "BBFAEC79-FC1B-4455-8BF7-285C9CA7D1F7";
paths = (
{
closed = 1;
nodes = (
"60 515 LINE",
"135 515 LINE",
"155 770 LINE",
"60 770 LINE"
);
}
);
width = 205;
}
);
unicode = 0027;
},
{
color = 7;
glyphname = numbersign;
lastChange = "2018-01-26 09:53:14 +0000";
layers = (
{
background = {
paths = (
{
closed = 1;
nodes = (
"192 0 LINE",
"362 710 LINE",
"305 710 LINE",
"135 0 LINE"
);
},
{
closed = 1;
nodes = (
"462 0 LINE",
"632 710 LINE",
"575 710 LINE",
"405 0 LINE"
);
},
{
closed = 1;
nodes = (
"657 170 LINE",
"657 223 LINE",
"50 223 LINE",
"50 170 LINE"
);
},
{
closed = 1;
nodes = (
"717 487 LINE",
"717 540 LINE",
"110 540 LINE",
"110 487 LINE"
);
}
);
};
layerId = "0A1AFE58-107D-4787-BDA0-D82FB635C3A6";
paths = (
{
closed = 1;
nodes = (
"188 0 LINE",
"358 710 LINE",
"305 710 LINE",
"135 0 LINE"
);
},
{
closed = 1;
nodes = (
"472 0 LINE",
"642 710 LINE",
"589 710 LINE",
"419 0 LINE"
);
},
{
closed = 1;
nodes = (
"667 170 LINE",
"667 218 LINE",
"50 218 LINE",
"50 170 LINE"
);
},
{
closed = 1;
nodes = (
"727 492 LINE",
"727 540 LINE",
"110 540 LINE",
"110 492 LINE"
);
}
);
width = 777;
},
{
background = {
paths = (
{
closed = 1;
nodes = (
"257 0 LINE",
"427 710 LINE",
"257 710 LINE",
"87 0 LINE"
);
},
{
closed = 1;
nodes = (
"545 0 LINE",
"715 710 LINE",
"545 710 LINE",
"375 0 LINE"
);
},
{
closed = 1;
nodes = (
"722 140 LINE",
"722 275 LINE",
"30 275 LINE",
"30 140 LINE"
);
},
{
closed = 1;
nodes = (
"772 435 LINE",
"772 570 LINE",
"80 570 LINE",
"80 435 LINE"
);
}
);
};
layerId = "84435905-EDCB-4949-A8A3-0E53308A2F50";
paths = (
{
closed = 1;
nodes = (
"257 0 LINE",
"427 710 LINE",
"257 710 LINE",
"87 0 LINE"
);
},
{
closed = 1;
nodes = (
"545 0 LINE",
"715 710 LINE",
"545 710 LINE",
"375 0 LINE"
);
},
{
closed = 1;
nodes = (
"722 140 LINE",
"722 280 LINE",
"30 280 LINE",
"30 140 LINE"
);
},
{
closed = 1;
nodes = (
"772 430 LINE",
"772 570 LINE",
"80 570 LINE",
"80 430 LINE"
);
}
);
width = 802;
},
{
background = {
paths = (
{
closed = 1;
nodes = (
"221 0 LINE",
"391 710 LINE",
"300 710 LINE",
"130 0 LINE"
);
},
{
closed = 1;
nodes = (
"495 0 LINE",
"665 710 LINE",
"574 710 LINE",
"404 0 LINE"
);
},
{
closed = 1;
nodes = (
"686 159 LINE",
"686 240 LINE",
"55 240 LINE",
"55 159 LINE"
);
},
{
closed = 1;
nodes = (
"740 470 LINE",
"740 551 LINE",
"109 551 LINE",
"109 470 LINE"
);
}
);
};
layerId = "BBFAEC79-FC1B-4455-8BF7-285C9CA7D1F7";
paths = (
{
closed = 1;
nodes = (
"218 0 LINE",
"388 710 LINE",
"295 710 LINE",
"125 0 LINE"
);
},
{
closed = 1;
nodes = (
"500 0 LINE",
"670 710 LINE",
"577 710 LINE",
"407 0 LINE"
);
},
{
closed = 1;
nodes = (
"691 160 LINE",
"691 242 LINE",
"50 242 LINE",
"50 160 LINE"
);
},
{
closed = 1;
nodes = (
"745 468 LINE",
"745 550 LINE",
"104 550 LINE",
"104 468 LINE"
);
}
);
width = 795;
}
);
unicode = 0023;
},
{
color = 7;
glyphname = ampersand;
lastChange = "2018-03-23 15:21:45 +0000";
layers = (
{
background = {
paths = (
{
closed = 1;
nodes = (
"60 405 OFFCURVE",
"60 174 CURVE SMOOTH",
"60 41 OFFCURVE",
"166 -14 OFFCURVE",
"303 -14 CURVE SMOOTH",
"535 -14 OFFCURVE",
"652 139 OFFCURVE",
"652 400 CURVE",
"595 400 LINE",
"595 161 OFFCURVE",
"500 37 OFFCURVE",
"300 37 CURVE SMOOTH",
"189 37 OFFCURVE",
"119 82 OFFCURVE",
"119 174 CURVE SMOOTH",
"119 376 OFFCURVE",
"487 380 OFFCURVE",
"487 586 CURVE SMOOTH",
"487 675 OFFCURVE",
"422 725 OFFCURVE",
"317 725 CURVE SMOOTH",
"189 725 OFFCURVE",
"137 660 OFFCURVE",
"137 587 CURVE SMOOTH",
"137 502 OFFCURVE",
"201 444 OFFCURVE",
"245 398 CURVE SMOOTH",
"631 0 LINE",
"706 0 LINE",
"292 426 LINE SMOOTH",
"236 484 OFFCURVE",
"192 520 OFFCURVE",
"192 587 CURVE SMOOTH",
"192 639 OFFCURVE",
"230 679 OFFCURVE",
"317 679 CURVE SMOOTH",
"382 679 OFFCURVE",
"433 651 OFFCURVE",
"433 588 CURVE SMOOTH",
"433 407 OFFCURVE"
);
}
);
};
layerId = "0A1AFE58-107D-4787-BDA0-D82FB635C3A6";
paths = (
{
closed = 1;
nodes = (
"60 405 OFFCURVE",
"60 174 CURVE SMOOTH",
"60 41 OFFCURVE",
"166 -14 OFFCURVE",
"303 -14 CURVE SMOOTH",
"535 -14 OFFCURVE",
"652 139 OFFCURVE",
"652 400 CURVE",
"599 400 LINE",
"599 161 OFFCURVE",
"505 35 OFFCURVE",
"300 35 CURVE SMOOTH",
"189 35 OFFCURVE",
"115 82 OFFCURVE",
"115 174 CURVE SMOOTH",
"115 376 OFFCURVE",
"487 380 OFFCURVE",
"487 586 CURVE SMOOTH",
"487 675 OFFCURVE",
"422 725 OFFCURVE",
"317 725 CURVE SMOOTH",
"189 725 OFFCURVE",
"137 660 OFFCURVE",
"137 587 CURVE SMOOTH",
"137 502 OFFCURVE",
"200 443 OFFCURVE",
"245 398 CURVE SMOOTH",
"636 0 LINE",
"706 0 LINE",
"288 426 LINE SMOOTH",
"232 484 OFFCURVE",
"190 520 OFFCURVE",
"190 587 CURVE SMOOTH",
"190 639 OFFCURVE",
"228 680 OFFCURVE",
"317 680 CURVE SMOOTH",
"385 680 OFFCURVE",
"436 651 OFFCURVE",
"436 588 CURVE SMOOTH",
"436 405 OFFCURVE"
);
}
);
width = 726;
},
{
background = {
paths = (
{
closed = 1;
nodes = (
"40 435 OFFCURVE",
"40 184 CURVE SMOOTH",
"40 47 OFFCURVE",
"156 -14 OFFCURVE",
"343 -14 CURVE SMOOTH",
"615 -14 OFFCURVE",
"752 169 OFFCURVE",
"752 400 CURVE",
"575 400 LINE",
"575 231 OFFCURVE",
"480 131 OFFCURVE",
"340 131 CURVE SMOOTH",
"269 131 OFFCURVE",
"235 158 OFFCURVE",
"235 205 CURVE SMOOTH",
"235 332 OFFCURVE",
"578 355 OFFCURVE",
"578 561 CURVE SMOOTH",
"578 660 OFFCURVE",
"501 725 OFFCURVE",
"351 725 CURVE SMOOTH",
"198 725 OFFCURVE",
"117 665 OFFCURVE",
"117 562 CURVE SMOOTH",
"117 457 OFFCURVE",
"195 393 OFFCURVE",
"240 348 CURVE SMOOTH",
"591 0 LINE",
"786 0 LINE",
"382 409 LINE SMOOTH",
"325 466 OFFCURVE",
"287 506 OFFCURVE",
"287 548 CURVE SMOOTH",
"287 583 OFFCURVE",
"310 600 OFFCURVE",
"347 600 CURVE SMOOTH",
"387 600 OFFCURVE",
"408 583 OFFCURVE",
"408 550 CURVE SMOOTH",
"408 424 OFFCURVE"
);
}
);
};
layerId = "84435905-EDCB-4949-A8A3-0E53308A2F50";
paths = (
{
closed = 1;
nodes = (
"35 435 OFFCURVE",
"35 184 CURVE SMOOTH",
"35 47 OFFCURVE",
"151 -15 OFFCURVE",
"343 -15 CURVE SMOOTH",
"615 -15 OFFCURVE",
"757 169 OFFCURVE",
"757 400 CURVE",
"570 400 LINE",
"570 231 OFFCURVE",
"480 136 OFFCURVE",
"340 136 CURVE SMOOTH",
"269 136 OFFCURVE",
"240 160 OFFCURVE",
"240 207 CURVE SMOOTH",
"240 334 OFFCURVE",
"583 355 OFFCURVE",
"583 561 CURVE SMOOTH",
"583 660 OFFCURVE",
"506 730 OFFCURVE",
"351 730 CURVE SMOOTH",
"193 730 OFFCURVE",
"112 665 OFFCURVE",
"112 562 CURVE SMOOTH",
"112 457 OFFCURVE",
"195 393 OFFCURVE",
"240 348 CURVE SMOOTH",
"591 0 LINE",
"796 0 LINE",
"392 409 LINE SMOOTH",
"335 466 OFFCURVE",
"287 506 OFFCURVE",
"287 548 CURVE SMOOTH",
"287 583 OFFCURVE",
"310 600 OFFCURVE",
"347 600 CURVE SMOOTH",
"387 600 OFFCURVE",
"408 583 OFFCURVE",
"408 550 CURVE SMOOTH",
"408 424 OFFCURVE"
);
}
);
width = 801;
},
{
background = {
paths = (
{
closed = 1;
nodes = (
"50 416 OFFCURVE",
"50 174 CURVE SMOOTH",
"50 41 OFFCURVE",
"162 -14 OFFCURVE",
"309 -14 CURVE SMOOTH",
"552 -14 OFFCURVE",
"674 165 OFFCURVE",
"674 400 CURVE",
"580 400 LINE",
"580 198 OFFCURVE",
"490 71 OFFCURVE",
"306 71 CURVE SMOOTH",
"206 71 OFFCURVE",
"153 112 OFFCURVE",
"153 182 CURVE SMOOTH",
"153 363 OFFCURVE",
"510 367 OFFCURVE",
"510 578 CURVE SMOOTH",
"510 672 OFFCURVE",
"439 725 OFFCURVE",
"323 725 CURVE SMOOTH",
"187 725 OFFCURVE",
"127 661 OFFCURVE",
"127 579 CURVE SMOOTH",
"127 499 OFFCURVE",
"183 439 OFFCURVE",
"227 393 CURVE SMOOTH",
"606 0 LINE",
"723 0 LINE",
"319 422 LINE SMOOTH",
"264 481 OFFCURVE",
"222 518 OFFCURVE",
"222 574 CURVE SMOOTH",
"222 616 OFFCURVE",
"252 648 OFFCURVE",
"323 648 CURVE SMOOTH",
"378 648 OFFCURVE",
"419 625 OFFCURVE",
"419 573 CURVE SMOOTH",
"419 421 OFFCURVE"
);
}
);
};
layerId = "BBFAEC79-FC1B-4455-8BF7-285C9CA7D1F7";
paths = (
{
closed = 1;
nodes = (
"50 416 OFFCURVE",
"50 174 CURVE SMOOTH",
"50 41 OFFCURVE",
"162 -14 OFFCURVE",
"309 -14 CURVE SMOOTH",
"552 -14 OFFCURVE",
"674 165 OFFCURVE",
"674 400 CURVE",
"579 400 LINE",
"579 198 OFFCURVE",
"490 71 OFFCURVE",
"306 71 CURVE SMOOTH",
"206 71 OFFCURVE",
"153 112 OFFCURVE",
"153 182 CURVE SMOOTH",
"153 363 OFFCURVE",
"510 367 OFFCURVE",
"510 578 CURVE SMOOTH",
"510 672 OFFCURVE",
"439 725 OFFCURVE",
"323 725 CURVE SMOOTH",
"187 725 OFFCURVE",
"127 661 OFFCURVE",
"127 579 CURVE SMOOTH",
"127 499 OFFCURVE",
"183 439 OFFCURVE",
"227 393 CURVE SMOOTH",
"605 0 LINE",
"722 0 LINE",
"319 422 LINE SMOOTH",
"263 480 OFFCURVE",
"222 518 OFFCURVE",
"222 574 CURVE SMOOTH",
"222 616 OFFCURVE",
"252 648 OFFCURVE",
"323 648 CURVE SMOOTH",
"378 648 OFFCURVE",
"419 625 OFFCURVE",
"419 573 CURVE SMOOTH",
"419 421 OFFCURVE"
);
}
);
width = 742;
}
);
unicode = 0026;
},
{
color = 7;
glyphname = asterisk;
lastChange = "2018-01-26 09:58:12 +0000";
layers = (
{
background = {
paths = (
{
closed = 1;
nodes = (
"327 756 LINE",
"199 724 LINE",
"199 850 LINE",
"159 850 LINE",
"159 724 LINE",
"31 756 LINE",
"20 717 LINE",
"146 682 LINE",
"46 574 LINE",
"79 545 LINE",
"179 654 LINE",
"279 545 LINE",
"312 574 LINE",
"212 682 LINE",
"338 717 LINE"
);
}
);
};
layerId = "0A1AFE58-107D-4787-BDA0-D82FB635C3A6";
paths = (
{
closed = 1;
nodes = (
"327 757 LINE",
"201 722 LINE",
"202 850 LINE",
"156 850 LINE",
"157 722 LINE",
"31 757 LINE",
"20 717 LINE",
"146 682 LINE",
"46 574 LINE",
"79 545 LINE",
"179 655 LINE",
"279 545 LINE",
"312 574 LINE",
"212 682 LINE",
"338 717 LINE"
);
}
);
width = 358;
},
{
background = {
paths = (
{
closed = 1;
nodes = (
"398 778 LINE",
"285 741 LINE",
"290 850 LINE",
"161 850 LINE",
"166 741 LINE",
"53 778 LINE",
"20 657 LINE",
"133 626 LINE",
"42 548 LINE",
"125 454 LINE",
"226 551 LINE",
"326 455 LINE",
"409 548 LINE",
"320 626 LINE",
"431 657 LINE"
);
}
);
};
layerId = "84435905-EDCB-4949-A8A3-0E53308A2F50";
paths = (
{
closed = 1;
nodes = (
"398 778 LINE",
"285 741 LINE",
"290 850 LINE",
"161 850 LINE",
"166 741 LINE",
"53 778 LINE",
"20 657 LINE",
"133 626 LINE",
"42 548 LINE",
"125 454 LINE",
"226 551 LINE",
"326 455 LINE",
"409 548 LINE",
"320 626 LINE",
"431 657 LINE"
);
}
);
width = 451;
},
{
background = {
paths = (
{
closed = 1;
nodes = (
"345 761 LINE",
"223 727 LINE",
"225 850 LINE",
"159 850 LINE",
"160 727 LINE",
"38 761 LINE",
"20 697 LINE",
"139 665 LINE",
"44 568 LINE",
"97 521 LINE",
"191 621 LINE",
"286 521 LINE",
"340 568 LINE",
"244 665 LINE",
"364 697 LINE"
);
}
);
};
layerId = "BBFAEC79-FC1B-4455-8BF7-285C9CA7D1F7";
paths = (
{
closed = 1;
nodes = (
"345 761 LINE",
"225 727 LINE",
"227 850 LINE",
"156 850 LINE",
"158 727 LINE",
"38 761 LINE",
"20 697 LINE",
"139 665 LINE",
"45 568 LINE",
"97 521 LINE",
"191 621 LINE",
"286 521 LINE",
"339 568 LINE",
"244 665 LINE",
"364 697 LINE"
);
}
);
width = 384;
}
);
unicode = 002A;
},
{
color = 7;
glyphname = comma;
lastChange = "2018-03-23 11:00:09 +0000";
layers = (
{
background = {
paths = (
{
closed = 1;
nodes = (
"125 -5 OFFCURVE",
"145 11 OFFCURVE",
"145 41 CURVE SMOOTH",
"145 71 OFFCURVE",
"125 87 OFFCURVE",
"100 87 CURVE SMOOTH",
"74 87 OFFCURVE",
"55 71 OFFCURVE",
"55 41 CURVE SMOOTH",
"55 11 OFFCURVE",
"74 -5 OFFCURVE",
"100 -5 CURVE SMOOTH"
);
}
);
};
layerId = "0A1AFE58-107D-4787-BDA0-D82FB635C3A6";
paths = (
{
closed = 1;
nodes = (
"111 -110 OFFCURVE",
"146 -33 OFFCURVE",
"146 28 CURVE SMOOTH",
"146 63 OFFCURVE",
"129 83 OFFCURVE",
"100 83 CURVE SMOOTH",
"75 83 OFFCURVE",
"56 67 OFFCURVE",
"56 37 CURVE SMOOTH",
"56 10 OFFCURVE",
"78 -6 OFFCURVE",
"110 -6 CURVE",
"102 4 LINE",
"98 -42 OFFCURVE",
"71 -102 OFFCURVE",
"37 -150 CURVE",
"69 -165 LINE"
);
}
);
width = 201;
},
{
background = {
paths = (
{
closed = 1;
nodes = (
"226 -15 OFFCURVE",
"273 25 OFFCURVE",
"273 92 CURVE SMOOTH",
"273 159 OFFCURVE",
"226 199 OFFCURVE",
"156 199 CURVE SMOOTH",
"86 199 OFFCURVE",
"40 159 OFFCURVE",
"40 92 CURVE SMOOTH",
"40 25 OFFCURVE",
"86 -15 OFFCURVE",
"156 -15 CURVE SMOOTH"
);
}
);
};
layerId = "84435905-EDCB-4949-A8A3-0E53308A2F50";
paths = (
{
closed = 1;
nodes = (
"212 -112 OFFCURVE",
"273 -6 OFFCURVE",
"273 74 CURVE SMOOTH",
"273 146 OFFCURVE",
"230 193 OFFCURVE",
"155 193 CURVE SMOOTH",
"88 193 OFFCURVE",
"42 152 OFFCURVE",
"42 86 CURVE SMOOTH",
"42 21 OFFCURVE",
"91 -15 OFFCURVE",
"160 -15 CURVE",
"138 19 LINE",
"131 -20 OFFCURVE",
"92 -100 OFFCURVE",
"45 -164 CURVE",
"134 -200 LINE"
);
}
);
width = 313;
},
{
background = {
paths = (
{
closed = 1;
nodes = (
"171 -10 OFFCURVE",
"200 11 OFFCURVE",
"200 57 CURVE SMOOTH",
"200 103 OFFCURVE",
"171 123 OFFCURVE",
"130 123 CURVE SMOOTH",
"88 123 OFFCURVE",
"60 103 OFFCURVE",
"60 57 CURVE SMOOTH",
"60 11 OFFCURVE",
"88 -10 OFFCURVE",
"130 -10 CURVE SMOOTH"
);
}
);
};
layerId = "BBFAEC79-FC1B-4455-8BF7-285C9CA7D1F7";
paths = (
{
closed = 1;
nodes = (
"159 -105 OFFCURVE",
"199 -33 OFFCURVE",
"199 39 CURVE SMOOTH",
"199 86 OFFCURVE",
"177 119 OFFCURVE",
"127 119 CURVE SMOOTH",
"87 119 OFFCURVE",
"61 93 OFFCURVE",
"61 53 CURVE SMOOTH",
"61 8 OFFCURVE",
"95 -10 OFFCURVE",
"137 -10 CURVE",
"128 19 LINE",
"123 -35 OFFCURVE",
"91 -102 OFFCURVE",
"55 -151 CURVE",
"107 -171 LINE"
);
}
);
width = 259;
}
);
rightMetricsKey = period;
unicode = 002C;
},
{
color = 7;
glyphname = hyphen;
lastChange = "2018-03-13 10:52:59 +0000";
layers = (
{
background = {
paths = (
{
closed = 1;
nodes = (
"80 245 LINE",
"400 245 LINE",
"400 293 LINE",
"80 293 LINE"
);
}
);
};
layerId = "0A1AFE58-107D-4787-BDA0-D82FB635C3A6";
paths = (
{
closed = 1;
nodes = (
"80 245 LINE",
"370 245 LINE",
"370 293 LINE",
"80 293 LINE"
);
}
);
width = 450;
},
{
background = {
paths = (
{
closed = 1;
nodes = (
"80 191 LINE",
"475 191 LINE",
"475 346 LINE",
"80 346 LINE"
);
}
);
};
layerId = "84435905-EDCB-4949-A8A3-0E53308A2F50";
paths = (
{
closed = 1;
nodes = (
"80 191 LINE",
"445 191 LINE",
"445 346 LINE",
"80 346 LINE"
);
}
);
width = 525;
},
{
background = {
paths = (
{
closed = 1;
nodes = (
"80 217 LINE",
"421 217 LINE",
"421 302 LINE",
"80 302 LINE"
);
}
);
};
layerId = "BBFAEC79-FC1B-4455-8BF7-285C9CA7D1F7";
paths = (
{
closed = 1;
nodes = (
"80 217 LINE",
"391 217 LINE",
"391 302 LINE",
"80 302 LINE"
);
}
);
width = 471;
}
);
unicode = 002D;
},
